<svg width="480" height="348" viewBox="0 0 480 348" fill="none" xmlns="http://www.w3.org/2000/svg">
<path d="M293.059 205.088C297.013 203.401 301.052 201.854 304.95 199.97C326.515 189.509 348.895 180.426 369.339 168.137C395.616 152.333 422.117 140.128 453.498 146.483C462.529 148.311 471.11 152.276 479.888 155.285C479.916 156.523 479.944 157.788 479.972 159.025C475.877 160.544 471.643 161.781 467.689 163.637C455.321 169.43 440.991 173.114 431.147 181.832C402.767 206.972 369.423 213.215 333.611 212.54C320.458 212.287 307.333 210.684 294.209 209.672C293.844 208.153 293.452 206.635 293.059 205.088Z" fill="url(#paint0_linear)"/>
<path d="M0 147.271C16.5459 126.967 41.2246 121.849 62.5099 133.801C67.025 136.332 71.484 139.228 75.2699 142.715C102.276 167.546 133.854 183.631 169.049 193.136C173.059 194.205 176.789 196.202 181.136 197.973C144.482 217.827 97.2283 212.146 69.0161 184.953C40.6918 157.676 38.4202 156.41 0 147.271Z" fill="url(#paint1_linear)"/>
<path d="M278.252 218.277C297.967 213.777 316.42 219.149 332.293 233.715C347.324 247.495 364.515 256.887 384.735 259.474C395.391 260.824 406.413 259.39 417.041 260.88C430.643 262.821 434.26 267.489 436.532 278.681C417.995 281.803 399.458 285.149 380.865 287.989C354.616 291.983 332.265 284.052 314.933 263.918C302.258 249.182 290.535 233.603 278.252 218.277Z" fill="url(#paint2_linear)"/>
<path d="M288.993 172.326C308.932 151.067 308.427 118.531 288.095 93.8683C278.084 81.7199 268.577 69.1216 258.874 56.7202C259.911 55.3703 260.949 54.0205 261.987 52.6426C275.924 56.1296 290.591 57.9294 303.66 63.4974C331.592 75.3926 339.837 92.6872 334.845 122.721C329.713 153.598 304.501 186.359 274.634 199.267C280.103 189.171 284.786 180.51 289.498 171.82L288.993 172.326Z" fill="url(#paint3_linear)"/>
<path d="M183.492 206.607C144.062 226.573 109.456 250.195 66.6325 253.035C41.4771 254.694 19.5187 247.383 1.9071 227.529C14.9475 211.303 32.3067 203.176 49.9183 210.235C89.6846 226.123 127.796 216.984 166.469 208.379C170.115 207.563 173.676 206.298 177.322 205.398C178.107 205.173 179.033 205.651 183.492 206.607Z" fill="url(#paint4_linear)"/>
<path d="M197.233 207.057C199 221.792 193.868 229.947 184.165 235.487C174.321 241.111 164.338 246.483 154.214 251.544C138.453 259.418 128.834 271.735 123.758 288.664C117.588 309.277 112.821 330.846 94.3679 347.972C89.7407 328.118 84.0758 309.896 81.5799 291.252C79.6448 276.769 87.3289 264.143 99.4999 256.325C110.521 249.238 122.356 242.208 134.807 238.89C157.355 232.9 179.313 226.77 197.233 207.057Z" fill="url(#paint5_linear)"/>
<path d="M132.311 48.3965C137.331 62.204 143.192 74.971 146.445 88.3848C148.829 98.2554 149.502 109.223 147.904 119.206C144.258 141.871 143.277 163.581 159.121 183.491C132.676 179.469 111.643 156.129 105.445 125.392C98.6025 91.3938 108.67 63.0195 132.311 48.3965Z" fill="url(#paint6_linear)"/>
<path d="M225.277 47.9192C228.446 50.5345 234.195 52.981 234.335 55.765C234.952 66.8448 236.915 79.3587 232.765 88.8918C217.677 123.425 205.422 157.704 222.36 198.789C180.996 168.419 173.872 118.757 201.804 76.7715C208.731 66.3386 217.649 57.2273 225.67 47.4974C225.67 47.4692 225.277 47.9192 225.277 47.9192Z" fill="url(#paint7_linear)"/>
<path d="M144.538 319.4C135.957 299.519 143.22 277.05 163.636 263.355C174.181 256.268 186.015 251.009 196.167 243.473C205.478 236.583 213.33 227.725 221.743 219.795C237.308 243.726 228.306 275.84 201.888 288.129C192.073 292.685 181.472 295.722 171.993 300.84C162.683 305.902 154.298 312.707 144.538 319.4Z" fill="url(#paint8_linear)"/>
<path d="M190.839 188.525C161.14 178.738 149.53 161.416 152.391 131.692C153.512 119.937 153.176 107.929 155.644 96.512C157.663 87.1477 160.916 76.6303 167.142 69.9094C177.125 59.0827 190.026 50.9557 201.972 41.4507C210.245 54.4146 205.141 64.0601 198.944 73.2277C182.622 97.3557 175.218 123.621 180.687 152.529C182.959 164.425 187.249 175.983 190.839 188.525Z" fill="url(#paint9_linear)"/>
<path d="M298.724 194.739C313.812 173.451 339.64 162.259 348.923 135.432C357.504 110.657 367.376 86.81 362.412 59.5605C380.023 67.9125 391.353 89.2003 389.082 109.785C386.81 130.257 378.677 148.086 363.449 162.175C345.221 179.076 324.16 190.633 298.724 194.739Z" fill="url(#paint10_linear)"/>
<path d="M122.496 15.8322C117.364 30.5115 114.363 46.4281 106.679 59.617C89.2918 89.3973 86.7959 118.109 105.641 147.721C107.352 150.42 108.754 153.317 110.605 156.635C90.8342 151.18 68.5393 115.297 67.7261 88.7786C66.7445 56.4393 88.3944 23.7905 117.476 13.7231C119.159 14.4262 120.841 15.1292 122.496 15.8322Z" fill="url(#paint11_linear)"/>
<path d="M242.356 213.328C296.901 237.259 304.557 270.92 267.567 325.728C266.726 324.631 265.24 323.591 265.352 322.719C267.904 300.475 258.874 282.534 245.805 265.38C231.895 247.129 231.419 229.694 242.356 213.328Z" fill="url(#paint12_linear)"/>
<path d="M456.836 193.333C461.547 208.21 456.892 222.355 443.599 233.153C423.828 249.182 401.589 254.3 377.247 244.767C360.645 238.243 344.295 231.1 327.133 223.929C338.266 216.196 350.437 214.818 369.17 216.815C383.108 218.277 398.252 221.877 410.984 218.136C426.969 213.44 441.075 202.22 456.836 193.333Z" fill="url(#paint13_linear)"/>
<path d="M398.785 126.967C397.13 113.272 396.064 102.67 394.522 92.153C391.998 74.8585 383.473 60.9666 369.058 51.321C361.935 46.5686 359.074 41.4505 359.776 32.6204C360.365 25.0277 358.065 17.2381 356.775 7.42383C380.696 11.5014 396.149 23.9872 406.946 43.4752C422.65 71.9339 416.733 98.2835 398.785 126.967Z" fill="url(#paint14_linear)"/>
<path d="M289.469 171.877C281.589 180.342 273.849 188.947 265.8 197.215C262.323 200.814 258.2 203.767 251.189 205.707C251.75 201.095 251.61 196.287 252.956 191.956C256.742 179.808 261.986 168.081 265.155 155.792C270.343 135.685 265.716 116.675 257.275 98.0592C253.657 90.1009 252.423 81.0458 252.087 71.9346C281.589 99.3809 306.128 128.458 288.965 172.327C288.993 172.327 289.469 171.877 289.469 171.877Z" fill="url(#paint15_linear)"/>
<path d="M242.187 89.4814C269.979 129.723 256.35 167.799 236.242 210.796C231.054 200.785 225.894 194.289 224.183 186.978C217.088 156.776 224.576 118.024 242.187 89.4814Z" fill="url(#paint16_linear)"/>
<path d="M343.258 120.218C342.585 79.4422 331.956 65.8034 294.097 55.0892C277.467 50.393 274.999 48.5932 268.773 35.3481C294.405 38.104 319.336 38.5258 339.892 55.2298C359.102 70.8371 360.673 94.7683 343.258 120.218Z" fill="url(#paint17_linear)"/>
<path d="M151.101 73.6498C144.931 59.2236 150.344 39.4825 164.394 26.2656C170.227 20.7819 176.901 16.1982 183.351 11.4457C194.372 3.37488 198.299 4.86531 201.524 18.0823C204.16 28.8808 201.187 37.8796 192.129 44.2069C185.174 49.0719 177.35 52.6714 170.479 57.5926C163.692 62.4013 157.607 68.1662 151.101 73.6498Z" fill="url(#paint18_linear)"/>
<path d="M389.698 147.495C399.794 132.535 408.937 118.446 418.668 104.807C426.744 93.4746 448.366 95.3868 465.389 109.419C438.327 118.952 421.416 146.961 389.698 147.495Z" fill="url(#paint19_linear)"/>
<path d="M313.475 34.814C273.485 33.2673 252.143 27.0244 255.032 0.421772C279.486 -2.89653 308.259 14.0324 313.475 34.814Z" fill="url(#paint20_linear)"/>
<path d="M353.326 58.2675C333.106 45.2755 314.008 30.9618 313.167 2.8125C348.39 12.6268 359.888 29.0777 353.326 58.2675Z" fill="url(#paint21_linear)"/>
<path d="M221.126 31.8613C217.593 32.2269 214.031 32.6206 210.217 33.0143C212.377 15.073 223.706 -0.815498 233.55 1.0405C245.917 3.37456 249.423 13.695 251.218 23.2563C241.598 25.8153 232.989 28.0931 224.408 30.3709C223.314 30.849 222.22 31.3552 221.126 31.8613Z" fill="url(#paint22_linear)"/>
<path d="M166.609 9.78607C157.691 22.4406 149.951 33.4079 142.323 44.2064C131.442 22.1313 132.536 17.5194 149.614 6.58025C157.607 1.46219 163.3 1.40595 166.609 9.78607Z" fill="url(#paint23_linear)"/>
<path d="M221.126 31.8613C222.22 31.3551 223.314 30.849 224.407 30.3428C229.455 30.3428 234.503 30.3428 239.523 30.3428C240.28 31.327 241.066 32.2831 241.823 33.2674C236.298 38.1323 230.802 43.0254 225.249 47.9185C225.249 47.9185 225.641 47.4967 225.613 47.5248C221.519 49.4652 217.453 51.3774 212.769 53.599C203.375 41.6194 217.677 38.6948 221.126 31.8613Z" fill="url(#paint24_linear)"/>
<path d="M247.909 36.2202C252.956 39.2292 257.976 42.2382 265.212 46.5407C259.042 52.0243 253.826 56.6362 248.638 61.2481C246.647 53.796 244.655 46.372 242.636 38.9199C244.403 38.02 246.142 37.1201 247.909 36.2202Z" fill="url(#paint25_linear)"/>
<defs>
<linearGradient id="paint0_linear" x1="386.515" y1="144.767" x2="386.515" y2="212.588" gradientUnits="userSpaceOnUse">
<stop stop-color="#B25740"/>
<stop offset="1" stop-color="#EDE7DB"/>
</linearGradient>
<linearGradient id="paint1_linear" x1="90.5679" y1="127.441" x2="90.5679" y2="209.799" gradientUnits="userSpaceOnUse">
<stop stop-color="#B25740"/>
<stop offset="1" stop-color="#EDE7DB"/>
</linearGradient>
<linearGradient id="paint2_linear" x1="357.392" y1="216.73" x2="357.392" y2="288.991" gradientUnits="userSpaceOnUse">
<stop stop-color="#B25740"/>
<stop offset="1" stop-color="#EDE7DB"/>
</linearGradient>
<linearGradient id="paint3_linear" x1="297.545" y1="52.6426" x2="297.545" y2="199.267" gradientUnits="userSpaceOnUse">
<stop stop-color="#B25740"/>
<stop offset="1" stop-color="#EDE7DB"/>
</linearGradient>
<linearGradient id="paint4_linear" x1="92.6993" y1="205.343" x2="92.6993" y2="253.262" gradientUnits="userSpaceOnUse">
<stop stop-color="#B25740"/>
<stop offset="1" stop-color="#EDE7DB"/>
</linearGradient>
<linearGradient id="paint5_linear" x1="139.43" y1="207.057" x2="139.43" y2="347.972" gradientUnits="userSpaceOnUse">
<stop stop-color="#B25740"/>
<stop offset="1" stop-color="#EDE7DB"/>
</linearGradient>
<linearGradient id="paint6_linear" x1="131.231" y1="48.3965" x2="131.231" y2="183.491" gradientUnits="userSpaceOnUse">
<stop stop-color="#B25740"/>
<stop offset="1" stop-color="#EDE7DB"/>
</linearGradient>
<linearGradient id="paint7_linear" x1="210.201" y1="47.4961" x2="210.201" y2="198.789" gradientUnits="userSpaceOnUse">
<stop stop-color="#B25740"/>
<stop offset="1" stop-color="#EDE7DB"/>
</linearGradient>
<linearGradient id="paint8_linear" x1="185.191" y1="219.795" x2="185.191" y2="319.4" gradientUnits="userSpaceOnUse">
<stop stop-color="#B25740"/>
<stop offset="1" stop-color="#EDE7DB"/>
</linearGradient>
<linearGradient id="paint9_linear" x1="179.127" y1="41.4507" x2="179.127" y2="188.525" gradientUnits="userSpaceOnUse">
<stop stop-color="#B25740"/>
<stop offset="1" stop-color="#EDE7DB"/>
</linearGradient>
<linearGradient id="paint10_linear" x1="344.047" y1="59.5605" x2="344.047" y2="194.739" gradientUnits="userSpaceOnUse">
<stop stop-color="#B25740"/>
<stop offset="1" stop-color="#EDE7DB"/>
</linearGradient>
<linearGradient id="paint11_linear" x1="95.0949" y1="13.7231" x2="95.0949" y2="156.635" gradientUnits="userSpaceOnUse">
<stop stop-color="#B25740"/>
<stop offset="1" stop-color="#EDE7DB"/>
</linearGradient>
<linearGradient id="paint12_linear" x1="262.55" y1="213.328" x2="262.55" y2="325.728" gradientUnits="userSpaceOnUse">
<stop stop-color="#B25740"/>
<stop offset="1" stop-color="#EDE7DB"/>
</linearGradient>
<linearGradient id="paint13_linear" x1="392.879" y1="193.333" x2="392.879" y2="249.557" gradientUnits="userSpaceOnUse">
<stop stop-color="#B25740"/>
<stop offset="1" stop-color="#EDE7DB"/>
</linearGradient>
<linearGradient id="paint14_linear" x1="386.401" y1="7.42383" x2="386.401" y2="126.967" gradientUnits="userSpaceOnUse">
<stop stop-color="#B25740"/>
<stop offset="1" stop-color="#EDE7DB"/>
</linearGradient>
<linearGradient id="paint15_linear" x1="272.913" y1="71.9346" x2="272.913" y2="205.707" gradientUnits="userSpaceOnUse">
<stop stop-color="#B25740"/>
<stop offset="1" stop-color="#EDE7DB"/>
</linearGradient>
<linearGradient id="paint16_linear" x1="239.71" y1="89.4814" x2="239.71" y2="210.796" gradientUnits="userSpaceOnUse">
<stop stop-color="#B25740"/>
<stop offset="1" stop-color="#EDE7DB"/>
</linearGradient>
<linearGradient id="paint17_linear" x1="312.072" y1="35.3481" x2="312.072" y2="120.218" gradientUnits="userSpaceOnUse">
<stop stop-color="#B25740"/>
<stop offset="1" stop-color="#EDE7DB"/>
</linearGradient>
<linearGradient id="paint18_linear" x1="175.512" y1="6.48828" x2="175.512" y2="73.6498" gradientUnits="userSpaceOnUse">
<stop stop-color="#B25740"/>
<stop offset="1" stop-color="#EDE7DB"/>
</linearGradient>
<linearGradient id="paint19_linear" x1="427.544" y1="97.4443" x2="427.544" y2="147.495" gradientUnits="userSpaceOnUse">
<stop stop-color="#B25740"/>
<stop offset="1" stop-color="#EDE7DB"/>
</linearGradient>
<linearGradient id="paint20_linear" x1="284.124" y1="0.00439453" x2="284.124" y2="34.814" gradientUnits="userSpaceOnUse">
<stop stop-color="#B25740"/>
<stop offset="1" stop-color="#EDE7DB"/>
</linearGradient>
<linearGradient id="paint21_linear" x1="334.124" y1="2.8125" x2="334.124" y2="58.2675" gradientUnits="userSpaceOnUse">
<stop stop-color="#B25740"/>
<stop offset="1" stop-color="#EDE7DB"/>
</linearGradient>
<linearGradient id="paint22_linear" x1="230.717" y1="0.892578" x2="230.717" y2="33.0143" gradientUnits="userSpaceOnUse">
<stop stop-color="#B25740"/>
<stop offset="1" stop-color="#EDE7DB"/>
</linearGradient>
<linearGradient id="paint23_linear" x1="150.928" y1="3.05176" x2="150.928" y2="44.2064" gradientUnits="userSpaceOnUse">
<stop stop-color="#B25740"/>
<stop offset="1" stop-color="#EDE7DB"/>
</linearGradient>
<linearGradient id="paint24_linear" x1="225.723" y1="30.3428" x2="225.723" y2="53.599" gradientUnits="userSpaceOnUse">
<stop stop-color="#B25740"/>
<stop offset="1" stop-color="#EDE7DB"/>
</linearGradient>
<linearGradient id="paint25_linear" x1="253.924" y1="36.2202" x2="253.924" y2="61.2481" gradientUnits="userSpaceOnUse">
<stop stop-color="#B25740"/>
<stop offset="1" stop-color="#EDE7DB"/>
</linearGradient>
</defs>
</svg>
