<svg width="304" height="513" viewBox="0 0 304 513" fill="none" xmlns="http://www.w3.org/2000/svg">
<path d="M144.622 50.6173C223.084 50.6173 286.691 39.2862 286.691 25.3086C286.691 11.3311 223.084 0 144.622 0C66.159 0 2.55249 11.3311 2.55249 25.3086C2.55249 39.2862 66.159 50.6173 144.622 50.6173Z" fill="white"/>
<path d="M114.836 3.74279C112.046 4.00065 109.249 4.46947 106.459 4.46947C93.6058 4.49291 80.9163 6.27444 68.1878 7.68091C49.8489 9.71248 31.5883 12.2832 13.3979 15.3618C12.1243 15.5806 10.8585 15.9166 9.61609 16.2916C7.01412 17.0886 4.51373 18.3935 4.41215 21.3784C4.31057 24.3241 6.65469 25.9572 9.15508 26.9652C18.4925 30.708 28.3143 32.6848 38.1284 34.607C77.2282 42.2879 116.781 44.632 156.53 43.8506C183.714 43.3193 210.89 41.8659 237.871 38.4357C256.686 36.0447 275.705 34.0679 293.317 26.09C294.731 25.4493 296.192 24.8555 297.521 24.0741C300.857 22.105 301.029 20.472 298.193 17.1277C294.575 24.4257 287.12 25.0586 280.612 26.8323C271.485 29.3249 262.156 31.083 252.764 32.4348C251.521 32.6145 250.771 32.5129 250.076 31.0205C259.632 28.8795 269.407 28.1138 279.619 24.8789C270.102 21.7847 261.304 19.7844 252.342 18.6436C239.699 17.0339 227.056 15.3384 214.359 14.3226C188.277 12.2441 162.148 11.9316 135.995 12.8067C124.157 13.2052 112.335 13.7991 100.521 14.557C99.0363 14.6508 97.497 15.0258 95.8171 14.2054C107.78 12.9708 119.524 11.8613 131.323 11.5956C149.669 11.1815 168.016 11.2049 186.362 11.3299C205.397 11.4628 224.306 12.9474 243.184 15.2524C253.857 16.5573 264.547 17.6903 275.197 19.1515C279.127 19.6906 282.971 20.9017 286.831 21.9175C288.449 22.3395 289.902 22.2379 291.316 21.3627C292.543 20.6048 293.981 19.8859 293.809 18.1904C293.653 16.6042 292.098 16.4088 290.895 16.0025C282.12 13.0333 273.064 11.7753 263.89 10.5876C256.342 9.60309 248.81 8.27475 241.223 7.57933C220.219 5.65716 199.13 5.33679 178.08 4.18036C164.437 3.43025 150.779 2.93017 137.105 3.17239C131.995 3.26616 126.884 3.55527 121.774 3.73498C120.251 3.78968 118.696 3.87563 116.969 1.57839C127.158 1.57839 136.698 1.49244 146.231 1.59402C183.464 2.00815 220.633 3.71154 257.733 6.83703C270.993 7.95439 283.972 10.5876 296.77 14.2757C301.045 15.5024 303.139 17.9638 303.139 22.3473C303.139 26.3401 303.85 30.3954 301.302 34.0679C300.732 34.8883 301.013 36.3416 301.013 37.4981C300.693 173.136 300.388 308.775 300.044 444.421C300.037 446.679 300.748 448.476 301.756 450.508C305.819 458.697 304.037 466.511 298.982 473.629C292.824 482.31 283.8 487.326 274.423 491.632C257.178 499.555 238.793 503.634 220.321 507.548C195.637 512.776 170.751 513.174 145.731 511.744C116.594 510.072 87.6674 506.767 59.4442 499C44.9966 495.023 30.8929 490.069 18.6175 481.091C11.6555 476.004 5.70141 470.128 3.82612 461.244C2.92754 456.962 2.75564 452.719 4.85753 448.687C5.75611 446.968 5.42793 445.117 5.42012 443.319C4.95129 361.58 4.48247 279.833 3.96676 198.094C3.79486 170.894 3.48231 143.687 3.2479 116.487C3.02912 90.4673 2.81815 64.4476 2.6228 38.4357C2.60718 36.8652 2.21649 35.4509 1.72423 33.9428C-2.02636 22.3082 -0.127626 16.1979 12.1009 13.7444C31.9946 9.75155 52.0602 6.69638 72.2353 4.50073C85.1435 3.09426 98.0909 2.40665 111.077 2.85203C112.351 2.89891 113.632 2.85984 114.906 2.85984C114.883 3.13332 114.859 3.43806 114.836 3.74279ZM296.114 453.571C297.083 452.18 296.684 450.907 295.794 449.672C296.505 448.5 296.348 447.172 296.497 445.89C297.403 438.084 296.411 430.294 296.45 422.496C296.731 367.581 296.997 312.666 297.263 257.759C297.286 253.11 297.271 253.11 293.121 254.532C294.02 252.829 297.435 253.493 297.052 250.813C296.497 246.929 297.122 243.116 297.161 239.272C297.481 209.869 297.263 180.466 297.708 151.063C298.247 115.94 297.872 80.7939 297.919 45.6634C297.927 37.5293 297.927 37.3262 290.293 39.725C275.259 44.4367 259.827 47.0855 244.309 49.5078C225.173 52.4926 205.881 53.8991 186.589 54.7742C167.758 55.6259 148.864 54.9852 130.002 55.2587C114.765 55.4775 99.5911 54.2585 84.4403 53.1959C68.5472 52.0785 52.7322 49.75 37.2142 45.8275C28.6034 43.6553 19.7974 42.2723 11.593 38.5686C7.20165 36.5917 5.39668 38.1544 5.73267 42.8974C5.93582 45.7259 6.05303 48.5701 6.08428 51.4065C6.44372 83.2709 5.99833 115.135 6.73282 147.007C7.44387 177.575 6.85784 208.173 7.38136 238.741C7.47513 244.046 4.99818 250.328 10.3506 254.86C7.11569 253.602 7.10788 255.431 7.12351 257.908C7.4595 311.596 7.74079 365.284 8.01427 418.972C8.0299 422.605 7.67047 426.215 7.2876 429.841C6.7172 435.248 7.32667 440.647 9.03006 445.867C8.10804 446.898 8.12366 448.156 8.16273 449.422C7.77986 451.571 8.95973 453.172 10.1084 454.743C12.2728 457.697 14.7575 460.361 17.6955 462.549C30.7053 472.269 45.4811 478.38 60.9991 482.435C113.921 496.289 167.524 498.422 221.61 490.874C241.426 488.108 260.601 483.154 278.682 474.418C285.925 470.917 291.559 465.706 295.13 458.4C295.872 456.884 296.645 455.36 296.114 453.571ZM59.7255 488.866C58.1393 489.444 56.4515 488.412 55.4279 490.147C54.1074 489.225 52.865 488.139 51.4273 487.436C50.1928 486.834 47.7861 485.803 47.5048 486.639C46.1687 490.702 44.5044 487.537 43.0432 487.076C42.0587 486.764 41.246 486.631 40.7538 487.701C40.324 488.639 40.4412 489.499 41.5117 489.96C42.3478 490.319 43.1995 490.639 44.0512 490.96C63.187 498.047 83.1276 501.625 103.185 504.829C148.904 512.143 194.348 512.15 239.441 500.453C247.489 498.367 255.522 496.242 263.328 492.796C260.655 493.444 259.702 489.881 259.054 490.17C254.99 491.96 250.419 492.21 246.544 494.46C245.317 495.171 245.739 497.765 243.512 497.258C241.887 492.296 245.731 492.405 248.646 491.507C260.523 487.834 272.29 483.896 283.182 477.739C283.987 477.286 284.792 476.262 286.534 477.434C282.846 480.935 278.002 483.076 275.29 487.326C294.88 478.301 303.131 466.823 299.286 454.134C296.356 465.964 288.199 472.832 278.064 477.794C269.047 482.208 259.561 485.42 249.943 488.194C228.103 494.491 205.584 495.953 183.057 497.343C155.162 499.062 127.408 497.742 99.8255 493.374C85.5733 491.116 71.3445 488.522 57.5455 484.123C38.2221 477.965 18.9144 471.73 5.84206 454.407C5.34979 463.401 9.03787 470.777 16.9063 476.52C17.8283 477.192 18.9066 478.848 20.1802 477.372C21.2976 476.075 19.8286 475.043 19.1332 474.012C17.6173 471.746 15.3982 469.886 14.57 465.94C28.1034 477.911 44.1527 482.716 59.7255 488.866ZM2.81815 25.3087C1.98208 28.5982 3.19321 30.5673 5.2951 32.1847C7.39699 33.7944 9.82706 34.693 12.2884 35.5603C19.4067 38.0763 26.7907 39.5922 34.1277 41.2643C53.1073 45.5853 72.2743 48.8436 91.6914 50.297C113.757 51.9457 135.87 52.4067 158.014 52.1488C192.254 51.7503 226.408 50.7267 260.015 43.2646C272.306 40.5376 284.55 37.6778 296.27 32.9505C299.193 31.7706 300.982 29.9578 300.38 26.176C297.38 27.981 294.387 29.1686 291.348 30.2469C274.775 36.1385 257.561 39.0452 240.207 41.3815C217.485 44.4445 194.622 45.7025 171.743 46.5933C136.597 47.9607 101.498 46.9683 66.5547 42.7176C48.8957 40.5689 31.3226 37.6778 14.1871 32.6848C9.90519 31.419 6.02177 29.3796 2.81815 25.3087Z" fill="#1D1D1F"/>
<path d="M54.9357 32.7316C39.8865 31.708 24.931 30.3641 10.7257 24.9101C9.34266 24.3788 8.00651 23.7146 8.11591 21.9643C8.20967 20.4797 9.35047 19.7374 10.6397 19.3077C18.0237 16.8307 25.7437 15.9009 33.362 14.5179C35.2608 14.174 33.7449 17.1901 35.7218 16.8932C39.7146 16.2916 43.5902 18.1278 47.6299 17.4714C51.4743 16.8463 55.3499 16.4166 59.2255 16.0493C61.9212 15.7915 64.6013 16.0103 66.6094 13.4474C67.5549 12.2362 69.4849 12.4941 71.0242 12.33C72.376 12.1894 73.8449 12.4472 75.3764 10.9235C70.9461 10.9235 67.0236 10.9235 63.1011 10.9235C69.2661 8.92322 75.5093 8.59505 81.8228 9.17326C81.8228 9.46237 81.9243 9.77492 81.8071 9.90775C80.7366 11.1658 78.752 12.4472 79.4239 14.0178C80.2053 15.8462 82.4322 14.4397 84.0106 14.5882C86.8392 14.8538 89.7146 14.0725 92.9886 14.9398C69.1567 17.9168 45.2936 17.5965 21.7821 24.6366C32.6432 30.1297 44.2856 29.4577 54.9357 32.7316Z" fill="#1D1D1F"/>
<path d="M69.2113 34.4745C74.5481 33.0446 79.9317 33.4197 85.2841 33.7322C99.302 34.5605 113.249 36.3576 127.306 36.7014C148.231 37.2093 169.149 38.7017 190.097 37.2718C191.895 37.1468 193.715 36.8343 195.301 38.7252C153.029 40.6161 111.085 38.608 69.2113 34.4745Z" fill="#1D1D1F"/>
<path d="M241.402 33.6691C230.893 35.3725 220.282 36.1695 209.702 37.3025C209.647 36.8727 209.6 36.4352 209.546 36.0054C220.126 34.849 230.705 33.6926 241.285 32.5439C241.324 32.9112 241.363 33.2862 241.402 33.6691Z" fill="#1D1D1F"/>
<path d="M10.3272 254.868C4.9982 250.328 7.47515 244.046 7.38139 238.74C6.85787 208.165 7.4439 177.575 6.73285 147.007C5.99055 115.135 6.44374 83.2708 6.08431 51.4064C6.05306 48.57 5.92804 45.7259 5.73269 42.8973C5.3967 38.1544 7.20167 36.5916 11.593 38.5685C19.7974 42.2722 28.6035 43.6474 37.2142 45.8274C52.7322 49.7499 68.5472 52.0784 84.4403 53.1958C99.5911 54.2584 114.765 55.4774 130.002 55.2586C148.864 54.9851 167.758 55.6336 186.589 54.7741C205.873 53.899 225.173 52.4925 244.309 49.5077C259.827 47.0854 275.259 44.4444 290.293 39.7249C297.927 37.3339 297.935 37.5293 297.919 45.6633C297.872 80.7938 298.247 115.94 297.708 151.063C297.255 180.466 297.481 209.869 297.161 239.272C297.122 243.116 296.497 246.929 297.052 250.813C297.435 253.493 294.02 252.829 293.114 254.532C278.721 260.525 263.961 265.338 248.81 268.964C231.768 273.035 214.625 276.481 197.067 277.411C196.513 276.364 196.137 275.301 196.145 274.074C196.192 268.878 195.731 263.869 194.137 258.759C193.137 255.548 190.332 253.36 190.058 250.172C189.738 246.492 187.441 244.562 185.222 242.007C178.041 233.747 168.86 229.466 158.491 227.887C150.849 226.731 142.832 226.364 135.761 230.583C129.049 234.591 122.696 238.858 117.328 244.976C110.663 252.563 107.835 260.963 107.319 270.589C107.21 272.66 107.374 274.746 106.514 276.707C105.092 276.614 103.67 276.481 102.248 276.426C84.37 275.723 66.8673 272.058 49.5755 268.089C36.1828 265.026 23.0166 260.431 10.3272 254.868Z" fill="#CF0517"/>
<path d="M197.067 277.402C214.625 276.473 231.768 273.027 248.81 268.956C263.961 265.338 278.721 260.517 293.114 254.524C297.263 253.094 297.286 253.094 297.263 257.743C296.997 312.658 296.731 367.573 296.45 422.48C296.411 430.278 297.403 438.076 296.497 445.874C296.348 447.163 296.505 448.484 295.794 449.656C288.699 457.36 280.408 463.674 270.719 467.377C243.973 477.613 216.297 484.364 187.605 485.529C156.092 486.81 124.564 485.88 93.4651 480.309C62.9916 474.847 33.1588 467.174 9.03785 445.851C7.33446 440.631 6.71717 435.232 7.28757 429.825C7.67045 426.199 8.03769 422.589 8.01425 418.956C7.74077 365.268 7.46729 311.58 7.12349 257.892C7.10786 255.415 7.11567 253.586 10.3349 254.852C23.0166 260.423 36.1827 265.01 49.5676 268.081C66.8594 272.05 84.3543 275.715 102.24 276.418C103.662 276.473 105.084 276.605 106.506 276.699C107.514 282.942 108.85 289.037 112.202 294.585C121.212 309.501 134.432 317.471 151.748 317.495C169.118 317.51 182.213 309.314 191.246 294.483C194.481 289.201 195.075 283.075 197.067 277.402Z" fill="#F5F4EF"/>
<path d="M59.7255 488.866C44.1606 482.716 28.1034 477.911 14.6012 465.925C15.4295 469.871 17.6486 471.73 19.1645 473.996C19.8599 475.036 21.3289 476.067 20.2115 477.356C18.9379 478.833 17.8596 477.176 16.9375 476.504C9.06912 470.761 5.38105 463.385 5.87331 454.392C18.9457 471.715 38.2534 477.95 57.5767 484.107C71.3757 488.506 85.6045 491.101 99.8568 493.359C127.439 497.727 155.194 499.047 183.089 497.328C205.616 495.937 228.127 494.476 249.974 488.178C259.593 485.404 269.086 482.193 278.096 477.778C288.238 472.816 296.388 465.948 299.318 454.118C303.154 466.808 294.911 478.294 275.322 487.311C278.025 483.06 282.878 480.927 286.566 477.419C284.823 476.247 284.018 477.27 283.214 477.723C272.321 483.881 260.554 487.827 248.677 491.491C245.77 492.39 241.926 492.288 243.543 497.242C245.77 497.75 245.348 495.156 246.575 494.445C250.443 492.194 255.022 491.944 259.085 490.155C259.733 489.866 260.687 493.437 263.359 492.78C255.553 496.226 247.521 498.344 239.472 500.438C194.379 512.135 148.935 512.135 103.217 504.814C83.1588 501.602 63.2182 498.031 44.0824 490.944C43.2307 490.632 42.379 490.304 41.543 489.944C40.4725 489.483 40.3553 488.624 40.785 487.686C41.2695 486.615 42.0899 486.756 43.0744 487.061C44.5356 487.522 46.1999 490.686 47.5361 486.623C47.8096 485.787 50.2162 486.819 51.4586 487.42C52.8885 488.116 54.1309 489.21 55.4592 490.132C56.4437 488.413 58.1315 489.436 59.7255 488.866Z" fill="#F5F4EF"/>
<path d="M296.114 453.571C296.645 455.36 295.872 456.884 295.129 458.408C291.559 465.706 285.933 470.925 278.682 474.426C260.601 483.162 241.426 488.115 221.61 490.881C167.524 498.43 113.921 496.296 60.9991 482.443C45.481 478.38 30.7053 472.277 17.6955 462.557C14.7653 460.361 12.2727 457.697 10.1083 454.751C8.95971 453.18 7.77984 451.578 8.16271 449.43C12.1243 452.368 15.9139 455.571 20.0786 458.181C42.6134 472.347 68.0549 478.083 93.6839 483.169C110.421 486.49 127.439 487.725 144.403 488.49C162.406 489.311 180.487 489.944 198.497 487.561C215.086 485.365 231.495 482.419 247.614 477.817C265.328 472.746 282.338 466.448 296.114 453.571Z" fill="#F5F4EF"/>
<path d="M2.81806 25.3086C6.0295 29.3874 9.90511 31.4189 14.1948 32.6769C31.3303 37.6699 48.8956 40.5532 66.5624 42.7019C101.498 46.9526 136.597 47.9528 171.751 46.5775C194.629 45.6868 217.484 44.4288 240.215 41.3658C257.569 39.0217 274.783 36.1228 291.355 30.2312C294.387 29.1529 297.38 27.9731 300.388 26.1603C300.99 29.9421 299.2 31.7549 296.278 32.9348C284.557 37.6699 272.313 40.5219 260.022 43.2489C226.416 50.711 192.262 51.7346 158.022 52.1331C135.878 52.391 113.773 51.9378 91.6992 50.2813C72.2743 48.8435 53.1072 45.5774 34.1277 41.2564C26.7906 39.5843 19.4066 38.0684 12.2883 35.5524C9.82697 34.6851 7.3969 33.7787 5.29501 32.1769C3.18531 30.5672 1.98199 28.5982 2.81806 25.3086Z" fill="#F5F4EF"/>
<path d="M296.114 453.571C282.346 466.448 265.328 472.746 247.614 477.801C231.495 482.404 215.086 485.349 198.497 487.545C180.494 489.928 162.406 489.295 144.403 488.475C127.439 487.701 110.421 486.475 93.684 483.154C68.055 478.067 42.6135 472.332 20.0787 458.166C15.914 455.548 12.1243 452.344 8.16278 449.414C8.12371 448.148 8.10809 446.89 9.03011 445.859C33.1589 467.175 62.9839 474.848 93.4652 480.317C124.564 485.896 156.092 486.826 187.605 485.537C216.297 484.365 243.973 477.614 270.72 467.386C280.409 463.682 288.707 457.361 295.794 449.664C296.685 450.907 297.083 452.18 296.114 453.571Z" fill="#CF0517"/>
<path d="M197.067 277.403C195.075 283.076 194.481 289.202 191.254 294.491C182.221 309.322 169.125 317.526 151.755 317.503C134.432 317.487 121.219 309.517 112.21 294.593C108.858 289.045 107.522 282.951 106.514 276.707C107.374 274.746 107.202 272.66 107.319 270.589C107.835 260.963 110.663 252.563 117.328 244.976C122.704 238.858 129.057 234.591 135.761 230.583C142.832 226.364 150.849 226.731 158.491 227.887C168.86 229.458 178.041 233.748 185.222 242.007C187.441 244.562 189.738 246.484 190.058 250.172C190.332 253.368 193.137 255.548 194.137 258.759C195.731 263.862 196.192 268.878 196.145 274.074C196.137 275.293 196.512 276.364 197.067 277.403Z" fill="#1D1D1F"/>
</svg>
