<svg width="133" height="188" viewBox="0 0 133 188" fill="none" xmlns="http://www.w3.org/2000/svg">
<path d="M72.873 0.268573C73.525 0.255139 74.177 0.241706 74.8277 0.228273C79.6299 0.227051 84.4332 0.227051 89.2353 0.22583C89.5613 0.240485 89.8861 0.255139 90.2121 0.269794C90.7652 0.476179 91.3379 0.515258 91.9215 0.462746C92.0863 0.478622 92.2524 0.493276 92.4172 0.509152C92.7994 0.709431 93.206 0.769271 93.6309 0.716759C95.2694 0.925587 96.1155 2.17855 96.9409 3.36069C98.5429 5.65658 99.3353 8.13686 98.831 11.0299C98.3316 13.901 98.096 16.8173 97.0484 19.5711C96.9483 19.8337 96.8713 20.106 96.7541 20.36C96.6882 20.5017 96.5612 20.614 96.4525 20.7484C95.8958 20.5407 95.6626 20.023 95.3915 19.6065C93.5649 16.8099 91.5308 14.1575 89.2903 11.7004C85.6591 7.71799 81.3917 4.70036 75.8924 3.79789C73.4505 3.39733 71.0281 3.51578 68.5983 3.79911C64.0099 4.334 59.6326 5.76038 55.2078 6.98526C50.5852 8.26509 45.9589 9.52783 41.2837 10.6086C39.7636 10.9603 38.224 11.1179 36.6916 11.1899C32.6526 11.3804 28.8529 12.5027 25.1106 13.9059C23.9837 14.3284 23.0435 15.0355 22.2096 15.883C20.9275 17.1848 21.1229 18.1411 22.8164 18.8005C24.9812 19.6432 27.2278 20.2122 29.4842 20.7447C34.2033 21.8584 38.9944 22.5155 43.8148 22.9881C45.9186 23.1945 48.0028 23.4448 50.015 24.1995C51.9917 24.9408 54.0259 25.5331 56.0527 26.129C56.9868 26.4038 57.4825 26.8923 57.6083 27.8937C57.7548 29.0648 58.2004 30.1713 58.6913 31.2471C59.8414 33.7653 61.1357 36.2041 62.6021 38.5549C63.2895 39.6577 64.1747 40.5211 65.3383 41.0877C68.1148 42.4396 70.8754 43.8318 73.8595 44.6952C74.4212 44.8576 74.8827 45.1788 75.299 45.5781C75.5029 45.7735 75.7008 45.9994 75.9462 46.1228C76.2856 46.2925 76.7129 46.3157 76.9339 45.9701C77.1281 45.666 76.923 45.3436 76.6458 45.125C75.752 44.418 74.8424 43.7292 73.8461 43.1723C72.1062 42.2014 70.3565 41.2477 68.6044 40.3012C67.0574 39.4659 65.6057 38.5012 64.3566 37.2531C63.1063 36.0013 62.1149 34.5933 61.5105 32.9031C60.7047 30.6463 59.7242 28.4469 59.165 26.1083C58.3726 22.7963 58.5142 19.4954 59.4239 16.2238C59.6314 15.4776 59.933 14.7632 60.3201 14.0927C61.9879 11.1985 64.4311 9.08086 67.2271 7.34796C68.2003 6.74468 69.3382 6.51143 70.4762 6.36732C72.9096 6.05958 75.354 6.17315 77.7923 6.23177C79.7214 6.27817 81.4125 7.08418 83.001 8.12221C85.819 9.96258 88.2195 12.2511 90.3843 14.8206C93.2011 18.163 95.2706 21.9561 97.2621 25.8103C99.5013 30.1432 101.786 34.4528 104.04 38.7796C104.3 39.2791 104.521 39.8042 104.705 40.3367C105.65 43.0734 107.527 44.7746 110.319 45.5146C112.545 46.1045 114.613 47.1168 116.749 47.9485C119.217 48.9096 121.297 50.3946 123.098 52.3131C123.851 53.1155 124.436 54.0314 125 54.9644C126.544 57.5192 127.959 60.1484 129.148 62.8815C130.502 65.9932 131.045 69.3112 131.208 72.683C131.398 76.6287 131.279 80.5647 130.844 84.4995C130.545 87.2045 130.409 89.9327 130.309 92.6548C130.116 97.9011 129.53 103.117 129.163 108.349C129.003 110.62 128.906 112.896 128.845 115.173C128.81 116.475 128.691 117.731 128.335 119.006C127.812 120.877 127.527 122.813 127.126 124.718C125.815 130.961 124.688 137.236 123.564 143.516C122.926 147.083 122.544 150.681 122.216 154.282C121.927 157.45 121.085 160.374 119.408 163.103C118.252 164.985 117.392 167.044 116.333 168.991C114.806 171.792 113.129 174.502 111.499 177.24C110.18 179.454 109.319 181.817 109.008 184.373C108.894 185.305 108.629 186.191 108.314 187.064C107.975 188.008 107.955 188.001 106.931 187.998C106.727 187.996 106.524 187.999 106.321 188C105.361 187.735 104.382 187.73 103.399 187.772C103.314 187.767 103.229 187.762 103.145 187.757C102.268 187.5 101.369 187.496 100.468 187.542C99.5087 187.255 99.6015 187.273 99.7931 186.298C100.216 184.152 100.958 182.099 101.514 179.994C102.001 178.151 102.744 176.378 103.343 174.563C104.482 171.104 105.777 167.701 106.927 164.245C107.936 161.216 108.698 158.129 109.528 155.06C110.418 151.77 111.113 148.429 111.573 145.042C112.338 139.407 113.175 133.779 113.902 128.137C114.815 121.044 115.66 113.943 116.508 106.842C117.059 102.24 117.522 97.6312 117.601 92.9906C117.676 88.56 117.899 84.1319 117.574 79.7013C117.458 78.1198 117.416 76.5286 117.099 74.974C116.72 73.108 116.104 71.3201 115.013 69.724C114.652 69.1976 114.438 68.5651 114.048 68.0656C113.108 66.8602 112.402 65.3862 110.731 64.9551C110.584 64.6413 110.396 64.3958 109.992 64.5106C109.428 64.3824 108.861 64.3384 108.29 64.4667C107.963 64.1894 107.638 64.3226 107.312 64.4691C107.229 64.4776 107.147 64.4862 107.064 64.4935C106.705 64.43 106.373 64.4862 106.074 64.7036C104.299 65.1603 102.8 66.1544 101.285 67.1301C100.468 67.6565 99.7455 68.421 98.6308 68.333C98.3243 68.3086 98.2144 68.5858 98.2926 68.8472C98.3841 69.1512 98.5368 69.4394 98.6784 69.7264C99.7162 71.8245 100.813 73.9054 101.36 76.1989C101.781 77.9648 102.282 79.6989 102.877 81.4122C103.086 82.0131 103.384 82.5065 103.866 82.8899C105.778 84.4054 107.557 86.0663 109.267 87.8041C111.981 90.5604 112.344 93.7941 111.215 97.3357C110.612 99.2298 109.392 100.744 108.159 102.24C107.053 103.582 106.479 105.133 106.574 106.826C106.844 111.675 105.808 116.371 105.007 121.09C104.307 125.214 103.428 129.307 102.698 133.426C102.329 135.504 101.467 137.437 101.085 139.507C100.224 144.164 98.3585 148.501 96.7041 152.9C96.1375 154.406 95.3512 155.829 94.6431 157.279C94.2206 158.144 93.5039 158.721 92.6675 159.165C90.5076 160.309 88.2683 161.293 86.0107 162.213C85.1292 162.572 84.1475 162.903 83.1329 162.889C82.7043 162.84 82.2892 162.871 81.9058 163.09L81.7849 163.082L81.6677 163.114C81.0877 163.068 80.5187 163.098 79.9803 163.351L79.9559 163.355C79.5224 163.301 79.1061 163.341 78.7239 163.576C78.4724 163.677 78.2355 163.764 77.9474 163.805C75.3393 164.179 73.304 162.982 71.2503 161.611C67.7461 159.271 64.9158 156.217 61.9977 153.248C61.6277 152.872 61.2639 152.492 60.8964 152.115C60.9025 151.915 60.85 151.751 60.6485 151.665L60.6253 151.639C60.6155 151.506 60.5423 151.433 60.4104 151.417C60.4104 151.417 60.386 151.394 60.3872 151.394C60.3738 151.262 60.3005 151.189 60.1699 151.172C59.9989 151.001 59.828 150.83 59.6571 150.659C59.64 150.528 59.5667 150.456 59.4348 150.443L59.4104 150.418C59.3958 150.286 59.3225 150.216 59.1894 150.206C59.1894 150.206 59.1613 150.181 59.1626 150.181C59.0771 149.976 58.894 149.974 58.7132 149.966C56.8598 148.238 54.7915 146.811 52.6364 145.483C50.8013 144.354 48.888 143.379 46.9625 142.432C46.0822 141.998 45.1433 141.656 44.2202 141.309C43.3973 141 42.9443 140.481 42.8417 139.65C42.6708 138.279 42.5401 136.904 42.3777 135.534C42.302 134.9 42.2947 134.275 42.0066 133.651C41.672 132.928 41.9504 132.608 42.7282 132.588C44.1128 132.554 45.4949 132.543 46.6377 133.535C46.711 133.598 46.8734 133.557 46.9955 133.565C47.2153 133.723 47.4521 133.815 47.7281 133.747C47.8221 133.762 47.9161 133.777 48.0089 133.79C48.1603 133.849 48.3117 133.907 48.4631 133.966C49.1212 134.02 49.7305 134.352 50.4069 134.303C50.7097 134.495 51.0382 134.557 51.391 134.49C51.5583 134.506 51.7256 134.52 51.8916 134.536C52.4411 134.737 53.0113 134.77 53.5876 134.74C56.3152 135.329 58.5142 136.876 60.6485 138.57C62.7388 140.228 64.878 141.826 66.9976 143.446C67.2223 143.619 67.4591 143.772 67.7485 143.82C67.989 143.938 68.2308 144.174 68.464 143.809C68.5348 143.51 68.4786 143.268 68.2174 143.06C65.3554 140.779 63.4531 137.699 61.364 134.779C59.9208 132.762 58.5069 130.721 57.2823 128.561C55.5668 125.535 53.7194 122.588 51.7329 119.738C50.2665 117.635 48.8624 115.493 47.5547 113.295C46.7208 111.893 45.9772 110.43 45.2666 108.951C44.0358 106.39 42.5987 103.93 41.3448 101.379C40.3924 99.4423 39.1934 97.6373 38.3571 95.6394C38.0054 94.7992 37.4902 94.0298 36.9395 93.2959C36.727 92.9466 36.5158 92.8856 36.3082 93.2996C36.0995 93.7245 36.1837 94.1776 36.1947 94.6209C36.3278 100.069 36.7893 105.497 37.1397 110.931C37.4242 115.353 37.7771 119.768 38.2118 124.177C38.666 128.786 38.9639 133.412 39.6171 138C39.6281 138.074 39.5939 138.156 39.5793 138.243C39.0994 138.549 38.6086 138.311 38.2032 138.136C36.2802 137.312 34.2619 136.753 32.3315 135.955C31.7857 135.731 31.2424 135.501 30.6991 135.273C29.3938 134.726 28.8432 133.547 28.2913 132.377C27.4024 130.494 27.0312 128.473 26.7235 126.436C26.5538 125.311 26.3084 124.195 26.2034 123.064C26.085 121.783 25.61 120.591 25.2327 119.404C24.759 117.911 24.6186 116.387 24.3292 114.878C23.9495 112.903 23.4525 110.951 22.8408 109.045C22.2096 107.076 21.7615 105.06 21.1412 103.091C20.4917 101.03 20.3439 98.8451 19.6248 96.8008C19.5576 96.609 19.488 96.4332 19.4831 96.2256C19.4343 94.268 19.0204 92.3556 18.7701 90.4224C18.7444 90.2209 18.698 90.0181 18.7054 89.8166C18.7994 87.1629 18.2988 84.5605 18.0448 81.9361C17.9203 80.6453 17.9801 79.3362 17.9752 78.0356C17.963 74.2547 17.9325 70.475 18.1547 66.6966C18.2524 65.0296 18.5332 63.3871 18.7872 61.7482C18.974 60.5453 19.8543 59.6001 20.803 58.8466C21.8518 58.0137 22.9251 57.1784 24.284 56.8731C24.7724 56.8695 25.2608 56.8646 25.7492 56.8609C28.0825 57.5875 30.4695 58.1285 32.6673 59.2802C34.7564 60.3756 36.6294 61.7653 38.4621 63.2137C41.8491 65.8906 45.2654 68.5272 48.7293 71.104C51.065 72.8418 53.2884 74.7175 55.5253 76.5787C55.7731 76.7851 56.0405 76.967 56.2994 77.16C56.3262 77.2858 56.4007 77.3566 56.5326 77.3602L56.5741 77.3932C56.5936 77.5044 56.6596 77.5679 56.7719 77.5837C58.9794 79.4168 61.1723 81.2681 63.4006 83.0768C66.0049 85.1895 68.6484 87.2545 71.2613 89.3587C72.9633 90.7289 74.6397 92.1296 76.3271 93.5157C76.3503 93.6427 76.4248 93.7148 76.5567 93.7209L76.5933 93.7514C76.6104 93.8699 76.6788 93.9358 76.796 93.9505C78.9876 96.0668 81.1634 98.1991 83.3734 100.296C86.9216 103.664 90.0021 107.375 92.2341 111.769C93.0533 113.382 94.0863 114.889 95.068 116.416C96.0423 117.929 96.4806 119.583 96.4623 121.356C96.4037 127.045 96.3134 132.736 95.549 138.386C94.9947 142.478 92.9886 145.736 89.6077 148.083C88.7005 148.712 87.67 149.234 86.5577 149.497C86.305 149.496 86.051 149.495 85.8471 149.682C85.8471 149.682 85.8215 149.687 85.8227 149.687C84.4393 149.835 83.0559 149.842 81.6726 149.687C81.2904 149.399 80.7654 149.856 80.4076 149.442C80.161 149.109 79.813 149.178 79.4736 149.206C79.1964 149.171 78.9193 149.114 78.6421 149.112C78.3747 149.109 78.0426 149.076 77.973 149.449C77.9168 149.755 78.0719 150.016 78.3417 150.141C79.0218 150.454 79.6799 150.837 80.4528 150.893C80.6738 151.041 80.9046 151.151 81.1817 151.087C81.2684 151.102 81.3539 151.118 81.4406 151.133C81.7348 151.328 82.0547 151.395 82.4015 151.322C83.2147 151.447 84.0291 151.447 84.8447 151.335C85.2 151.406 85.5358 151.365 85.8398 151.153C87.7579 150.802 89.3513 149.791 90.8727 148.651C92.5527 147.392 93.9862 145.864 95.4465 144.368C95.7248 144.084 96.0252 143.82 96.3146 143.546C96.444 143.521 96.5173 143.446 96.5234 143.311L96.5453 143.283C96.7419 143.194 96.7505 143.013 96.7602 142.833C98.0178 141.431 98.2132 139.65 98.4635 137.909C98.9092 134.812 99.3768 131.717 99.5954 128.59C99.6833 127.329 99.6894 126.07 99.654 124.811C99.5587 121.396 99.4171 117.983 99.3499 114.567C99.3292 113.501 99.1387 112.508 98.6772 111.554C98.2242 110.621 97.9141 109.657 97.7102 108.622C97.4391 107.243 96.9519 105.906 96.5295 104.56C96.1754 103.433 96.2181 102.371 96.8518 101.34C97.6882 99.9808 98.6332 98.6656 99.2767 97.2172C100.026 95.5307 100.883 93.7966 100.39 91.8243C100.417 91.6863 100.362 91.6204 100.22 91.6314C98.9079 91.4189 97.7285 91.988 96.5209 92.314C95.8066 92.507 95.1082 92.7317 94.3695 92.8025C93.9434 92.7573 93.5368 92.8147 93.1644 93.0407C93.0777 93.0516 92.9911 93.0626 92.9056 93.0736C92.4844 93.0175 92.0863 93.0919 91.7115 93.2922L91.6834 93.2959C91.1791 93.2483 90.6895 93.291 90.2292 93.5255C90.1437 93.534 90.0595 93.5426 89.974 93.5511C89.4673 93.5011 88.9716 93.5291 88.5064 93.7624C88.4258 93.7697 88.3452 93.7771 88.2646 93.7844C87.2866 93.7893 86.3099 93.7942 85.3319 93.799L85.2903 93.7905C85.2366 93.6842 85.178 93.7001 85.117 93.7832C84.5565 93.7294 84.1487 93.3973 83.7898 93.0114C82.6591 91.7975 81.3539 90.7545 80.31 89.4552C80.1305 89.2329 79.8448 89.1413 79.6274 88.9777C78.4675 88.1094 77.6665 87.025 77.5542 85.5021C77.5005 84.7804 77.2624 84.0745 77.1513 83.354C76.9791 82.2341 76.9486 81.146 77.5933 80.1043C77.9388 79.545 78.0743 78.8587 78.3185 78.2346C78.4492 77.9025 78.5615 77.5471 78.7666 77.265C79.8582 75.7653 80.3698 74.0007 81.0157 72.3069C81.4247 71.2334 81.3429 70.0586 81.1536 68.9363C80.99 67.9667 80.9668 67.0031 80.9815 66.0298C81.4247 65.6891 81.9302 65.9492 82.4027 65.882C82.5627 65.904 82.7238 65.9248 82.8838 65.9468C83.1048 66.1165 83.349 66.1825 83.6237 66.1165C84.2012 66.1812 84.7311 66.5061 85.3343 66.4279C85.6383 66.6001 85.9594 66.6856 86.3111 66.6221C86.4014 66.6343 86.4906 66.6465 86.5809 66.6587C86.8752 66.8322 87.189 66.9189 87.5321 66.8554C87.6932 66.8773 87.8556 66.8993 88.0168 66.9201C88.3159 67.124 88.6456 67.179 88.9972 67.1216C89.0815 67.1326 89.1657 67.1448 89.25 67.1558C89.5479 67.3438 89.869 67.4159 90.2182 67.3536C90.3086 67.3658 90.3977 67.378 90.4881 67.3902C90.7823 67.5649 91.0949 67.6491 91.438 67.5844C91.6016 67.6064 91.7652 67.6272 91.9288 67.6491C92.2292 67.8421 92.5539 67.9019 92.9044 67.8372C93.068 67.8555 93.2304 67.8738 93.394 67.8922C93.7762 68.1071 94.1864 68.1535 94.6137 68.0937C94.8579 68.1047 95.1021 68.1156 95.3463 68.1266C95.5124 68.1669 95.6968 68.1572 95.7737 68.0094C95.8518 67.8592 95.781 67.7041 95.5783 67.6662C95.0777 67.5014 94.5771 67.3353 94.0753 67.1704C93.9129 66.8932 93.6541 66.914 93.3903 66.9506C92.9166 66.6514 92.3171 67.0874 91.8604 66.6868C91.6114 66.3998 91.2817 66.4169 90.9484 66.4487L90.8336 66.4108L90.7127 66.4121C90.4172 66.1922 90.0827 66.1495 89.7286 66.1947C89.7286 66.1947 89.7005 66.1898 89.7017 66.1898C89.4124 65.9981 89.0974 65.9162 88.7506 65.9712C88.6688 65.9578 88.587 65.9443 88.5052 65.9309C88.2903 65.7563 88.0498 65.6818 87.775 65.7392C87.6883 65.7245 87.6017 65.7086 87.515 65.694C87.2293 65.4778 86.9069 65.4131 86.5577 65.4558L86.537 65.4522C86.3282 65.2812 86.095 65.1969 85.8215 65.2519C85.7348 65.236 85.6493 65.2214 85.5626 65.2055C85.3526 65.0309 85.1182 64.9466 84.8447 65.0052C84.7604 64.9906 84.675 64.9747 84.5907 64.96C84.3795 64.7854 84.1426 64.7048 83.8679 64.7622C83.7824 64.7475 83.697 64.7329 83.6103 64.717C83.1597 64.4276 82.6652 64.4215 82.1585 64.485C81.5676 64.4728 81.161 64.2761 81.139 63.5886C81.1085 62.6165 80.9559 61.642 81.0035 60.676C81.0743 59.2545 80.5639 58.0211 79.8557 56.8866C78.73 55.0828 77.4602 53.3731 76.1891 51.6659C75.3589 50.5497 74.398 49.5984 73.2551 48.8082C72.094 48.0059 70.9414 47.1901 69.8229 46.3304C69.1282 45.7967 68.3736 45.3766 67.613 44.9651C64.8108 43.4483 61.8231 42.3382 58.9184 41.0462C58.6742 40.6969 58.3213 40.78 57.9819 40.8117C57.8964 40.8056 57.8109 40.7983 57.7255 40.7922C55.7853 40.4759 53.822 40.7677 51.877 40.5638C51.7964 40.5553 51.717 40.5467 51.6364 40.5382C51.1737 40.2915 50.6768 40.2732 50.17 40.3098L50.1493 40.3061C49.866 40.0802 49.5461 40.002 49.1896 40.0741L49.1603 40.0704C48.7073 39.8372 48.225 39.7786 47.7256 39.8274L47.7 39.8237C47.247 39.5868 46.7623 39.5331 46.2617 39.5807L46.2385 39.5771C45.8636 39.3646 45.4607 39.3059 45.0383 39.3597C44.9516 39.3499 44.8649 39.3389 44.777 39.3292C44.4033 39.1081 43.9955 39.0617 43.5731 39.1008C42.9895 39.1118 42.4754 38.6856 41.871 38.8285C41.7831 38.7662 41.6952 38.7027 41.6061 38.6404L41.5804 38.6062C41.3277 38.2813 40.9785 38.3546 40.6415 38.379C40.556 38.3693 40.4706 38.3607 40.3851 38.351C39.9285 38.1055 39.4388 38.0713 38.9358 38.1165L38.9114 38.1128C38.4584 37.871 37.9712 37.8283 37.4706 37.8698L37.4486 37.8661C37.1544 37.6793 36.8345 37.6133 36.4902 37.6646C35.8137 37.5254 35.1007 37.5303 34.4902 37.142C34.3278 36.8611 34.0677 36.8843 33.8028 36.9209C33.7185 36.9087 33.6343 36.8965 33.5513 36.8843C33.2582 36.6791 32.9322 36.6205 32.583 36.6755C32.1081 36.3811 31.5098 36.8159 31.0531 36.4153C30.8065 36.1247 30.4756 36.1393 30.1423 36.1638C28.7125 36.0746 27.4281 35.4445 26.0862 35.0439C22.5075 33.9753 19.0069 32.687 15.5662 31.2203C11.4967 29.4849 7.37954 27.8607 3.44554 25.8311C2.32102 25.251 1.52738 24.2899 0.980382 23.1309C0.123253 21.3138 -0.0269272 19.3794 0.00359733 17.4157C0.0182491 16.523 0.0963919 15.6327 0.137905 14.7412C0.147673 14.5385 0.181861 14.3638 0.277097 14.1709C1.05364 12.5955 1.78745 11.0006 2.77034 9.53394C3.04994 9.11628 3.42356 8.81952 3.86922 8.64001C6.86551 7.431 9.85203 6.1878 13.0486 5.57842C13.3245 5.6407 13.5601 5.54422 13.7824 5.39524C14.5955 5.21694 15.4087 5.03986 16.2219 4.86156C16.5027 4.92018 16.7591 4.87378 16.9813 4.68082C17.1352 4.6564 17.2902 4.63198 17.4441 4.60877C17.7847 4.66861 18.09 4.57214 18.3769 4.39628C18.4734 4.38041 18.5698 4.36453 18.6651 4.34865C18.9373 4.41094 19.1754 4.33278 19.394 4.17402C19.5588 4.15326 19.7224 4.13128 19.8873 4.11052C20.2304 4.17768 20.5429 4.09464 20.8372 3.91756C20.9275 3.90535 21.0167 3.89314 21.107 3.88093C21.455 3.94199 21.7761 3.86994 22.074 3.68187C22.1583 3.67088 22.2438 3.65989 22.328 3.64768C22.7541 3.69775 23.1607 3.64035 23.5441 3.44007C23.7089 3.42297 23.8726 3.40588 24.0374 3.38756C24.317 3.45106 24.5734 3.4071 24.7956 3.21537C24.9495 3.19094 25.1045 3.16652 25.2584 3.14087C25.5355 3.20437 25.7773 3.11889 25.9995 2.95769C26.4855 2.85633 26.9714 2.75497 27.4574 2.65483C27.8823 2.70246 28.2888 2.63285 28.682 2.46798C29.0874 2.45088 29.4939 2.43379 29.8993 2.41669C31.0409 2.47653 32.1764 2.43623 33.2997 2.21031C33.6306 2.19931 33.9627 2.18832 34.2936 2.17611C35.3595 2.23107 36.4206 2.22862 37.467 1.97461C37.793 1.96118 38.119 1.94652 38.445 1.93309C39.2679 1.99171 40.0847 1.97827 40.882 1.72915C41.1275 1.71449 41.3741 1.69862 41.6195 1.68396C42.2044 1.7438 42.7794 1.72304 43.3313 1.48979C43.5755 1.47025 43.8185 1.45193 44.0627 1.43239C44.7245 1.48735 45.3777 1.44949 46.0138 1.2431C46.4216 1.22845 46.8294 1.21257 47.2372 1.19792C49.4887 1.19181 51.7414 1.19792 53.9929 1.17349C55.3165 1.15884 56.6461 1.21868 57.9611 0.987869C58.2932 0.97932 58.6253 0.96955 58.9587 0.961002C60.2663 1.01596 61.5703 1.00985 62.8621 0.753395C63.2699 0.738741 63.679 0.724086 64.0868 0.709431C65.2321 0.770492 66.3737 0.746068 67.5019 0.509152C67.9097 0.495719 68.3187 0.481064 68.7265 0.467631C70.1123 0.523807 71.4981 0.495719 72.873 0.268573Z" fill="#0271C3"/>
<path d="M10.8483 185.843C10.7616 185.831 10.6749 185.819 10.5882 185.807C9.73354 185.352 8.80682 185.68 7.92039 185.562C7.10599 185.446 6.39538 185.107 5.82885 184.515C5.10359 183.757 4.32094 183.06 3.74097 182.158C3.40154 181.629 2.82646 181.256 2.38446 180.789C2.13782 180.527 1.92049 180.23 1.73002 179.924C1.45041 179.473 1.54931 179.276 2.06334 179.222C2.34417 179.192 2.6311 179.201 2.91437 179.208C7.98632 179.323 13.0583 179.208 18.1302 179.19C19.0215 179.186 19.9043 179.191 20.7627 178.862C21.3365 178.642 21.969 178.77 22.5746 178.726C22.9616 178.908 23.367 178.97 23.7919 178.923C24.2815 178.998 24.7223 179.307 25.2461 179.223C25.4695 179.387 25.7125 179.465 25.9897 179.399C26.1508 179.421 26.312 179.443 26.472 179.465C26.6917 179.633 26.9347 179.703 27.2107 179.644C27.6331 179.696 27.9933 180.002 28.4426 179.94C28.7454 180.097 29.058 180.215 29.4096 180.152C29.6502 180.221 29.9017 180.259 30.1227 180.13C30.4841 179.919 30.5354 179.603 30.2094 179.349C29.9664 179.158 29.6465 179.051 29.3449 178.954C27.9274 178.499 26.5025 178.065 25.0849 177.612C22.6076 176.822 20.4037 175.485 18.201 174.148C16.289 172.986 14.3537 171.862 12.4991 170.606C11.0461 169.622 9.83733 168.36 8.75065 167.022C7.64323 165.658 6.72871 164.13 5.78001 162.644C4.96561 161.369 4.61641 159.887 4.09872 158.484C3.708 157.427 3.73242 156.287 3.72754 155.169C3.72388 154.355 3.74341 153.541 3.72876 152.727C3.71777 152.052 3.75929 151.382 3.34904 150.755C2.87774 150.035 3.07309 149.191 3.16467 148.413C3.40886 146.344 3.95098 144.337 4.53827 142.341C4.60543 142.111 4.65671 141.9 4.79101 141.697C5.79344 140.194 6.47353 138.527 7.27327 136.918C8.39535 134.658 9.80802 132.555 11.377 130.572C11.6493 130.228 11.9948 129.941 12.3061 129.627C12.4331 129.606 12.5052 129.535 12.5088 129.403C12.5796 129.368 12.6114 129.312 12.6028 129.233C12.6627 129.129 12.7237 129.025 12.7836 128.921C12.952 128.75 13.1205 128.578 13.2878 128.407C13.4783 128.408 13.6504 128.372 13.7359 128.173L13.764 128.148C13.8983 128.142 13.9716 128.067 13.9972 127.94C14.9532 126.88 16.2084 126.228 17.3769 125.454C19.295 124.182 21.1888 122.872 23.0923 121.579L23.1656 121.649L23.2095 121.563C23.2095 121.563 23.2938 121.527 23.2925 121.528C23.4574 121.551 23.6222 121.573 23.787 121.596C24.1606 123.554 24.3194 125.538 24.5526 127.514C24.5807 127.751 24.5868 128.021 24.5025 128.236C24.0642 129.353 24.3951 130.407 24.7858 131.428C26.019 134.649 28.1557 137.218 30.7686 139.402C31.8492 140.305 32.9664 141.178 34.1849 141.904C35.7258 142.822 37.3912 143.371 39.1714 143.577C39.4754 143.754 39.8002 143.83 40.1506 143.759C43.4326 144.341 46.308 145.829 49.01 147.712C51.1321 149.191 53.082 150.886 55.0637 152.541C57.3957 154.488 59.6265 156.545 61.7278 158.744C63.243 160.331 65.0684 161.537 66.9707 162.6C68.1025 163.231 69.1526 163.961 70.1977 164.714C71.3784 165.564 72.6372 166.263 74.0963 166.521C74.3185 166.669 74.5517 166.773 74.8277 166.708C77.8936 167.713 80.9851 168.631 84.1267 169.374C84.3574 169.429 84.6004 169.428 84.8385 169.453C85.0619 169.601 85.2976 169.698 85.5735 169.635C86.0619 169.723 86.5027 170.035 87.0277 169.948C87.2512 170.11 87.4941 170.19 87.7713 170.127C87.8616 170.142 87.9532 170.155 88.0436 170.17C88.3329 170.359 88.648 170.441 88.9923 170.384C89.0777 170.397 89.1632 170.409 89.2487 170.423C89.5442 170.612 89.8653 170.684 90.2133 170.623C90.3036 170.635 90.394 170.646 90.4843 170.659C90.8579 170.864 91.2572 170.933 91.6784 170.875C91.7663 170.886 91.8555 170.896 91.9434 170.907C92.3194 171.11 92.7211 171.176 93.1436 171.117C93.234 171.128 93.3243 171.137 93.4147 171.148C93.7907 171.346 94.1888 171.419 94.61 171.361C94.7004 171.372 94.7895 171.383 94.8786 171.393C95.2522 171.596 95.6515 171.67 96.074 171.617C96.1558 171.628 96.2364 171.64 96.3182 171.651C96.5367 171.816 96.7772 171.888 97.0507 171.827C97.146 171.843 97.24 171.858 97.3352 171.874C97.4854 171.932 97.6368 171.991 97.7882 172.051C98.5696 172.235 99.3547 172.409 100.133 172.606C101.106 172.856 101.157 172.962 100.864 173.923C100.56 174.921 100.262 175.92 99.9494 176.914C99.4939 178.368 99.0422 179.821 98.704 181.31C98.4732 182.331 97.8944 183.005 96.7602 183.098C95.8383 183.172 94.9971 183.578 94.1241 183.851C93.9641 183.657 93.8139 183.737 93.6662 183.87C93.6662 183.87 93.6332 183.875 93.6344 183.875C93.2804 183.831 92.947 183.876 92.6491 184.088L92.5282 184.085L92.4135 184.12C91.8335 184.085 91.2633 184.129 90.7175 184.346C90.6321 184.352 90.5454 184.358 90.4599 184.364C89.6394 184.32 88.825 184.345 88.0301 184.59C87.9447 184.595 87.8592 184.6 87.7725 184.605C86.7103 184.566 85.6529 184.582 84.6126 184.836C84.5259 184.839 84.4405 184.843 84.3538 184.848C83.1303 184.803 81.9118 184.821 80.7079 185.081C80.6212 185.085 80.5333 185.088 80.4466 185.092C78.1561 185.125 75.8655 185.169 73.5737 185.082C72.6922 185.049 71.807 185.087 70.923 185.092C70.7594 185.09 70.5958 185.086 70.4321 185.084C68.0781 184.833 65.7167 184.81 63.3529 184.85C63.1893 184.847 63.0257 184.843 62.8633 184.839C62.1392 184.685 61.4079 184.602 60.6667 184.609L60.635 184.604C60.2675 184.389 59.8719 184.306 59.4494 184.353L59.4287 184.35C59.0612 184.108 58.6546 184.06 58.2272 184.112L58.204 184.108C57.8304 183.889 57.4275 183.832 57.0026 183.883C56.9208 183.872 56.8402 183.862 56.7584 183.851C56.3823 183.614 55.9684 183.579 55.5386 183.625L55.5142 183.622C55.1418 183.403 54.7401 183.345 54.3164 183.397C54.2346 183.386 54.1516 183.376 54.0698 183.365C53.6937 183.131 53.281 183.091 52.8525 183.139L52.8256 183.136C52.4532 182.922 52.0527 182.859 51.6303 182.911C51.5472 182.9 51.463 182.89 51.38 182.879C51.0039 182.649 50.5937 182.605 50.1663 182.655L50.1358 182.651C49.7634 182.443 49.3653 182.373 48.9441 182.429C48.8586 182.418 48.772 182.408 48.6865 182.397C48.3116 182.172 47.9051 182.121 47.4789 182.173C47.3983 182.162 47.3178 182.153 47.2384 182.142C46.8599 181.907 46.4448 181.873 46.015 181.923L45.9832 181.919C45.5302 181.694 45.0492 181.629 44.5498 181.678L44.5205 181.674C44.0675 181.444 43.5865 181.382 43.0858 181.43L43.0614 181.426C42.689 181.211 42.2861 181.154 41.8636 181.195C41.0041 181.24 40.3093 180.5 39.4205 180.682C39.3338 180.621 39.2471 180.56 39.1604 180.498L39.1323 180.459C38.8832 180.139 38.5377 180.196 38.2007 180.222C38.1201 180.211 38.0395 180.201 37.9589 180.19C37.5829 179.953 37.1678 179.918 36.7392 179.964L36.7148 179.961C36.3411 179.743 35.9394 179.685 35.5158 179.737C34.7612 179.523 34.0579 179.644 33.3961 180.03C33.6159 181.127 34.5402 180.988 35.2679 181.178C35.4889 181.337 35.727 181.431 36.0054 181.366C36.0945 181.38 36.1836 181.393 36.2728 181.407C36.727 181.654 37.2142 181.684 37.7135 181.62C37.8723 181.652 38.0359 181.669 38.1897 181.717C39.8905 182.243 40.2959 183.566 39.23 185.051C38.9296 185.468 38.5121 185.533 38.0554 185.534C36.8405 185.537 35.6244 185.532 34.4096 185.538C33.9651 185.54 33.5195 185.567 33.075 185.583C31.9297 185.535 30.7881 185.517 29.666 185.81C29.5818 185.815 29.4976 185.82 29.4121 185.824C28.4304 185.777 27.4536 185.794 26.4964 186.057C26.4097 186.061 26.3242 186.065 26.2375 186.069C24.9286 186.034 23.6246 186.078 22.3316 186.302C22.168 186.306 22.0044 186.308 21.842 186.312C18.9935 186.313 16.1437 186.315 13.2951 186.316C13.2121 186.308 13.1303 186.301 13.0485 186.294C12.67 186.076 12.2598 186.025 11.8324 186.067L11.808 186.063C11.5137 185.858 11.1963 185.781 10.8483 185.843Z" fill="#0271C3"/>
<path d="M123.667 184.617C123.512 184.599 123.356 184.581 123.201 184.561C122.815 184.319 122.391 184.31 121.958 184.363C121.8 184.35 121.643 184.335 121.484 184.322C120.851 184.041 120.184 184.068 119.516 184.104C119.435 184.098 119.354 184.091 119.275 184.085C118.726 183.843 118.147 183.828 117.562 183.872C117.477 183.865 117.392 183.858 117.307 183.849C116.764 183.606 116.191 183.576 115.608 183.62L115.492 183.588L115.372 183.595C114.906 183.347 114.407 183.331 113.899 183.377L113.783 183.344L113.662 183.35C113.279 183.125 112.863 183.097 112.433 183.149C112.07 183.125 111.704 183.127 111.347 183.068C110.882 182.989 110.648 182.579 110.853 182.194C113.264 177.673 115.996 173.377 119.651 169.734C119.709 169.677 119.763 169.616 119.822 169.561C120.383 169.039 120.955 168.955 121.683 169.308C124.061 170.461 126.187 171.978 128.209 173.657C129.334 174.59 130.417 175.571 131.426 176.627C132.181 177.417 132.622 178.359 132.622 179.46C132.62 181.857 132.601 184.255 132.565 186.652C132.553 187.501 132.475 187.547 131.646 187.225C130.509 186.783 129.408 186.242 128.253 185.853C127.052 185.449 125.805 185.175 124.579 184.844C124.33 184.555 124 184.579 123.667 184.617Z" fill="#0271C3"/>
<path d="M41.1322 106.396C43.3263 109.676 45.3251 113.089 47.7109 116.238C50.0027 119.26 52.0966 122.417 54.2358 125.546C54.9867 126.644 54.7633 126.803 53.7315 127.309C52.5435 127.893 51.3689 128.511 50.1467 129.012C49.3775 129.327 48.5326 129.456 47.7219 129.669C47.369 129.625 47.0406 129.682 46.7451 129.892C46.6633 129.904 46.5827 129.915 46.5009 129.928C46.1468 129.875 45.811 129.914 45.5107 130.129L45.3922 130.125L45.2799 130.162C44.9222 130.113 44.5815 130.141 44.2799 130.366L44.1664 130.362L44.0589 130.399C43.6999 130.351 43.3556 130.376 43.0528 130.605L42.9417 130.602L42.8367 130.64C42.3483 130.657 41.8599 130.673 41.3715 130.69C41.1017 130.482 41.0455 130.205 41.2519 129.956C41.6853 129.434 41.645 128.814 41.6475 128.215C41.6682 122.246 41.678 116.277 41.6768 110.308C41.6768 109.625 41.6267 108.962 41.269 108.315C40.9723 107.778 40.888 107.124 40.8966 106.486C40.9772 106.455 41.0553 106.425 41.1322 106.396Z" fill="#0271C3"/>
<path d="M89.2367 0.225895C84.4346 0.227116 79.6312 0.227116 74.8291 0.228337C75.1331 -0.0635333 75.5177 0.0268367 75.873 0.0256155C79.9389 0.0158457 84.006 0.0121821 88.0719 0.017067C88.465 0.0182882 88.8936 -0.0904 89.2367 0.225895Z" fill="#0271C3"/>
<path d="M57.9587 0.989258C56.6437 1.22007 55.3153 1.16023 53.9906 1.17488C51.7391 1.19931 49.4864 1.1932 47.2349 1.19931C47.4217 1.00758 47.6634 0.995364 47.9076 0.995364C51.258 0.994143 54.6084 0.9917 57.9587 0.989258Z" fill="#0271C3"/>
<path d="M70.9219 185.085C71.8059 185.079 72.6899 185.041 73.5726 185.075C75.8644 185.162 78.155 185.118 80.4455 185.085C80.1891 185.357 79.8485 185.308 79.5298 185.308C76.9254 185.31 74.3223 185.305 71.718 185.301C71.4335 185.301 71.1429 185.321 70.9219 185.085Z" fill="#0271C3"/>
<path d="M13.2915 186.309C16.1401 186.307 18.9898 186.306 21.8384 186.305C21.6186 186.541 21.3268 186.521 21.0435 186.522C18.7652 186.527 16.4868 186.535 14.2072 186.535C13.8873 186.533 13.5479 186.582 13.2915 186.309Z" fill="#0271C3"/>
<path d="M63.3516 184.842C65.7154 184.801 68.0768 184.826 70.4308 185.075C70.3307 185.137 70.2208 185.266 70.1317 185.252C68.1793 184.961 66.2123 185.142 64.2551 185.06C63.9389 185.047 63.6055 185.109 63.3516 184.842Z" fill="#0271C3"/>
<path d="M51.8745 40.564C53.8195 40.7679 55.7829 40.476 57.723 40.7923C56.0747 40.7972 54.4251 40.8045 52.7768 40.8021C52.4606 40.8021 52.1236 40.8363 51.8745 40.564Z" fill="#0271C3"/>
<path d="M22.3281 186.295C23.6211 186.069 24.9252 186.027 26.234 186.062C26.0521 186.261 25.8091 186.297 25.5625 186.282C24.4844 186.221 23.4075 186.492 22.3281 186.295Z" fill="#0271C3"/>
<path d="M81.6665 149.684C83.0499 149.839 84.4332 149.833 85.8166 149.684C84.4332 150.12 83.0499 150.123 81.6665 149.684Z" fill="#0271C3"/>
<path d="M72.873 0.268773C71.497 0.495919 70.1124 0.524007 68.7229 0.469052C69.3077 0.0831478 69.9683 0.284648 70.5922 0.254118C71.3517 0.217482 72.1136 0.260224 72.873 0.268773Z" fill="#0271C3"/>
<path d="M62.8586 0.754839C61.568 1.01129 60.2627 1.0174 58.9551 0.962446C60.2383 0.542348 61.5558 0.7756 62.8586 0.754839Z" fill="#0271C3"/>
<path d="M80.7068 185.074C81.9107 184.814 83.1292 184.794 84.3526 184.841C83.1609 185.298 81.9241 185.035 80.7068 185.074Z" fill="#0271C3"/>
<path d="M67.4981 0.510444C66.3699 0.748581 65.2295 0.771784 64.083 0.710723C65.2014 0.302837 66.3565 0.521435 67.4981 0.510444Z" fill="#0271C3"/>
<path d="M29.6611 185.802C30.7832 185.509 31.926 185.527 33.0701 185.575C31.9578 186.005 30.8015 185.771 29.6611 185.802Z" fill="#0271C3"/>
<path d="M33.2984 2.21284C32.1739 2.43876 31.0383 2.47906 29.8979 2.41922C31.0103 2.00767 32.1616 2.23237 33.2984 2.21284Z" fill="#0271C3"/>
<path d="M84.6113 184.828C85.6516 184.574 86.7102 184.559 87.7712 184.598C86.7444 185.041 85.6675 184.799 84.6113 184.828Z" fill="#0271C3"/>
<path d="M37.4646 1.97724C36.4182 2.23125 35.3572 2.2337 34.2913 2.17874C35.3279 1.76231 36.4048 1.99556 37.4646 1.97724Z" fill="#0271C3"/>
<path d="M85.3269 93.7954C86.3049 93.7905 87.2817 93.7856 88.2597 93.7808C87.2841 94.1447 86.3061 94.2058 85.3269 93.7954Z" fill="#0271C3"/>
<path d="M26.4915 186.049C27.4487 185.786 28.4255 185.769 29.4072 185.815C28.4646 186.251 27.4682 186.025 26.4915 186.049Z" fill="#0271C3"/>
<path d="M7.92041 185.561C8.80684 185.677 9.73357 185.351 10.5883 185.806C9.69938 185.72 8.77265 186.052 7.92041 185.561Z" fill="#0271C3"/>
<path d="M60.6655 184.601C61.4067 184.595 62.138 184.677 62.8621 184.832C62.1075 184.964 61.3676 184.96 60.6655 184.601Z" fill="#0271C3"/>
<path d="M100.469 187.54C101.372 187.493 102.269 187.498 103.146 187.755C102.248 187.742 101.335 187.943 100.469 187.54Z" fill="#0271C3"/>
<path d="M88.0278 184.583C88.8215 184.338 89.6359 184.313 90.4576 184.357C89.681 184.787 88.8434 184.561 88.0278 184.583Z" fill="#0271C3"/>
<path d="M40.8809 1.73158C40.0836 1.98071 39.2668 1.99415 38.4438 1.93553C39.2277 1.53008 40.0641 1.74502 40.8809 1.73158Z" fill="#0271C3"/>
<path d="M46.0114 1.24438C45.3753 1.45076 44.7221 1.48862 44.0603 1.43367C44.6806 1.05265 45.3545 1.23827 46.0114 1.24438Z" fill="#0271C3"/>
<path d="M119.517 184.104C120.185 184.068 120.851 184.041 121.485 184.322C120.821 184.32 120.135 184.519 119.517 184.104Z" fill="#0271C3"/>
<path d="M115.61 183.619C116.192 183.575 116.765 183.606 117.308 183.849C116.733 183.844 116.133 184.014 115.61 183.619Z" fill="#0271C3"/>
<path d="M117.563 183.872C118.148 183.828 118.727 183.843 119.276 184.085C118.695 184.091 118.096 184.257 117.563 183.872Z" fill="#0271C3"/>
<path d="M43.33 1.49107C42.7793 1.72555 42.203 1.74509 41.6182 1.68525C42.1542 1.3201 42.7512 1.48375 43.33 1.49107Z" fill="#0271C3"/>
<path d="M79.979 163.351C80.5162 163.098 81.0864 163.068 81.6664 163.114C81.1475 163.506 80.5504 163.334 79.979 163.351Z" fill="#0271C3"/>
<path d="M53.5827 134.735C53.0051 134.765 52.4362 134.732 51.8867 134.531C52.4606 134.529 53.0552 134.352 53.5827 134.735Z" fill="#0271C3"/>
<path d="M90.7151 184.339C91.2609 184.121 91.8311 184.077 92.411 184.113C91.8884 184.51 91.2902 184.339 90.7151 184.339Z" fill="#0271C3"/>
<path d="M91.9228 0.462963C91.3403 0.515476 90.7677 0.476397 90.2134 0.270011C90.7921 0.257799 91.3867 0.0941563 91.9228 0.462963Z" fill="#0271C3"/>
<path d="M88.5002 93.7589C88.9667 93.5256 89.4611 93.4975 89.9678 93.5476C89.5222 93.9164 89.0033 93.7772 88.5002 93.7589Z" fill="#0271C3"/>
<path d="M90.2244 93.523C90.6847 93.2885 91.1743 93.2458 91.6785 93.2934C91.2414 93.6732 90.7213 93.5291 90.2244 93.523Z" fill="#0271C3"/>
<path d="M41.374 130.687C41.8624 130.67 42.3508 130.654 42.8392 130.637C42.3606 130.972 41.8746 131.045 41.374 130.687Z" fill="#0271C3"/>
<path d="M113.9 183.377C114.408 183.331 114.907 183.347 115.373 183.595C114.868 183.61 114.346 183.755 113.9 183.377Z" fill="#0271C3"/>
<path d="M46.2605 39.5821C46.7611 39.5345 47.2458 39.5894 47.6988 39.8251C47.2068 39.8178 46.6878 39.968 46.2605 39.5821Z" fill="#0271C3"/>
<path d="M47.7244 39.8287C48.225 39.7798 48.7073 39.8385 49.159 40.0717C48.6682 40.0632 48.1517 40.2121 47.7244 39.8287Z" fill="#0271C3"/>
<path d="M50.1687 40.3111C50.6754 40.2733 51.1723 40.2928 51.6351 40.5395C51.1321 40.5505 50.6083 40.7007 50.1687 40.3111Z" fill="#0271C3"/>
<path d="M38.9346 38.1166C39.4376 38.0714 39.9285 38.1056 40.3839 38.3511C39.8882 38.3535 39.368 38.5025 38.9346 38.1166Z" fill="#0271C3"/>
<path d="M44.5486 181.668C45.048 181.618 45.529 181.683 45.982 181.91C45.4924 181.901 44.9759 182.05 44.5486 181.668Z" fill="#0271C3"/>
<path d="M37.4695 37.8711C37.9701 37.8284 38.4573 37.8724 38.9102 38.1142C38.417 38.108 37.898 38.2595 37.4695 37.8711Z" fill="#0271C3"/>
<path d="M43.0847 181.42C43.5853 181.372 44.0664 181.435 44.5194 181.664C44.0285 181.656 43.5108 181.806 43.0847 181.42Z" fill="#0271C3"/>
<path d="M37.7113 181.611C37.2107 181.673 36.7247 181.643 36.2705 181.397C36.7601 181.402 37.2729 181.253 37.7113 181.611Z" fill="#0271C3"/>
<path d="M25.7457 56.8573C25.2573 56.861 24.7689 56.8659 24.2805 56.8696C24.7652 56.5325 25.2536 56.5313 25.7457 56.8573Z" fill="#0271C3"/>
<path d="M82.3978 65.8808C81.9265 65.948 81.4198 65.6879 80.9766 66.0286C81.3893 65.3887 81.8923 65.6268 82.3978 65.8808Z" fill="#0271C3"/>
<path d="M82.1548 64.485C82.6615 64.4227 83.156 64.4288 83.6065 64.717C83.112 64.706 82.5919 64.8574 82.1548 64.485Z" fill="#0271C3"/>
<path d="M96.074 171.611C95.6515 171.664 95.2523 171.591 94.8787 171.387C95.2926 171.376 95.726 171.267 96.074 171.611Z" fill="#0271C3"/>
<path d="M23.792 178.92C23.3683 178.968 22.9618 178.906 22.5747 178.724C22.9959 178.693 23.4306 178.583 23.792 178.92Z" fill="#0271C3"/>
<path d="M35.5134 179.727C35.9371 179.675 36.34 179.734 36.7124 179.951C36.2973 179.962 35.8638 180.068 35.5134 179.727Z" fill="#0271C3"/>
<path d="M36.7368 179.955C37.1666 179.908 37.5805 179.944 37.9566 180.181C37.5317 180.2 37.0909 180.31 36.7368 179.955Z" fill="#0271C3"/>
<path d="M121.958 184.365C122.391 184.311 122.813 184.321 123.2 184.562C122.771 184.595 122.329 184.703 121.958 184.365Z" fill="#0271C3"/>
<path d="M59.447 184.346C59.8695 184.298 60.2651 184.381 60.6326 184.596C60.2199 184.599 59.784 184.705 59.447 184.346Z" fill="#0271C3"/>
<path d="M93.6321 0.716776C93.2072 0.769289 92.8006 0.709449 92.4185 0.50917C92.8385 0.487188 93.2744 0.376057 93.6321 0.716776Z" fill="#0271C3"/>
<path d="M41.8625 181.186C42.285 181.143 42.6879 181.2 43.0603 181.416C42.644 181.427 42.2093 181.535 41.8625 181.186Z" fill="#0271C3"/>
<path d="M94.6089 171.355C94.1877 171.414 93.7896 171.341 93.4136 171.142C93.8275 171.13 94.2573 171.02 94.6089 171.355Z" fill="#0271C3"/>
<path d="M28.6795 2.46935C28.2875 2.63422 27.8797 2.70383 27.4548 2.6562C27.8211 2.32037 28.2558 2.43272 28.6795 2.46935Z" fill="#0271C3"/>
<path d="M11.8276 186.058C12.255 186.017 12.6652 186.068 13.0437 186.285C12.6201 186.308 12.1805 186.416 11.8276 186.058Z" fill="#0271C3"/>
<path d="M46.0139 181.913C46.4437 181.863 46.8588 181.898 47.2373 182.132C46.8124 182.154 46.3729 182.264 46.0139 181.913Z" fill="#0271C3"/>
<path d="M93.1436 171.112C92.7211 171.172 92.3194 171.106 91.9434 170.902C92.3585 170.888 92.7895 170.777 93.1436 171.112Z" fill="#0271C3"/>
<path d="M47.479 182.164C47.9051 182.111 48.3117 182.163 48.6866 182.387C48.2665 182.402 47.8306 182.507 47.479 182.164Z" fill="#0271C3"/>
<path d="M58.2261 184.103C58.6522 184.052 59.0588 184.101 59.4275 184.341C59.0087 184.349 58.5716 184.457 58.2261 184.103Z" fill="#0271C3"/>
<path d="M94.6089 68.0937C94.1816 68.1535 93.7713 68.1071 93.3892 67.8922C93.8104 67.8677 94.2463 67.7578 94.6089 68.0937Z" fill="#0271C3"/>
<path d="M91.6785 170.87C91.2573 170.929 90.858 170.859 90.4844 170.654C90.8971 170.644 91.3281 170.534 91.6785 170.87Z" fill="#0271C3"/>
<path d="M23.5428 3.44016C23.1594 3.64044 22.7528 3.69784 22.3267 3.64777C22.6844 3.30461 23.1215 3.41574 23.5428 3.44016Z" fill="#0271C3"/>
<path d="M48.9443 182.419C49.3656 182.364 49.7636 182.435 50.136 182.641C49.7233 182.649 49.2923 182.756 48.9443 182.419Z" fill="#0271C3"/>
<path d="M57.0027 183.875C57.4264 183.823 57.8305 183.881 58.2041 184.099C57.7866 184.112 57.3531 184.217 57.0027 183.875Z" fill="#0271C3"/>
<path d="M55.5386 183.617C55.9684 183.569 56.3823 183.606 56.7583 183.843C56.3347 183.861 55.8939 183.972 55.5386 183.617Z" fill="#0271C3"/>
<path d="M93.1597 93.0371C93.5321 92.8112 93.9386 92.7538 94.3648 92.799C94.0168 93.1556 93.5785 93.0505 93.1597 93.0371Z" fill="#0271C3"/>
<path d="M45.0371 39.3609C45.4596 39.3072 45.8625 39.3646 46.2373 39.5783C45.821 39.5905 45.3887 39.6968 45.0371 39.3609Z" fill="#0271C3"/>
<path d="M78.7227 163.574C79.1048 163.34 79.5212 163.3 79.9546 163.353C79.5944 163.708 79.1512 163.599 78.7227 163.574Z" fill="#0271C3"/>
<path d="M54.3164 183.389C54.7401 183.336 55.1418 183.396 55.5142 183.613C55.0991 183.623 54.6656 183.729 54.3164 183.389Z" fill="#0271C3"/>
<path d="M91.7053 93.2897C92.0802 93.0895 92.477 93.0137 92.8994 93.0711C92.5502 93.4057 92.1192 93.2995 91.7053 93.2897Z" fill="#0271C3"/>
<path d="M43.5718 39.1032C43.9955 39.0641 44.402 39.1093 44.7757 39.3316C44.3569 39.345 43.921 39.4537 43.5718 39.1032Z" fill="#0271C3"/>
<path d="M81.9045 163.088C82.2892 162.869 82.7043 162.839 83.1316 162.888C82.7666 163.226 82.3294 163.118 81.9045 163.088Z" fill="#0271C3"/>
<path d="M112.435 183.149C112.864 183.097 113.28 183.125 113.665 183.35C113.238 183.379 112.8 183.486 112.435 183.149Z" fill="#0271C3"/>
<path d="M52.8525 183.131C53.2811 183.082 53.6938 183.123 54.0698 183.357C53.6462 183.374 53.2066 183.484 52.8525 183.131Z" fill="#0271C3"/>
<path d="M51.6304 182.903C52.0528 182.85 52.4533 182.914 52.8257 183.127C52.4118 183.136 51.9784 183.242 51.6304 182.903Z" fill="#0271C3"/>
<path d="M50.165 182.645C50.5924 182.595 51.0026 182.64 51.3787 182.87C50.9575 182.888 50.5191 182.995 50.165 182.645Z" fill="#0271C3"/>
<path d="M40.6416 38.3802C40.9786 38.3558 41.3278 38.2826 41.5805 38.6074C41.2497 38.6013 40.8992 38.6795 40.6416 38.3802Z" fill="#0271C3"/>
<path d="M36.49 37.6661C36.8343 37.6148 37.1542 37.6819 37.4485 37.8676C37.1078 37.8957 36.761 37.9628 36.49 37.6661Z" fill="#0271C3"/>
<path d="M92.6467 184.082C92.9446 183.87 93.2792 183.825 93.6321 183.869C93.3561 184.182 92.9984 184.121 92.6467 184.082Z" fill="#0271C3"/>
<path d="M92.8994 67.8361C92.549 67.9008 92.2242 67.841 91.9238 67.6481C92.2681 67.6114 92.6186 67.543 92.8994 67.8361Z" fill="#0271C3"/>
<path d="M91.4331 67.5833C91.09 67.648 90.7774 67.5638 90.4832 67.3891C90.8177 67.3635 91.162 67.2951 91.4331 67.5833Z" fill="#0271C3"/>
<path d="M90.2134 67.3525C89.8642 67.4148 89.543 67.3427 89.2451 67.1546C89.5882 67.1229 89.9374 67.0557 90.2134 67.3525Z" fill="#0271C3"/>
<path d="M88.9924 67.1203C88.6395 67.1777 88.3099 67.1227 88.012 66.9188C88.3599 66.8797 88.714 66.8174 88.9924 67.1203Z" fill="#0271C3"/>
<path d="M87.5258 66.8531C87.1815 66.9166 86.869 66.8299 86.5747 66.6565C86.9117 66.6308 87.256 66.5637 87.5258 66.8531Z" fill="#0271C3"/>
<path d="M90.9446 66.45C91.2779 66.4182 91.6076 66.4011 91.8567 66.6881C91.5331 66.6832 91.1912 66.7504 90.9446 66.45Z" fill="#0271C3"/>
<path d="M18.3757 4.39644C18.0888 4.5723 17.7835 4.66877 17.4429 4.60894C17.7029 4.31584 18.0448 4.37813 18.3757 4.39644Z" fill="#0271C3"/>
<path d="M86.3061 66.6198C85.9545 66.6845 85.6334 66.5978 85.3293 66.4256C85.6761 66.3866 86.0265 66.3231 86.3061 66.6198Z" fill="#0271C3"/>
<path d="M89.7249 66.1958C90.0789 66.1506 90.4135 66.1934 90.709 66.4132C90.3573 66.4511 89.9996 66.5097 89.7249 66.1958Z" fill="#0271C3"/>
<path d="M88.7468 65.9723C89.0936 65.9174 89.4086 65.9992 89.698 66.1909C89.3585 66.2141 89.0118 66.2728 88.7468 65.9723Z" fill="#0271C3"/>
<path d="M46.7463 129.892C47.0406 129.683 47.3703 129.625 47.7231 129.668C47.4521 129.982 47.0968 129.927 46.7463 129.892Z" fill="#0271C3"/>
<path d="M45.5132 130.128C45.8135 129.914 46.1481 129.874 46.5034 129.926C46.2201 130.231 45.8648 130.17 45.5132 130.128Z" fill="#0271C3"/>
<path d="M44.2812 130.365C44.5816 130.139 44.9235 130.111 45.2812 130.161C44.998 130.47 44.6378 130.411 44.2812 130.365Z" fill="#0271C3"/>
<path d="M86.553 65.457C86.9022 65.4143 87.2257 65.479 87.5102 65.6951C87.1659 65.7208 86.813 65.7745 86.553 65.457Z" fill="#0271C3"/>
<path d="M43.0542 130.604C43.357 130.374 43.7013 130.35 44.0603 130.398C43.7746 130.713 43.4132 130.653 43.0542 130.604Z" fill="#0271C3"/>
<path d="M38.1982 180.212C38.5352 180.187 38.8808 180.129 39.1299 180.449C38.8026 180.439 38.4522 180.515 38.1982 180.212Z" fill="#0271C3"/>
<path d="M29.4084 180.149C29.0568 180.211 28.7454 180.094 28.4414 179.936C28.7869 179.903 29.1374 179.845 29.4084 180.149Z" fill="#0271C3"/>
<path d="M51.3862 134.485C51.0333 134.553 50.7061 134.49 50.4021 134.298C50.7501 134.258 51.1017 134.191 51.3862 134.485Z" fill="#0271C3"/>
<path d="M123.667 184.617C124 184.579 124.329 184.555 124.582 184.844C124.259 184.839 123.917 184.913 123.667 184.617Z" fill="#0271C3"/>
<path d="M109.992 64.5095C110.396 64.3947 110.584 64.6401 110.731 64.954C110.434 64.8893 110.197 64.7256 109.992 64.5095Z" fill="#0271C3"/>
<path d="M106.073 64.7036C106.372 64.485 106.704 64.4288 107.063 64.4935C106.783 64.7976 106.425 64.7414 106.073 64.7036Z" fill="#0271C3"/>
<path d="M32.5818 36.6767C32.931 36.6206 33.257 36.6804 33.55 36.8856C33.2057 36.9161 32.8553 36.9759 32.5818 36.6767Z" fill="#0271C3"/>
<path d="M107.311 64.4679C107.637 64.3201 107.962 64.187 108.289 64.4654C107.963 64.4667 107.637 64.4667 107.311 64.4679Z" fill="#0271C3"/>
<path d="M20.8359 3.91645C20.5417 4.09352 20.2291 4.17657 19.886 4.1094C20.157 3.82364 20.5001 3.8908 20.8359 3.91645Z" fill="#0271C3"/>
<path d="M10.8484 185.843C11.1964 185.782 11.5126 185.859 11.8032 186.054C11.4638 186.079 11.117 186.138 10.8484 185.843Z" fill="#0271C3"/>
<path d="M57.978 40.8118C58.3175 40.78 58.6703 40.6957 58.9145 41.0462C58.5861 41.034 58.2357 41.1122 57.978 40.8118Z" fill="#0271C3"/>
<path d="M40.1518 143.754C39.8014 143.824 39.4779 143.749 39.1726 143.572C39.5181 143.532 39.8686 143.464 40.1518 143.754Z" fill="#0271C3"/>
<path d="M90.2134 170.618C89.8654 170.679 89.5443 170.607 89.2488 170.418C89.5907 170.388 89.9399 170.322 90.2134 170.618Z" fill="#0271C3"/>
<path d="M88.9924 170.379C88.6469 170.437 88.3331 170.353 88.0437 170.165C88.3819 170.141 88.7275 170.08 88.9924 170.379Z" fill="#0271C3"/>
<path d="M30.1411 36.165C30.4744 36.1393 30.8053 36.1259 31.052 36.4166C30.7272 36.4104 30.3829 36.4752 30.1411 36.165Z" fill="#0271C3"/>
<path d="M49.1885 40.0753C49.545 40.0032 49.8649 40.0814 50.1482 40.3073C49.8051 40.3268 49.4534 40.3781 49.1885 40.0753Z" fill="#0271C3"/>
<path d="M79.4688 149.203C79.807 149.175 80.1549 149.107 80.4028 149.44C80.0731 149.431 79.7227 149.506 79.4688 149.203Z" fill="#0271C3"/>
<path d="M22.0727 3.68064C21.7748 3.86749 21.4537 3.93954 21.1057 3.8797C21.3804 3.58172 21.7296 3.65011 22.0727 3.68064Z" fill="#0271C3"/>
<path d="M82.3979 151.32C82.0512 151.393 81.7313 151.326 81.437 151.13C81.7752 151.103 82.122 151.034 82.3979 151.32Z" fill="#0271C3"/>
<path d="M85.8362 151.151C85.5321 151.362 85.1964 151.404 84.8411 151.333C85.1304 151.04 85.4857 151.107 85.8362 151.151Z" fill="#0271C3"/>
<path d="M16.9802 4.68088C16.7592 4.87384 16.5027 4.91902 16.2207 4.86162C16.4283 4.61128 16.6981 4.62227 16.9802 4.68088Z" fill="#0271C3"/>
<path d="M13.7812 5.39528C13.5577 5.54427 13.3221 5.64074 13.0474 5.57846C13.2452 5.333 13.5089 5.34521 13.7812 5.39528Z" fill="#0271C3"/>
<path d="M19.3927 4.17281C19.1742 4.33279 18.9361 4.40972 18.6638 4.34744C18.8628 4.10808 19.1253 4.12762 19.3927 4.17281Z" fill="#0271C3"/>
<path d="M24.7944 3.21661C24.5721 3.40834 24.3157 3.45231 24.0361 3.3888C24.2461 3.14212 24.5148 3.15799 24.7944 3.21661Z" fill="#0271C3"/>
<path d="M83.863 64.7622C84.1378 64.7048 84.3746 64.7854 84.5859 64.9601C84.316 65.0028 84.0547 65.0077 83.863 64.7622Z" fill="#0271C3"/>
<path d="M74.829 166.704C74.5531 166.769 74.3199 166.664 74.0977 166.518C74.3699 166.469 74.6324 166.458 74.829 166.704Z" fill="#0271C3"/>
<path d="M84.8398 65.0064C85.1146 64.949 85.349 65.0333 85.5578 65.2067C85.2892 65.247 85.0303 65.2507 84.8398 65.0064Z" fill="#0271C3"/>
<path d="M81.1782 151.085C80.901 151.147 80.669 151.039 80.4492 150.891C80.7215 150.845 80.984 150.837 81.1782 151.085Z" fill="#0271C3"/>
<path d="M85.8167 65.253C86.0889 65.1981 86.3221 65.2823 86.5321 65.4533C86.2635 65.4924 86.0059 65.4961 85.8167 65.253Z" fill="#0271C3"/>
<path d="M87.7715 65.7405C88.0474 65.6831 88.2879 65.7576 88.5016 65.9322C88.2293 65.9774 87.9668 65.9872 87.7715 65.7405Z" fill="#0271C3"/>
<path d="M83.6188 66.1153C83.3441 66.1812 83.0987 66.1165 82.8789 65.9455C83.15 65.8943 83.4149 65.8735 83.6188 66.1153Z" fill="#0271C3"/>
<path d="M85.8411 149.681C86.045 149.494 86.2989 149.495 86.5517 149.496C86.3673 149.758 86.1011 149.706 85.8411 149.681Z" fill="#0271C3"/>
<path d="M85.5737 169.63C85.2977 169.693 85.0621 169.597 84.8386 169.448C85.1109 169.398 85.3746 169.384 85.5737 169.63Z" fill="#0271C3"/>
<path d="M87.7714 170.123C87.4942 170.185 87.2513 170.106 87.0278 169.943C87.3038 169.889 87.5687 169.875 87.7714 170.123Z" fill="#0271C3"/>
<path d="M68.4604 143.804C68.2284 144.169 67.9854 143.935 67.7449 143.815C67.983 143.812 68.2211 143.808 68.4604 143.804Z" fill="#0271C3"/>
<path d="M93.3867 66.9505C93.6505 66.9139 93.9093 66.8931 94.0717 67.1704C93.8165 67.1801 93.5613 67.1923 93.3867 66.9505Z" fill="#0271C3"/>
<path d="M95.5748 67.6663C95.7775 67.7029 95.847 67.858 95.7701 68.0094C95.6932 68.1572 95.5088 68.167 95.3428 68.1267C95.4197 67.9728 95.4966 67.8201 95.5748 67.6663Z" fill="#0271C3"/>
<path d="M97.0497 171.823C96.7762 171.884 96.5357 171.813 96.3171 171.647C96.587 171.599 96.8495 171.58 97.0497 171.823Z" fill="#0271C3"/>
<path d="M36.3035 93.2936C36.511 92.8796 36.7223 92.9407 36.9347 93.2899C36.7247 93.2911 36.5135 93.2924 36.3035 93.2936Z" fill="#0271C3"/>
<path d="M25.9897 179.396C25.7125 179.462 25.4683 179.384 25.2461 179.221C25.5196 179.167 25.7858 179.151 25.9897 179.396Z" fill="#0271C3"/>
<path d="M27.2109 179.641C26.9361 179.701 26.6919 179.631 26.4722 179.461C26.7457 179.411 27.0094 179.395 27.2109 179.641Z" fill="#0271C3"/>
<path d="M25.9982 2.95893C25.776 3.11891 25.5342 3.20439 25.2571 3.14211C25.4573 2.8942 25.7223 2.90641 25.9982 2.95893Z" fill="#0271C3"/>
<path d="M33.8027 36.921C34.0665 36.8843 34.3278 36.8611 34.4901 37.142C34.2337 37.153 33.9773 37.164 33.8027 36.921Z" fill="#0271C3"/>
<path d="M47.7231 133.743C47.4471 133.811 47.2103 133.718 46.9905 133.561C47.2603 133.514 47.524 133.5 47.7231 133.743Z" fill="#0271C3"/>
<path d="M36.0016 181.357C35.7232 181.421 35.4852 181.327 35.2642 181.168C35.5389 181.118 35.8038 181.109 36.0016 181.357Z" fill="#0271C3"/>
<path d="M13.7384 128.169C13.6517 128.368 13.4808 128.405 13.2903 128.403C13.3611 128.176 13.5418 128.158 13.7384 128.169Z" fill="#0271C3"/>
<path d="M23.7897 121.591C23.6248 121.568 23.46 121.546 23.2952 121.523C23.4954 121.297 23.6602 121.313 23.7897 121.591Z" fill="#0271C3"/>
<path d="M60.6461 151.663C60.8463 151.747 60.9001 151.913 60.894 152.112C60.6632 152.044 60.6388 151.863 60.6461 151.663Z" fill="#0271C3"/>
<path d="M96.7564 142.831C96.7454 143.011 96.7381 143.191 96.5415 143.28C96.5293 143.091 96.5464 142.915 96.7564 142.831Z" fill="#0271C3"/>
<path d="M58.7083 149.963C58.889 149.97 59.0721 149.973 59.1576 150.178C58.9683 150.19 58.7901 150.178 58.7083 149.963Z" fill="#0271C3"/>
<path d="M93.6638 183.863C93.8116 183.729 93.9617 183.651 94.1217 183.844C93.9703 183.852 93.8164 183.856 93.6638 183.863Z" fill="#0271C3"/>
<path d="M97.787 172.045C97.6356 171.986 97.4854 171.928 97.334 171.868C97.5208 171.835 97.6844 171.86 97.787 172.045Z" fill="#0271C3"/>
<path d="M48.4581 133.961C48.3067 133.903 48.1553 133.844 48.0039 133.785C48.1919 133.751 48.3556 133.777 48.4581 133.961Z" fill="#0271C3"/>
<path d="M41.1324 106.396C41.0542 106.425 40.9761 106.455 40.8992 106.484C40.9175 106.297 40.9737 106.209 41.1324 106.396Z" fill="#0271C3"/>
<path d="M76.7911 93.9481C76.6738 93.9322 76.6055 93.8663 76.5884 93.749C76.7044 93.7661 76.7703 93.8345 76.7911 93.9481Z" fill="#0271C3"/>
<path d="M85.1121 93.7795C85.1731 93.6965 85.2317 93.6806 85.2854 93.7868L85.1975 93.8052L85.1121 93.7795Z" fill="#0271C3"/>
<path d="M76.553 93.7186C76.4212 93.7125 76.3479 93.6404 76.3235 93.5134C76.4468 93.5281 76.5237 93.5965 76.553 93.7186Z" fill="#0271C3"/>
<path d="M100.216 91.6289C100.357 91.6191 100.412 91.6851 100.385 91.8218C100.329 91.7571 100.272 91.6924 100.216 91.6289Z" fill="#0271C3"/>
<path d="M39.1592 180.488C39.2459 180.549 39.3326 180.61 39.4192 180.673C39.2764 180.691 39.1934 180.625 39.1592 180.488Z" fill="#0271C3"/>
<path d="M56.7681 77.5814C56.6558 77.5655 56.5898 77.502 56.5703 77.3909C56.6826 77.4055 56.7474 77.4715 56.7681 77.5814Z" fill="#0271C3"/>
<path d="M56.5289 77.3577C56.397 77.3541 56.3225 77.2833 56.2957 77.1575C56.419 77.1709 56.4971 77.2369 56.5289 77.3577Z" fill="#0271C3"/>
<path d="M96.5198 143.308C96.5149 143.444 96.4405 143.518 96.311 143.544C96.3269 143.417 96.3965 143.339 96.5198 143.308Z" fill="#0271C3"/>
<path d="M59.1858 150.202C59.3189 150.212 59.3921 150.283 59.4068 150.415C59.2859 150.394 59.2114 150.323 59.1858 150.202Z" fill="#0271C3"/>
<path d="M59.4312 150.44C59.563 150.454 59.6363 150.527 59.6534 150.656C59.5288 150.636 59.4556 150.564 59.4312 150.44Z" fill="#0271C3"/>
<path d="M60.1663 151.169C60.2969 151.187 60.3702 151.26 60.3836 151.392C60.2603 151.367 60.187 151.294 60.1663 151.169Z" fill="#0271C3"/>
<path d="M60.408 151.416C60.5411 151.431 60.6131 151.504 60.6229 151.638C60.502 151.611 60.4299 151.538 60.408 151.416Z" fill="#0271C3"/>
<path d="M12.5088 129.4C12.5052 129.532 12.4319 129.603 12.3062 129.623C12.322 129.501 12.388 129.426 12.5088 129.4Z" fill="#0271C3"/>
<path d="M23.2119 121.56L23.168 121.645L23.0947 121.576C23.1301 121.54 23.1692 121.535 23.2119 121.56Z" fill="#0271C3"/>
<path d="M12.7848 128.917C12.7238 129.021 12.664 129.125 12.6041 129.229C12.57 129.07 12.6286 128.966 12.7848 128.917Z" fill="#0271C3"/>
<path d="M13.9998 127.937C13.9742 128.065 13.8997 128.138 13.7666 128.145C13.7959 128.02 13.874 127.952 13.9998 127.937Z" fill="#0271C3"/>
<path d="M41.605 38.6416C41.6929 38.7039 41.782 38.7674 41.8699 38.8297C41.7283 38.8431 41.6416 38.7772 41.605 38.6416Z" fill="#0271C3"/>
</svg>
