<svg width="101" height="162" viewBox="0 0 101 162" fill="none" xmlns="http://www.w3.org/2000/svg">
<g filter="url(#filter0_d)">
<path d="M48.2432 15.2112C72.2468 15.2112 91.7056 11.806 91.7056 7.60558C91.7056 3.40513 72.2468 0 48.2432 0C24.2395 0 4.78076 3.40513 4.78076 7.60558C4.78076 11.806 24.2395 15.2112 48.2432 15.2112Z" fill="white"/>
<path d="M39.131 1.1245C38.2777 1.20199 37.4219 1.34288 36.5685 1.34288C32.6363 1.34992 28.7543 1.8853 24.8603 2.30796C19.25 2.91847 13.6636 3.691 8.09875 4.61616C7.70912 4.68191 7.32187 4.78288 6.9418 4.89559C6.14579 5.1351 5.38086 5.52724 5.34978 6.42422C5.31871 7.30946 6.03583 7.80022 6.80076 8.10313C9.6573 9.22788 12.662 9.82196 15.6644 10.3996C27.626 12.7078 39.7262 13.4122 51.8863 13.1774C60.2025 13.0178 68.5163 12.581 76.7704 11.5502C82.5265 10.8316 88.3448 10.2376 93.7327 7.84014C94.1654 7.64759 94.6124 7.46914 95.0188 7.23432C96.0395 6.6426 96.0921 6.15184 95.2244 5.14684C94.1176 7.33999 91.8372 7.53019 89.8459 8.06321C87.0539 8.81226 84.1998 9.34059 81.3265 9.74682C80.9464 9.80082 80.717 9.7703 80.5042 9.32181C83.4277 8.67842 86.4181 8.4483 89.5424 7.47618C86.6308 6.54632 83.9392 5.9452 81.1974 5.60238C77.3298 5.11866 73.4621 4.60912 69.5777 4.30386C61.5985 3.67926 53.605 3.58534 45.6043 3.84833C41.9828 3.96808 38.3661 4.14654 34.7518 4.37431C34.2976 4.40248 33.8267 4.51519 33.3128 4.26864C36.9725 3.89764 40.5653 3.5642 44.1748 3.48437C49.7875 3.35992 55.4002 3.36696 61.0128 3.40453C66.8359 3.44445 72.6207 3.89059 78.3959 4.58329C81.6612 4.97543 84.9313 5.31591 88.1894 5.755C89.3918 5.91703 90.5678 6.28098 91.7487 6.58624C92.2435 6.71304 92.6881 6.68251 93.1208 6.41952C93.4961 6.19176 93.9359 5.97573 93.8833 5.46619C93.8355 4.98952 93.3598 4.93081 92.9917 4.80871C90.3073 3.91642 87.5368 3.53838 84.7305 3.18146C82.4213 2.8856 80.117 2.48642 77.7959 2.27743C71.3705 1.69979 64.9188 1.60352 58.479 1.256C54.3053 1.03058 50.1269 0.880298 45.9437 0.95309C44.3804 0.981267 42.817 1.06815 41.2537 1.12215C40.7876 1.13859 40.3119 1.16442 39.7836 0.474072C42.9007 0.474072 45.8194 0.448243 48.7357 0.478769C60.126 0.603219 71.4972 1.11511 82.8468 2.05436C86.9033 2.39014 90.8738 3.18146 94.7893 4.28977C96.0969 4.65843 96.7375 5.39809 96.7375 6.71539C96.7375 7.91528 96.955 9.13396 96.1757 10.2376C96.0012 10.4841 96.0873 10.9209 96.0873 11.2684C95.9893 52.0295 95.8961 92.7906 95.7909 133.554C95.7885 134.233 96.006 134.773 96.3144 135.383C97.5574 137.844 97.0124 140.192 95.4658 142.331C93.5822 144.94 90.8212 146.448 87.9527 147.741C82.6771 150.122 77.0525 151.348 71.4015 152.525C63.8502 154.095 56.2368 154.215 48.5827 153.785C39.6689 153.283 30.8196 152.29 22.1854 149.956C17.7656 148.76 13.4509 147.272 9.69555 144.574C7.56569 143.045 5.7442 141.279 5.1705 138.61C4.89561 137.323 4.84302 136.048 5.48604 134.836C5.76093 134.32 5.66054 133.763 5.65815 133.223C5.51472 108.659 5.3713 84.0931 5.21353 59.5294C5.16094 51.3556 5.06532 43.1794 4.99361 35.0056C4.92668 27.1863 4.86214 19.3671 4.80238 11.5502C4.7976 11.0782 4.67808 10.6532 4.52748 10.2C3.38009 6.70365 3.96096 4.86741 7.70195 4.1301C13.7879 2.93021 19.9265 2.01209 26.0985 1.35227C30.0475 0.929609 34.0084 0.722974 37.9812 0.856817C38.3709 0.870906 38.7629 0.859165 39.1525 0.859165C39.1454 0.941349 39.1382 1.03293 39.131 1.1245ZM94.5885 136.304C94.8849 135.886 94.763 135.503 94.4905 135.132C94.708 134.78 94.6602 134.381 94.7056 133.995C94.9829 131.65 94.6793 129.309 94.6913 126.965C94.7774 110.463 94.8586 93.96 94.9399 77.4597C94.9471 76.0626 94.9423 76.0626 93.673 76.4899C93.9479 75.978 94.9925 76.1776 94.8754 75.3722C94.7056 74.2052 94.8969 73.0593 94.9088 71.904C95.0068 63.068 94.9399 54.232 95.0762 45.396C95.2411 34.8412 95.1264 24.2794 95.1407 13.7222C95.1431 11.2778 95.1431 11.2167 92.8077 11.9376C88.2085 13.3535 83.4875 14.1496 78.7401 14.8775C72.886 15.7745 66.9841 16.1971 61.0822 16.4601C55.3213 16.7161 49.5413 16.5235 43.7708 16.6057C39.1095 16.6714 34.4673 16.3051 29.8323 15.9858C24.9703 15.65 20.1321 14.9503 15.3847 13.7715C12.7505 13.1187 10.0565 12.7031 7.54657 11.5901C6.20316 10.996 5.65097 11.4656 5.75376 12.891C5.81591 13.741 5.85177 14.5957 5.86133 15.4481C5.97129 25.0237 5.83504 34.5994 6.05973 44.1774C6.27726 53.3632 6.09798 62.5585 6.25814 71.7444C6.28682 73.3387 5.52906 75.2266 7.16649 76.5885C6.17686 76.2105 6.17447 76.76 6.17925 77.5043C6.28204 93.6383 6.3681 109.772 6.45176 125.906C6.45654 126.998 6.34658 128.083 6.22945 129.172C6.05495 130.797 6.24141 132.42 6.76251 133.988C6.48045 134.298 6.48523 134.676 6.49718 135.057C6.38005 135.703 6.741 136.184 7.09239 136.656C7.75453 137.543 8.51468 138.344 9.41348 139.002C13.3935 141.923 17.9138 143.759 22.6611 144.978C38.8514 149.141 55.2496 149.782 71.796 147.514C77.858 146.682 83.7241 145.194 89.2555 142.568C91.4714 141.517 93.1949 139.95 94.2873 137.755C94.5144 137.299 94.7511 136.841 94.5885 136.304ZM22.2715 146.91C21.7862 147.084 21.2699 146.774 20.9568 147.295C20.5528 147.018 20.1727 146.692 19.7329 146.48C19.3552 146.3 18.6189 145.99 18.5329 146.241C18.1241 147.462 17.615 146.511 17.168 146.372C16.8668 146.279 16.6182 146.239 16.4676 146.56C16.3361 146.842 16.372 147.1 16.6994 147.239C16.9552 147.347 17.2158 147.443 17.4763 147.539C23.3304 149.669 29.4308 150.745 35.5669 151.707C49.5532 153.905 63.4558 153.908 77.2509 150.392C79.713 149.765 82.1703 149.127 84.5584 148.091C83.7408 148.286 83.4492 147.215 83.2508 147.302C82.0078 147.84 80.6094 147.915 79.4238 148.591C79.0485 148.805 79.1775 149.585 78.4963 149.432C77.9991 147.941 79.1752 147.974 80.0668 147.704C83.7002 146.6 87.3002 145.417 90.6324 143.566C90.8786 143.43 91.1248 143.123 91.6579 143.475C90.5296 144.527 89.0475 145.17 88.2181 146.448C94.2108 143.736 96.7351 140.286 95.559 136.473C94.6626 140.028 92.167 142.092 89.0667 143.583C86.3081 144.91 83.4062 145.875 80.4636 146.708C73.7824 148.601 66.8932 149.04 60.0017 149.458C51.4679 149.974 42.9772 149.578 34.5391 148.265C30.179 147.586 25.826 146.807 21.6046 145.485C15.6931 143.635 9.78638 141.761 5.78723 136.555C5.63663 139.258 6.7649 141.474 9.17205 143.2C9.45411 143.402 9.78399 143.9 10.1736 143.456C10.5155 143.066 10.0661 142.756 9.85331 142.446C9.38957 141.765 8.7107 141.207 8.45731 140.021C12.5975 143.618 17.5074 145.062 22.2715 146.91ZM4.86214 7.60533C4.60637 8.59389 4.97688 9.18561 5.6199 9.67168C6.26292 10.1554 7.00634 10.4254 7.75931 10.6861C9.93698 11.4422 12.1959 11.8977 14.4405 12.4002C20.2468 13.6987 26.1105 14.6779 32.0506 15.1146C38.8012 15.6101 45.566 15.7486 52.3404 15.6711C62.8152 15.5514 73.2637 15.2438 83.5448 13.0013C87.3049 12.1818 91.0507 11.3224 94.6363 9.90179C95.5303 9.54723 96.0777 9.00246 95.8937 7.86597C94.9758 8.40839 94.0602 8.7653 93.1304 9.08934C88.0603 10.8598 82.7942 11.7333 77.4851 12.4354C70.5338 13.3559 63.5395 13.7339 56.5404 14.0016C45.7883 14.4125 35.0506 14.1143 24.3607 12.8369C18.9584 12.1912 13.5823 11.3224 8.34018 9.82196C7.03024 9.44156 5.84221 8.8287 4.86214 7.60533Z" fill="#1D1D1F"/>
<path d="M20.806 9.83615C16.202 9.52854 11.6268 9.12467 7.28103 7.48568C6.85793 7.326 6.44917 7.12641 6.48264 6.60043C6.51132 6.15429 6.86032 5.93122 7.25474 5.80207C9.51367 5.05772 11.8754 4.77829 14.206 4.36267C14.7869 4.25935 14.3232 5.16573 14.9279 5.0765C16.1494 4.8957 17.3351 5.4475 18.5709 5.25026C19.747 5.06241 20.9327 4.93327 22.1183 4.8229C22.943 4.74542 23.7629 4.81116 24.3772 4.04098C24.6665 3.67702 25.2569 3.75451 25.7278 3.7052C26.1414 3.66293 26.5907 3.74042 27.0593 3.28253C25.7039 3.28253 24.5039 3.28253 23.3039 3.28253C25.19 2.68141 27.0999 2.58279 29.0314 2.75655C29.0314 2.84343 29.0624 2.93736 29.0266 2.97728C28.6991 3.35533 28.0919 3.74042 28.2975 4.21239C28.5365 4.76185 29.2178 4.33919 29.7007 4.3838C30.566 4.46364 31.4457 4.22883 32.4472 4.48947C25.1565 5.38411 17.8562 5.28783 10.6635 7.40349C13.9861 9.05422 17.5478 8.85228 20.806 9.83615Z" fill="#1D1D1F"/>
<path d="M25.1736 10.36C26.8062 9.93027 28.4532 10.043 30.0907 10.1369C34.379 10.3858 38.6459 10.9259 42.9463 11.0292C49.3478 11.1818 55.7469 11.6303 62.1556 11.2006C62.7054 11.163 63.2624 11.0691 63.7476 11.6374C50.8155 12.2056 37.9838 11.6021 25.1736 10.36Z" fill="#1D1D1F"/>
<path d="M77.8509 10.1179C74.6358 10.6298 71.3896 10.8693 68.153 11.2098C68.1363 11.0806 68.122 10.9492 68.1052 10.82C71.3418 10.4725 74.5784 10.125 77.8151 9.77979C77.827 9.89015 77.839 10.0029 77.8509 10.1179Z" fill="#1D1D1F"/>
<path d="M7.15929 76.5914C5.52903 75.2271 6.28679 73.3392 6.25811 71.7449C6.09795 62.5566 6.27723 53.3637 6.0597 44.1779C5.83262 34.5999 5.97126 25.0242 5.8613 15.4486C5.85174 14.5962 5.81349 13.7415 5.75373 12.8915C5.65094 11.4662 6.20313 10.9965 7.54654 11.5906C10.0565 12.7036 12.7505 13.1169 15.3847 13.772C20.132 14.9508 24.9702 15.6505 29.8323 15.9863C34.4673 16.3056 39.1095 16.6719 43.7708 16.6062C49.5412 16.524 55.3212 16.7189 61.0821 16.4606C66.9817 16.1976 72.886 15.775 78.7401 14.878C83.4874 14.1501 88.2085 13.3564 92.8076 11.9381C95.143 11.2196 95.1454 11.2783 95.1407 13.7227C95.1263 24.2799 95.2411 34.8417 95.0761 45.3965C94.9375 54.2325 95.0068 63.0685 94.9088 71.9045C94.8968 73.0598 94.7056 74.2057 94.8753 75.3727C94.9925 76.1781 93.9478 75.9785 93.6706 76.4904C89.2674 78.2914 84.7519 79.7379 80.1169 80.8274C74.9035 82.0508 69.6589 83.0863 64.2877 83.3657C64.1179 83.0511 64.0032 82.7317 64.0056 82.3631C64.0199 80.8016 63.8789 79.2964 63.3913 77.7607C63.0853 76.7957 62.2271 76.1382 62.1435 75.1802C62.0455 74.0742 61.3427 73.4942 60.6638 72.7264C58.467 70.2444 55.6583 68.9576 52.4862 68.4833C50.1484 68.1358 47.6958 68.0254 45.5325 69.2934C43.4792 70.498 41.5358 71.7801 39.8935 73.6187C37.8545 75.8987 36.9892 78.4229 36.8314 81.3158C36.798 81.9381 36.8482 82.565 36.5852 83.1544C36.1502 83.1262 35.7151 83.0863 35.2801 83.0699C29.8108 82.8585 24.4563 81.7573 19.1663 80.5644C15.0692 79.6439 11.0413 78.2632 7.15929 76.5914Z" fill="#CF0517"/>
<path d="M64.2878 83.3626C69.659 83.0831 74.9036 82.0476 80.1171 80.8242C84.7521 79.7371 89.2676 78.2883 93.6707 76.4873C94.94 76.0575 94.9472 76.0575 94.94 77.4547C94.8587 93.9573 94.7774 110.46 94.6914 126.96C94.6794 129.304 94.983 131.647 94.7057 133.99C94.6603 134.378 94.7081 134.775 94.4906 135.127C92.3201 137.442 89.7839 139.34 86.8198 140.453C78.6374 143.529 70.1706 145.557 61.393 145.907C51.7525 146.292 42.1072 146.013 32.5934 144.339C23.2708 142.697 14.1442 140.391 6.765 133.983C6.24389 132.415 6.05505 130.792 6.22955 129.167C6.34668 128.078 6.45903 126.993 6.45186 125.901C6.36819 109.767 6.28453 93.6333 6.17935 77.4993C6.17457 76.7549 6.17696 76.2055 7.16181 76.5859C11.0414 78.2601 15.0693 79.6384 19.164 80.5613C24.454 81.7541 29.8061 82.8554 35.2778 83.0667C35.7128 83.0831 36.1479 83.1231 36.583 83.1512C36.8913 85.0274 37.3001 86.8589 38.3256 88.5261C41.0817 93.0087 45.1263 95.4037 50.4234 95.4108C55.7373 95.4155 59.7436 92.9523 62.5069 88.4956C63.4966 86.9082 63.6782 85.0673 64.2878 83.3626Z" fill="#F5F4EF"/>
<path d="M22.2714 146.91C17.5097 145.062 12.5975 143.618 8.46683 140.016C8.72022 141.202 9.39909 141.761 9.86283 142.442C10.0756 142.754 10.525 143.064 10.1831 143.452C9.79351 143.895 9.46363 143.398 9.18157 143.196C6.77442 141.47 5.64615 139.253 5.79675 136.55C9.7959 141.756 15.7026 143.63 21.6141 145.48C25.8355 146.802 30.1885 147.582 34.5486 148.261C42.9867 149.573 51.4775 149.97 60.0112 149.453C66.9028 149.035 73.7895 148.596 80.4731 146.704C83.4157 145.87 86.32 144.905 89.0762 143.578C92.1789 142.087 94.6721 140.023 95.5685 136.468C96.7422 140.282 94.2203 143.733 88.2276 146.443C89.0547 145.166 90.5391 144.525 91.6674 143.47C91.1343 143.118 90.8881 143.426 90.6419 143.562C87.3097 145.412 83.7097 146.598 80.0763 147.699C79.1871 147.969 78.011 147.939 78.5058 149.428C79.1871 149.58 79.058 148.801 79.4333 148.587C80.6165 147.911 82.0173 147.836 83.2603 147.298C83.4587 147.211 83.7503 148.284 84.5679 148.087C82.1798 149.122 79.7225 149.759 77.2604 150.388C63.4653 153.903 49.5627 153.903 35.5765 151.703C29.4403 150.738 23.34 149.665 17.4858 147.535C17.2253 147.441 16.9647 147.342 16.709 147.234C16.3815 147.096 16.3456 146.838 16.4771 146.556C16.6253 146.234 16.8763 146.276 17.1775 146.368C17.6245 146.507 18.1336 147.457 18.5424 146.236C18.6261 145.985 19.3623 146.295 19.7424 146.476C20.1798 146.685 20.5599 147.014 20.9663 147.291C21.2675 146.774 21.7838 147.082 22.2714 146.91Z" fill="#F5F4EF"/>
<path d="M94.5887 136.304C94.7512 136.842 94.5146 137.3 94.2875 137.758C93.1951 139.951 91.474 141.519 89.2557 142.571C83.7243 145.196 77.8582 146.685 71.7962 147.516C55.2497 149.785 38.8515 149.144 22.6613 144.98C17.914 143.759 13.3937 141.925 9.41367 139.004C8.51726 138.345 7.75472 137.544 7.09258 136.659C6.74119 136.187 6.38024 135.705 6.49737 135.06C7.70931 135.942 8.86865 136.905 10.1427 137.689C17.0367 141.947 24.8198 143.67 32.6604 145.199C37.7806 146.197 42.987 146.568 48.1765 146.798C53.684 147.044 59.2154 147.235 64.7253 146.518C69.8002 145.859 74.82 144.973 79.7514 143.59C85.1705 142.066 90.3744 140.174 94.5887 136.304Z" fill="#F5F4EF"/>
<path d="M4.86219 7.60596C5.84465 8.83168 7.03029 9.44219 8.34262 9.82024C13.5848 11.3207 18.9584 12.1871 24.3631 12.8329C35.0507 14.1103 45.7884 14.4108 56.5428 13.9976C63.5419 13.7299 70.5339 13.3518 77.4876 12.4314C82.7967 11.7269 88.0627 10.8558 93.1328 9.08528C94.0603 8.76123 94.9758 8.40667 95.8961 7.8619C96.0802 8.99839 95.5328 9.54316 94.6388 9.89773C91.0531 11.3207 87.3074 12.1778 83.5473 12.9973C73.2661 15.2397 62.8176 15.5473 52.3429 15.6671C45.5685 15.7446 38.806 15.6084 32.0531 15.1106C26.1105 14.6785 20.2469 13.697 14.4406 12.3985C12.196 11.896 9.93703 11.4404 7.75937 10.6843C7.00639 10.4237 6.26297 10.1513 5.61995 9.66996C4.97454 9.18625 4.60642 8.59452 4.86219 7.60596Z" fill="#F5F4EF"/>
<path d="M94.5886 136.304C90.3767 140.174 85.1704 142.066 79.7514 143.585C74.8199 144.969 69.8001 145.854 64.7252 146.514C59.2177 147.23 53.684 147.04 48.1765 146.793C42.9869 146.561 37.7806 146.192 32.6603 145.194C24.8198 143.665 17.0366 141.942 10.1427 137.685C8.86858 136.898 7.70923 135.935 6.49729 135.055C6.48534 134.674 6.48056 134.296 6.76263 133.986C14.1442 140.392 23.2684 142.698 32.5934 144.342C42.1072 146.018 51.7525 146.298 61.393 145.91C70.1706 145.558 78.6374 143.529 86.8198 140.455C89.7839 139.342 92.3225 137.443 94.4906 135.13C94.7631 135.503 94.885 135.886 94.5886 136.304Z" fill="#CF0517"/>
<path d="M64.2876 83.3628C63.6781 85.0676 63.4964 86.9085 62.5092 88.4982C59.7459 92.9549 55.7395 95.4205 50.4257 95.4134C45.1261 95.4087 41.084 93.0136 38.3278 88.5287C37.3023 86.8615 36.8936 85.03 36.5852 83.1539C36.8481 82.5645 36.7956 81.9375 36.8314 81.3153C36.9892 78.4224 37.8545 75.8982 39.8935 73.6181C41.5381 71.7795 43.4815 70.4975 45.5325 69.2929C47.6958 68.0249 50.1484 68.1353 52.4862 68.4828C55.6583 68.9548 58.467 70.2439 60.6638 72.7258C61.3427 73.4937 62.0454 74.0713 62.1434 75.1796C62.2271 76.14 63.0853 76.7951 63.3912 77.7602C63.8789 79.2935 64.0199 80.801 64.0056 82.3625C64.0032 82.7289 64.1179 83.0505 64.2876 83.3628Z" fill="#1D1D1F"/>
</g>
<defs>
<filter id="filter0_d" x="0" y="0" width="101" height="162" filterUnits="userSpaceOnUse" color-interpolation-filters="sRGB">
<feFlood flood-opacity="0" result="BackgroundImageFix"/>
<feColorMatrix in="SourceAlpha" type="matrix" values="0 0 0 0 0 0 0 0 0 0 0 0 0 0 0 0 0 0 127 0"/>
<feOffset dy="4"/>
<feGaussianBlur stdDeviation="2"/>
<feColorMatrix type="matrix" values="0 0 0 0 0 0 0 0 0 0 0 0 0 0 0 0 0 0 0.25 0"/>
<feBlend mode="normal" in2="BackgroundImageFix" result="effect1_dropShadow"/>
<feBlend mode="normal" in="SourceGraphic" in2="effect1_dropShadow" result="shape"/>
</filter>
</defs>
</svg>
