<svg width="590" height="650" viewBox="0 0 590 650" fill="none" xmlns="http://www.w3.org/2000/svg">
<g filter="url(#filter0_d)">
<path d="M75.79 628.799C82.2584 621.902 82.0946 611.347 75.4989 603.347C72.2511 599.406 69.167 595.319 66.0193 591.296C66.3559 590.858 66.6925 590.42 67.0291 589.973C71.5506 591.104 76.3086 591.688 80.548 593.494C89.6092 597.353 92.2839 602.964 90.6645 612.707C88.9996 622.723 80.821 633.351 71.1321 637.538C72.9061 634.263 74.4254 631.454 75.9538 628.635L75.79 628.799Z" fill="url(#paint0_linear)"/>
<path d="M24.9618 588.596C26.5903 593.075 28.4917 597.217 29.547 601.569C30.3203 604.771 30.5386 608.328 30.0201 611.567C28.8374 618.92 28.519 625.962 33.6591 632.421C25.0801 631.117 18.2569 623.545 16.2464 613.574C14.0266 602.545 17.2926 593.34 24.9618 588.596Z" fill="url(#paint1_linear)"/>
<path d="M55.1203 588.441C56.1484 589.289 58.0134 590.083 58.0588 590.986C58.259 594.58 58.8958 598.64 57.5494 601.733C52.6549 612.935 48.6793 624.056 54.1742 637.384C40.7553 627.531 38.4446 611.421 47.5057 597.801C49.7528 594.416 52.6458 591.461 55.2477 588.304C55.2477 588.295 55.1203 588.441 55.1203 588.441Z" fill="url(#paint2_linear)"/>
<path d="M43.9485 634.054C34.3142 630.879 30.5479 625.26 31.4758 615.617C31.8397 611.804 31.7305 607.909 32.5311 604.205C33.1862 601.167 34.2415 597.755 36.2611 595.575C39.4998 592.063 43.6847 589.426 47.5602 586.343C50.244 590.548 48.5883 593.677 46.5777 596.651C41.283 604.478 38.8812 612.999 40.6552 622.377C41.3921 626.236 42.784 629.985 43.9485 634.054Z" fill="url(#paint3_linear)"/>
<path d="M78.9468 636.07C83.8412 629.164 92.2201 625.533 95.2314 616.831C98.0152 608.794 101.218 601.058 99.6073 592.218C105.321 594.927 108.996 601.833 108.259 608.511C107.522 615.152 104.884 620.936 99.9439 625.506C94.0305 630.989 87.1982 634.738 78.9468 636.07Z" fill="url(#paint4_linear)"/>
<path d="M21.7779 578.032C20.113 582.794 19.1396 587.957 16.6469 592.236C11.0064 601.897 10.1967 611.211 16.3103 620.817C16.8652 621.693 17.3201 622.632 17.9205 623.709C11.5068 621.939 4.27424 610.298 4.01041 601.696C3.69199 591.205 10.7153 580.614 20.1494 577.348C20.6953 577.576 21.2411 577.804 21.7779 578.032Z" fill="url(#paint5_linear)"/>
<path d="M111.407 614.084C110.87 609.642 110.524 606.202 110.024 602.791C109.205 597.18 106.439 592.674 101.763 589.545C99.4525 588.003 98.5246 586.343 98.752 583.478C98.943 581.015 98.1971 578.488 97.7786 575.304C105.539 576.627 110.551 580.677 114.054 586.999C119.149 596.231 117.229 604.779 111.407 614.084Z" fill="url(#paint6_linear)"/>
<path d="M75.9445 628.653C73.3881 631.399 70.8772 634.191 68.2662 636.873C67.1381 638.04 65.8007 638.998 63.5264 639.628C63.7083 638.132 63.6628 636.572 64.0995 635.167C65.3277 631.226 67.0289 627.422 68.0569 623.435C69.74 616.912 68.2389 610.745 65.5005 604.706C64.3269 602.125 63.9267 599.187 63.8175 596.231C73.3881 605.135 81.3484 614.568 75.7807 628.799C75.7898 628.799 75.9445 628.653 75.9445 628.653Z" fill="url(#paint7_linear)"/>
<path d="M60.6059 601.924C69.6216 614.978 65.2002 627.33 58.6772 641.279C56.9942 638.031 55.3202 635.924 54.7653 633.552C52.4636 623.754 54.8927 611.183 60.6059 601.924Z" fill="url(#paint8_linear)"/>
<path d="M93.3935 611.895C93.1752 598.668 89.7272 594.243 77.4455 590.767C72.0507 589.244 71.2501 588.66 69.2305 584.363C77.5456 585.257 85.6333 585.394 92.3018 590.813C98.5336 595.876 99.0431 603.639 93.3935 611.895Z" fill="url(#paint9_linear)"/>
<path d="M31.0572 596.788C29.0557 592.108 30.8115 585.704 35.3694 581.417C37.2617 579.638 39.4269 578.151 41.5193 576.609C45.0946 573.991 46.3683 574.474 47.4145 578.762C48.2697 582.265 47.3054 585.184 44.3669 587.237C42.1107 588.815 39.5725 589.983 37.3436 591.579C35.142 593.139 33.1678 595.009 31.0572 596.788Z" fill="url(#paint10_linear)"/>
<path d="M83.7321 584.19C70.7591 583.688 63.8358 581.663 64.7729 573.033C72.7059 571.956 82.04 577.448 83.7321 584.19Z" fill="url(#paint11_linear)"/>
<path d="M96.6597 591.798C90.1004 587.583 83.905 582.94 83.6321 573.808C95.0586 576.992 98.7886 582.329 96.6597 591.798Z" fill="url(#paint12_linear)"/>
<path d="M53.774 583.232C52.6278 583.35 51.4724 583.478 50.2351 583.606C50.9356 577.786 54.611 572.631 57.8042 573.234C61.8163 573.991 62.9535 577.339 63.5357 580.44C60.4152 581.271 57.6223 582.009 54.8385 582.748C54.4837 582.903 54.1288 583.068 53.774 583.232Z" fill="url(#paint13_linear)"/>
<path d="M36.0885 576.07C33.1954 580.176 30.6845 583.733 28.21 587.236C24.6802 580.075 25.035 578.579 30.5754 575.03C33.1682 573.37 35.015 573.352 36.0885 576.07Z" fill="url(#paint14_linear)"/>
</g>
<g filter="url(#filter1_d)">
<path d="M119.715 26.16C122.742 22.9326 122.665 17.9933 119.579 14.2494C118.059 12.4052 116.616 10.4926 115.143 8.60998C115.3 8.40506 115.458 8.20015 115.615 7.99097C117.731 8.52033 119.958 8.79355 121.942 9.63882C126.182 11.4446 127.434 14.0701 126.676 18.6294C125.897 23.3168 122.069 28.2903 117.535 30.2498C118.366 28.7172 119.077 27.4023 119.792 26.0832L119.715 26.16Z" fill="url(#paint15_linear)"/>
<path d="M95.9296 7.34644C96.6916 9.44254 97.5814 11.3807 98.0753 13.417C98.4371 14.9154 98.5393 16.5804 98.2966 18.0959C97.7432 21.5367 97.5942 24.8324 99.9996 27.8549C95.9849 27.2444 92.7919 23.7011 91.8511 19.0351C90.8123 13.8738 92.3407 9.56634 95.9296 7.34644Z" fill="url(#paint16_linear)"/>
<path d="M110.043 7.27395C110.524 7.67097 111.397 8.04237 111.418 8.46501C111.511 10.147 111.81 12.0467 111.179 13.4939C108.889 18.7363 107.029 23.9403 109.6 30.1774C103.32 25.5668 102.239 18.0277 106.479 11.654C107.531 10.0702 108.885 8.687 110.102 7.20991C110.102 7.20564 110.043 7.27395 110.043 7.27395Z" fill="url(#paint17_linear)"/>
<path d="M104.814 28.6188C100.306 27.1332 98.5434 24.5035 98.9777 19.9911C99.148 18.2067 99.0969 16.3838 99.4715 14.6505C99.7781 13.2289 100.272 11.6323 101.217 10.612C102.733 8.96844 104.691 7.73469 106.505 6.29175C107.761 8.25978 106.986 9.72406 106.045 11.1158C103.567 14.7786 102.443 18.7659 103.273 23.1545C103.618 24.9603 104.27 26.7149 104.814 28.6188Z" fill="url(#paint18_linear)"/>
<path d="M121.193 29.5625C123.483 26.3309 127.404 24.6318 128.813 20.5591C130.116 16.7981 131.615 13.178 130.861 9.04126C133.535 10.3092 135.255 13.5408 134.91 16.6658C134.565 19.7736 133.33 22.4802 131.019 24.619C128.251 27.1847 125.054 28.9393 121.193 29.5625Z" fill="url(#paint19_linear)"/>
<path d="M94.4395 2.4027C93.6604 4.63114 93.2049 7.04742 92.0384 9.0496C89.3989 13.5705 89.02 17.9292 91.8809 22.4245C92.1406 22.8343 92.3534 23.274 92.6344 23.7778C89.633 22.9496 86.2484 17.5023 86.125 13.4766C85.976 8.5672 89.2626 3.61084 93.6775 2.08252C93.9329 2.18925 94.1883 2.29597 94.4395 2.4027Z" fill="url(#paint20_linear)"/>
<path d="M136.383 19.2739C136.131 17.1949 135.97 15.5855 135.735 13.9889C135.352 11.3634 134.058 9.25448 131.87 7.7902C130.788 7.06873 130.354 6.29176 130.461 4.95128C130.55 3.79864 130.201 2.61612 130.005 1.12622C133.637 1.74523 135.982 3.64069 137.621 6.59914C140.006 10.9194 139.107 14.9195 136.383 19.2739Z" fill="url(#paint21_linear)"/>
<path d="M119.788 26.0916C118.591 27.3766 117.416 28.6829 116.194 29.938C115.666 30.4845 115.041 30.9327 113.976 31.2273C114.061 30.5272 114.04 29.7971 114.245 29.1397C114.819 27.2955 115.615 25.5153 116.096 23.6497C116.884 20.5974 116.182 17.7115 114.9 14.8854C114.351 13.6772 114.164 12.3026 114.113 10.9194C118.591 15.086 122.316 19.5002 119.711 26.1599C119.715 26.1599 119.788 26.0916 119.788 26.0916Z" fill="url(#paint22_linear)"/>
<path d="M112.61 13.5835C116.829 19.6925 114.76 25.4728 111.707 32.0002C110.92 30.4804 110.136 29.4942 109.877 28.3843C108.799 23.7993 109.936 17.9166 112.61 13.5835Z" fill="url(#paint23_linear)"/>
<path d="M127.953 18.2497C127.851 12.0596 126.237 9.9891 120.49 8.36259C117.966 7.64966 117.591 7.37644 116.646 5.36572C120.537 5.78409 124.322 5.84812 127.442 8.38394C130.359 10.7533 130.597 14.3862 127.953 18.2497Z" fill="url(#paint24_linear)"/>
<path d="M98.782 11.1801C97.8454 8.99006 98.6671 5.99319 100.8 3.98674C101.686 3.15427 102.699 2.45842 103.678 1.73695C105.351 0.511734 105.947 0.737993 106.437 2.74444C106.837 4.38376 106.386 5.74985 105.01 6.71039C103.955 7.44893 102.767 7.99537 101.724 8.74245C100.694 9.47246 99.7697 10.3476 98.782 11.1801Z" fill="url(#paint25_linear)"/>
<path d="M123.432 5.2844C117.361 5.0496 114.121 4.10188 114.56 0.0633614C118.272 -0.440386 122.64 2.12958 123.432 5.2844Z" fill="url(#paint26_linear)"/>
<path d="M129.481 8.84482C126.412 6.87253 123.513 4.69958 123.385 0.42627C128.732 1.91617 130.478 4.41356 129.481 8.84482Z" fill="url(#paint27_linear)"/>
<path d="M109.412 4.83609C108.876 4.89159 108.335 4.95136 107.756 5.01112C108.084 2.28747 109.804 -0.124535 111.298 0.157222C113.176 0.511552 113.708 2.07829 113.981 3.52977C112.52 3.91825 111.213 4.26404 109.911 4.60983C109.745 4.68241 109.578 4.75925 109.412 4.83609Z" fill="url(#paint28_linear)"/>
<path d="M101.136 1.48473C99.7826 3.4058 98.6075 5.07073 97.4495 6.71004C95.7977 3.35884 95.9637 2.65872 98.5564 0.998058C99.7698 0.221092 100.634 0.212554 101.136 1.48473Z" fill="url(#paint29_linear)"/>
</g>
<g filter="url(#filter2_d)">
<path d="M563.025 145.322C566.631 141.476 566.54 135.592 562.862 131.131C561.052 128.934 559.332 126.656 557.577 124.413C557.765 124.169 557.952 123.925 558.14 123.675C560.661 124.306 563.314 124.631 565.677 125.639C570.729 127.79 572.22 130.918 571.317 136.35C570.389 141.934 565.829 147.859 560.428 150.194C561.417 148.368 562.264 146.802 563.116 145.23L563.025 145.322Z" fill="url(#paint30_linear)"/>
<path d="M534.687 122.908C535.595 125.405 536.655 127.714 537.243 130.14C537.674 131.925 537.796 133.909 537.507 135.714C536.848 139.814 536.67 143.74 539.536 147.341C534.753 146.614 530.949 142.392 529.828 136.833C528.59 130.684 530.411 125.552 534.687 122.908Z" fill="url(#paint31_linear)"/>
<path d="M551.501 122.821C552.074 123.294 553.114 123.737 553.139 124.24C553.251 126.244 553.606 128.507 552.855 130.232C550.126 136.477 547.91 142.677 550.973 150.108C543.492 144.615 542.204 135.633 547.255 128.039C548.508 126.153 550.121 124.505 551.572 122.745C551.572 122.74 551.501 122.821 551.501 122.821Z" fill="url(#paint32_linear)"/>
<path d="M545.272 148.251C539.901 146.481 537.801 143.348 538.318 137.973C538.521 135.847 538.46 133.675 538.907 131.61C539.272 129.916 539.86 128.014 540.986 126.798C542.792 124.84 545.125 123.37 547.286 121.651C548.782 123.996 547.859 125.741 546.738 127.399C543.786 131.762 542.447 136.513 543.436 141.741C543.847 143.893 544.623 145.983 545.272 148.251Z" fill="url(#paint33_linear)"/>
<path d="M564.784 149.375C567.513 145.525 572.185 143.501 573.863 138.649C575.415 134.168 577.201 129.855 576.303 124.927C579.488 126.437 581.537 130.287 581.127 134.01C580.716 137.713 579.245 140.938 576.491 143.486C573.194 146.542 569.385 148.633 564.784 149.375Z" fill="url(#paint34_linear)"/>
<path d="M532.912 117.018C531.983 119.673 531.441 122.552 530.051 124.937C526.906 130.323 526.455 135.516 529.863 140.872C530.173 141.36 530.426 141.884 530.761 142.484C527.185 141.497 523.153 135.008 523.006 130.211C522.828 124.362 526.744 118.458 532.004 116.637C532.308 116.764 532.612 116.891 532.912 117.018Z" fill="url(#paint35_linear)"/>
<path d="M582.882 137.118C582.582 134.641 582.39 132.724 582.111 130.821C581.654 127.693 580.112 125.181 577.505 123.436C576.217 122.577 575.7 121.651 575.826 120.054C575.933 118.681 575.517 117.272 575.284 115.497C579.61 116.235 582.405 118.493 584.358 122.017C587.198 127.164 586.128 131.93 582.882 137.118Z" fill="url(#paint36_linear)"/>
<path d="M563.111 145.24C561.685 146.771 560.285 148.328 558.83 149.823C558.201 150.474 557.455 151.008 556.187 151.359C556.289 150.525 556.263 149.655 556.507 148.872C557.192 146.675 558.14 144.554 558.713 142.331C559.651 138.695 558.815 135.256 557.288 131.889C556.634 130.45 556.41 128.812 556.35 127.165C561.685 132.129 566.123 137.388 563.019 145.322C563.024 145.322 563.111 145.24 563.111 145.24Z" fill="url(#paint37_linear)"/>
<path d="M554.559 130.338C559.586 137.617 557.121 144.503 553.484 152.28C552.545 150.469 551.612 149.294 551.303 147.972C550.02 142.509 551.374 135.501 554.559 130.338Z" fill="url(#paint38_linear)"/>
<path d="M572.839 135.898C572.717 128.523 570.795 126.056 563.948 124.118C560.94 123.269 560.493 122.943 559.367 120.548C564.003 121.046 568.512 121.123 572.23 124.144C575.705 126.966 575.989 131.295 572.839 135.898Z" fill="url(#paint39_linear)"/>
<path d="M538.085 127.475C536.969 124.865 537.948 121.295 540.489 118.905C541.544 117.913 542.751 117.084 543.918 116.224C545.911 114.765 546.621 115.034 547.205 117.425C547.681 119.378 547.144 121.005 545.506 122.149C544.248 123.029 542.833 123.68 541.59 124.57C540.362 125.44 539.262 126.483 538.085 127.475Z" fill="url(#paint40_linear)"/>
<path d="M567.452 120.451C560.22 120.171 556.36 119.042 556.882 114.231C561.305 113.631 566.509 116.692 567.452 120.451Z" fill="url(#paint41_linear)"/>
<path d="M574.66 124.693C571.003 122.343 567.549 119.754 567.397 114.663C573.767 116.438 575.847 119.413 574.66 124.693Z" fill="url(#paint42_linear)"/>
<path d="M550.75 119.917C550.111 119.983 549.467 120.054 548.777 120.126C549.168 116.881 551.217 114.007 552.997 114.343C555.234 114.765 555.868 116.631 556.192 118.361C554.453 118.823 552.896 119.235 551.344 119.647C551.146 119.734 550.948 119.825 550.75 119.917Z" fill="url(#paint43_linear)"/>
<path d="M540.89 115.924C539.277 118.213 537.877 120.196 536.498 122.149C534.53 118.157 534.728 117.323 537.816 115.344C539.262 114.419 540.292 114.408 540.89 115.924Z" fill="url(#paint44_linear)"/>
</g>
<defs>
<filter id="filter0_d" x="0" y="572.897" width="121" height="76.3813" filterUnits="userSpaceOnUse" color-interpolation-filters="sRGB">
<feFlood flood-opacity="0" result="BackgroundImageFix"/>
<feColorMatrix in="SourceAlpha" type="matrix" values="0 0 0 0 0 0 0 0 0 0 0 0 0 0 0 0 0 0 127 0"/>
<feOffset dy="4"/>
<feGaussianBlur stdDeviation="2"/>
<feColorMatrix type="matrix" values="0 0 0 0 0 0 0 0 0 0 0 0 0 0 0 0 0 0 0.25 0"/>
<feBlend mode="normal" in2="BackgroundImageFix" result="effect1_dropShadow"/>
<feBlend mode="normal" in="SourceGraphic" in2="effect1_dropShadow" result="shape"/>
</filter>
<filter id="filter1_d" x="82.1201" y="0" width="60.8799" height="40.0002" filterUnits="userSpaceOnUse" color-interpolation-filters="sRGB">
<feFlood flood-opacity="0" result="BackgroundImageFix"/>
<feColorMatrix in="SourceAlpha" type="matrix" values="0 0 0 0 0 0 0 0 0 0 0 0 0 0 0 0 0 0 127 0"/>
<feOffset dy="4"/>
<feGaussianBlur stdDeviation="2"/>
<feColorMatrix type="matrix" values="0 0 0 0 0 0 0 0 0 0 0 0 0 0 0 0 0 0 0.25 0"/>
<feBlend mode="normal" in2="BackgroundImageFix" result="effect1_dropShadow"/>
<feBlend mode="normal" in="SourceGraphic" in2="effect1_dropShadow" result="shape"/>
</filter>
<filter id="filter2_d" x="519" y="114.155" width="71" height="46.1243" filterUnits="userSpaceOnUse" color-interpolation-filters="sRGB">
<feFlood flood-opacity="0" result="BackgroundImageFix"/>
<feColorMatrix in="SourceAlpha" type="matrix" values="0 0 0 0 0 0 0 0 0 0 0 0 0 0 0 0 0 0 127 0"/>
<feOffset dy="4"/>
<feGaussianBlur stdDeviation="2"/>
<feColorMatrix type="matrix" values="0 0 0 0 0 0 0 0 0 0 0 0 0 0 0 0 0 0 0.25 0"/>
<feBlend mode="normal" in2="BackgroundImageFix" result="effect1_dropShadow"/>
<feBlend mode="normal" in="SourceGraphic" in2="effect1_dropShadow" result="shape"/>
</filter>
<linearGradient id="paint0_linear" x1="78.5643" y1="589.973" x2="78.5643" y2="637.538" gradientUnits="userSpaceOnUse">
<stop stop-color="#B25740"/>
<stop offset="1" stop-color="#EDE7DB"/>
</linearGradient>
<linearGradient id="paint1_linear" x1="24.6113" y1="588.596" x2="24.6113" y2="632.421" gradientUnits="userSpaceOnUse">
<stop stop-color="#B25740"/>
<stop offset="1" stop-color="#EDE7DB"/>
</linearGradient>
<linearGradient id="paint2_linear" x1="50.2295" y1="588.304" x2="50.2295" y2="637.384" gradientUnits="userSpaceOnUse">
<stop stop-color="#B25740"/>
<stop offset="1" stop-color="#EDE7DB"/>
</linearGradient>
<linearGradient id="paint3_linear" x1="40.1491" y1="586.343" x2="40.1491" y2="634.054" gradientUnits="userSpaceOnUse">
<stop stop-color="#B25740"/>
<stop offset="1" stop-color="#EDE7DB"/>
</linearGradient>
<linearGradient id="paint4_linear" x1="93.6498" y1="592.218" x2="93.6498" y2="636.07" gradientUnits="userSpaceOnUse">
<stop stop-color="#B25740"/>
<stop offset="1" stop-color="#EDE7DB"/>
</linearGradient>
<linearGradient id="paint5_linear" x1="12.8889" y1="577.348" x2="12.8889" y2="623.709" gradientUnits="userSpaceOnUse">
<stop stop-color="#B25740"/>
<stop offset="1" stop-color="#EDE7DB"/>
</linearGradient>
<linearGradient id="paint6_linear" x1="107.389" y1="575.304" x2="107.389" y2="614.084" gradientUnits="userSpaceOnUse">
<stop stop-color="#B25740"/>
<stop offset="1" stop-color="#EDE7DB"/>
</linearGradient>
<linearGradient id="paint7_linear" x1="70.5735" y1="596.231" x2="70.5735" y2="639.628" gradientUnits="userSpaceOnUse">
<stop stop-color="#B25740"/>
<stop offset="1" stop-color="#EDE7DB"/>
</linearGradient>
<linearGradient id="paint8_linear" x1="59.8021" y1="601.924" x2="59.8021" y2="641.279" gradientUnits="userSpaceOnUse">
<stop stop-color="#B25740"/>
<stop offset="1" stop-color="#EDE7DB"/>
</linearGradient>
<linearGradient id="paint9_linear" x1="83.2769" y1="584.363" x2="83.2769" y2="611.895" gradientUnits="userSpaceOnUse">
<stop stop-color="#B25740"/>
<stop offset="1" stop-color="#EDE7DB"/>
</linearGradient>
<linearGradient id="paint10_linear" x1="38.9763" y1="575.001" x2="38.9763" y2="596.788" gradientUnits="userSpaceOnUse">
<stop stop-color="#B25740"/>
<stop offset="1" stop-color="#EDE7DB"/>
</linearGradient>
<linearGradient id="paint11_linear" x1="74.2104" y1="572.897" x2="74.2104" y2="584.19" gradientUnits="userSpaceOnUse">
<stop stop-color="#B25740"/>
<stop offset="1" stop-color="#EDE7DB"/>
</linearGradient>
<linearGradient id="paint12_linear" x1="90.4307" y1="573.808" x2="90.4307" y2="591.798" gradientUnits="userSpaceOnUse">
<stop stop-color="#B25740"/>
<stop offset="1" stop-color="#EDE7DB"/>
</linearGradient>
<linearGradient id="paint13_linear" x1="56.8854" y1="573.186" x2="56.8854" y2="583.606" gradientUnits="userSpaceOnUse">
<stop stop-color="#B25740"/>
<stop offset="1" stop-color="#EDE7DB"/>
</linearGradient>
<linearGradient id="paint14_linear" x1="31.0014" y1="573.886" x2="31.0014" y2="587.236" gradientUnits="userSpaceOnUse">
<stop stop-color="#B25740"/>
<stop offset="1" stop-color="#EDE7DB"/>
</linearGradient>
<linearGradient id="paint15_linear" x1="121.013" y1="7.99097" x2="121.013" y2="30.2498" gradientUnits="userSpaceOnUse">
<stop stop-color="#B25740"/>
<stop offset="1" stop-color="#EDE7DB"/>
</linearGradient>
<linearGradient id="paint16_linear" x1="95.7655" y1="7.34644" x2="95.7655" y2="27.8549" gradientUnits="userSpaceOnUse">
<stop stop-color="#B25740"/>
<stop offset="1" stop-color="#EDE7DB"/>
</linearGradient>
<linearGradient id="paint17_linear" x1="107.754" y1="7.20972" x2="107.754" y2="30.1774" gradientUnits="userSpaceOnUse">
<stop stop-color="#B25740"/>
<stop offset="1" stop-color="#EDE7DB"/>
</linearGradient>
<linearGradient id="paint18_linear" x1="103.036" y1="6.29175" x2="103.036" y2="28.6189" gradientUnits="userSpaceOnUse">
<stop stop-color="#B25740"/>
<stop offset="1" stop-color="#EDE7DB"/>
</linearGradient>
<linearGradient id="paint19_linear" x1="128.073" y1="9.04126" x2="128.073" y2="29.5625" gradientUnits="userSpaceOnUse">
<stop stop-color="#B25740"/>
<stop offset="1" stop-color="#EDE7DB"/>
</linearGradient>
<linearGradient id="paint20_linear" x1="90.2798" y1="2.08252" x2="90.2798" y2="23.7778" gradientUnits="userSpaceOnUse">
<stop stop-color="#B25740"/>
<stop offset="1" stop-color="#EDE7DB"/>
</linearGradient>
<linearGradient id="paint21_linear" x1="134.503" y1="1.12622" x2="134.503" y2="19.2739" gradientUnits="userSpaceOnUse">
<stop stop-color="#B25740"/>
<stop offset="1" stop-color="#EDE7DB"/>
</linearGradient>
<linearGradient id="paint22_linear" x1="117.274" y1="10.9194" x2="117.274" y2="31.2273" gradientUnits="userSpaceOnUse">
<stop stop-color="#B25740"/>
<stop offset="1" stop-color="#EDE7DB"/>
</linearGradient>
<linearGradient id="paint23_linear" x1="112.234" y1="13.5835" x2="112.234" y2="32.0002" gradientUnits="userSpaceOnUse">
<stop stop-color="#B25740"/>
<stop offset="1" stop-color="#EDE7DB"/>
</linearGradient>
<linearGradient id="paint24_linear" x1="123.219" y1="5.36572" x2="123.219" y2="18.2497" gradientUnits="userSpaceOnUse">
<stop stop-color="#B25740"/>
<stop offset="1" stop-color="#EDE7DB"/>
</linearGradient>
<linearGradient id="paint25_linear" x1="102.488" y1="0.984375" x2="102.488" y2="11.1801" gradientUnits="userSpaceOnUse">
<stop stop-color="#B25740"/>
<stop offset="1" stop-color="#EDE7DB"/>
</linearGradient>
<linearGradient id="paint26_linear" x1="118.976" y1="0" x2="118.976" y2="5.2844" gradientUnits="userSpaceOnUse">
<stop stop-color="#B25740"/>
<stop offset="1" stop-color="#EDE7DB"/>
</linearGradient>
<linearGradient id="paint27_linear" x1="126.567" y1="0.42627" x2="126.567" y2="8.84482" gradientUnits="userSpaceOnUse">
<stop stop-color="#B25740"/>
<stop offset="1" stop-color="#EDE7DB"/>
</linearGradient>
<linearGradient id="paint28_linear" x1="110.868" y1="0.134766" x2="110.868" y2="5.01112" gradientUnits="userSpaceOnUse">
<stop stop-color="#B25740"/>
<stop offset="1" stop-color="#EDE7DB"/>
</linearGradient>
<linearGradient id="paint29_linear" x1="98.7558" y1="0.462402" x2="98.7558" y2="6.71004" gradientUnits="userSpaceOnUse">
<stop stop-color="#B25740"/>
<stop offset="1" stop-color="#EDE7DB"/>
</linearGradient>
<linearGradient id="paint30_linear" x1="564.571" y1="123.675" x2="564.571" y2="150.194" gradientUnits="userSpaceOnUse">
<stop stop-color="#B25740"/>
<stop offset="1" stop-color="#EDE7DB"/>
</linearGradient>
<linearGradient id="paint31_linear" x1="534.491" y1="122.908" x2="534.491" y2="147.341" gradientUnits="userSpaceOnUse">
<stop stop-color="#B25740"/>
<stop offset="1" stop-color="#EDE7DB"/>
</linearGradient>
<linearGradient id="paint32_linear" x1="548.774" y1="122.745" x2="548.774" y2="150.108" gradientUnits="userSpaceOnUse">
<stop stop-color="#B25740"/>
<stop offset="1" stop-color="#EDE7DB"/>
</linearGradient>
<linearGradient id="paint33_linear" x1="543.154" y1="121.651" x2="543.154" y2="148.251" gradientUnits="userSpaceOnUse">
<stop stop-color="#B25740"/>
<stop offset="1" stop-color="#EDE7DB"/>
</linearGradient>
<linearGradient id="paint34_linear" x1="572.982" y1="124.927" x2="572.982" y2="149.375" gradientUnits="userSpaceOnUse">
<stop stop-color="#B25740"/>
<stop offset="1" stop-color="#EDE7DB"/>
</linearGradient>
<linearGradient id="paint35_linear" x1="527.956" y1="116.637" x2="527.956" y2="142.484" gradientUnits="userSpaceOnUse">
<stop stop-color="#B25740"/>
<stop offset="1" stop-color="#EDE7DB"/>
</linearGradient>
<linearGradient id="paint36_linear" x1="580.642" y1="115.497" x2="580.642" y2="137.118" gradientUnits="userSpaceOnUse">
<stop stop-color="#B25740"/>
<stop offset="1" stop-color="#EDE7DB"/>
</linearGradient>
<linearGradient id="paint37_linear" x1="560.116" y1="127.165" x2="560.116" y2="151.359" gradientUnits="userSpaceOnUse">
<stop stop-color="#B25740"/>
<stop offset="1" stop-color="#EDE7DB"/>
</linearGradient>
<linearGradient id="paint38_linear" x1="554.111" y1="130.338" x2="554.111" y2="152.28" gradientUnits="userSpaceOnUse">
<stop stop-color="#B25740"/>
<stop offset="1" stop-color="#EDE7DB"/>
</linearGradient>
<linearGradient id="paint39_linear" x1="567.199" y1="120.548" x2="567.199" y2="135.898" gradientUnits="userSpaceOnUse">
<stop stop-color="#B25740"/>
<stop offset="1" stop-color="#EDE7DB"/>
</linearGradient>
<linearGradient id="paint40_linear" x1="542.5" y1="115.328" x2="542.5" y2="127.475" gradientUnits="userSpaceOnUse">
<stop stop-color="#B25740"/>
<stop offset="1" stop-color="#EDE7DB"/>
</linearGradient>
<linearGradient id="paint41_linear" x1="562.144" y1="114.155" x2="562.144" y2="120.451" gradientUnits="userSpaceOnUse">
<stop stop-color="#B25740"/>
<stop offset="1" stop-color="#EDE7DB"/>
</linearGradient>
<linearGradient id="paint42_linear" x1="571.187" y1="114.663" x2="571.187" y2="124.693" gradientUnits="userSpaceOnUse">
<stop stop-color="#B25740"/>
<stop offset="1" stop-color="#EDE7DB"/>
</linearGradient>
<linearGradient id="paint43_linear" x1="552.485" y1="114.316" x2="552.485" y2="120.126" gradientUnits="userSpaceOnUse">
<stop stop-color="#B25740"/>
<stop offset="1" stop-color="#EDE7DB"/>
</linearGradient>
<linearGradient id="paint44_linear" x1="538.054" y1="114.706" x2="538.054" y2="122.149" gradientUnits="userSpaceOnUse">
<stop stop-color="#B25740"/>
<stop offset="1" stop-color="#EDE7DB"/>
</linearGradient>
</defs>
</svg>
