<svg width="48" height="82" viewBox="0 0 48 82" fill="none" xmlns="http://www.w3.org/2000/svg">
<circle cx="29" cy="63" r="19" fill="url(#paint0_radial)"/>
<path d="M33.1459 47.142C32.9681 46.9525 32.7125 46.9638 32.4904 46.8935C31.9558 46.7257 31.4331 46.5291 30.8956 46.2466C31.0591 46.7858 30.9646 47.2772 30.7859 47.7521C30.5352 48.4159 30.1428 48.9996 29.7384 49.5792C29.5549 49.8422 29.3412 50.0863 29.2432 50.4075C29.0848 50.9285 29.2653 51.3367 29.6217 51.6984C29.6744 51.7531 29.7364 51.7979 29.7927 51.8494C29.8374 51.8916 29.8976 51.9363 29.8404 52.0045C29.7905 52.0626 29.7308 52.0423 29.6737 52.0064C29.0747 51.6376 28.5364 51.2007 28.1161 50.6294C27.6048 49.9354 27.367 49.153 27.3378 48.2963C27.3332 48.1833 27.3287 48.0668 27.3256 47.8897C27.1874 48.3875 27.0762 48.8329 26.834 49.2265C26.4783 49.8051 25.9573 50.2209 25.4171 50.6063C24.7147 51.1083 24.001 51.5941 23.2857 52.0763C22.7754 52.4198 22.5763 52.9215 22.5173 53.4996C22.4726 53.9345 22.4938 54.3693 22.5759 54.802C22.5856 54.8493 22.5954 54.8966 22.5981 54.9454C22.5993 54.9905 22.629 55.0528 22.5707 55.0741C22.507 55.0986 22.4931 55.0302 22.4743 54.9911C22.4213 54.8722 22.3631 54.7547 22.3243 54.6313C21.9982 53.6067 21.8088 52.5562 21.7384 51.4857C21.7313 51.3865 21.6372 51.2585 21.7938 51.1815C21.8063 51.1752 21.8089 51.1232 21.7962 51.1018C21.5834 50.7145 21.6755 50.3028 21.715 49.9024C21.7793 49.2533 22.011 48.658 22.3516 48.1028C22.9231 47.1726 23.6977 46.4453 24.5995 45.8442C24.6103 45.8361 24.6228 45.8298 24.6353 45.8217C24.8408 45.7056 24.912 45.5687 24.8455 45.3068C24.6941 44.7023 24.5301 44.1076 24.1868 43.5558C23.8801 43.8871 23.5573 44.1951 23.1886 44.4486C22.678 44.7973 22.1646 45.132 21.5756 45.3501C21.084 45.5314 20.6484 45.8388 20.1959 46.102C19.8079 46.3269 19.4182 46.5499 19.0285 46.7729C18.9928 46.7936 18.9522 46.8072 18.9135 46.8173C18.8572 46.8318 18.7884 46.8873 18.7412 46.8259C18.6876 46.7538 18.7547 46.6982 18.8022 46.6503C18.954 46.4985 19.109 46.352 19.2607 46.2018C19.7028 45.7664 19.9484 45.2047 20.2274 44.6672C20.5528 44.0367 20.8035 43.3729 21.044 42.7069C21.1329 42.4599 21.154 42.1834 21.245 41.9295C21.433 41.4065 21.7724 41.0127 22.2303 40.7116C22.329 40.6472 22.4261 40.581 22.5264 40.5202C22.7376 40.3939 22.8477 40.2417 22.8704 39.967C22.9143 39.4124 23.1349 38.898 23.367 38.3946C23.5055 38.0946 23.6526 37.7967 23.8013 37.5007C23.836 37.4331 23.8447 37.3641 23.8324 37.2993C23.7891 37.0924 23.8763 36.9147 23.9629 36.7474C24.2671 36.1592 24.3496 35.5284 24.3463 34.8777C24.3454 34.7927 24.322 34.7412 24.2481 34.694C24.1523 34.6319 24.068 34.5495 23.963 34.4644C23.9009 34.7301 23.9224 34.9897 23.8625 35.2451C23.7736 35.6275 23.6032 35.9397 23.2996 36.1758C22.8607 36.5142 22.5967 36.9623 22.4059 37.4712C22.235 37.9292 22.0251 38.3713 21.5944 38.6494C21.4957 38.7138 21.5315 38.7937 21.5346 38.8685C21.5552 39.4524 21.5238 40.0337 21.37 40.6001C21.1346 41.4746 20.5699 42.0998 19.8074 42.5571C19.5049 42.7377 19.1976 42.9111 18.8903 43.0846C18.3775 43.3742 18.0436 43.829 17.7514 44.319C17.5846 44.5967 17.4277 44.8819 17.3031 45.1826C17.2853 45.2251 17.2777 45.3062 17.1958 45.2778C17.1191 45.2513 17.1536 45.1871 17.1632 45.1356C17.2778 44.588 17.3907 44.0421 17.6064 43.5205C17.7648 43.1365 17.7583 42.7198 17.7756 42.313C17.8082 41.5028 17.7783 40.6928 17.7258 39.8852C17.6947 39.4048 17.8606 38.9761 18.1177 38.5625C17.6003 38.432 17.1088 38.2699 16.5785 38.255C16.2787 38.2467 15.9791 38.1672 15.6799 38.1121C15.6043 38.0978 15.5574 38.0989 15.5037 38.1655C14.8426 38.9802 14.305 39.8583 14.1349 40.9148C14.0277 41.5877 14.0471 42.2635 14.1151 42.9383C14.1555 43.3377 14.1715 43.7375 14.1859 44.1372C14.211 44.8706 14.4862 45.5317 14.8285 46.1685C14.922 46.3433 15.0261 46.5134 15.1393 46.71C14.9788 46.6931 14.8789 46.61 14.7748 46.5422C14.1985 46.1711 13.8032 45.653 13.5135 45.038C13.2614 44.503 12.9826 43.9805 12.7286 43.4471C12.3869 42.7288 12.3178 41.9741 12.6289 41.2163C12.6665 41.1245 12.6447 41.0418 12.6162 40.9554C12.5158 40.6432 12.4539 40.3261 12.5227 39.9965C12.6287 39.4832 12.9838 39.156 13.5016 39.1078C13.723 39.0879 13.9405 39.0435 14.1503 38.9778C14.3549 38.9137 14.5356 38.8066 14.6523 38.594C14.7633 38.3915 14.925 38.2158 15.0684 38.0236C14.9477 37.9394 14.7977 37.989 14.686 37.9001C14.7366 37.8263 14.8174 37.8408 14.8874 37.8288C15.1624 37.7804 15.4109 37.7045 15.6101 37.4736C15.942 37.0897 16.4054 36.8844 16.8361 36.6392C16.8951 36.6057 16.9509 36.5669 17.0496 36.5026C16.7839 36.4717 16.5913 36.5746 16.4056 36.6432C15.7601 36.8792 15.0908 37.0047 14.4153 37.116C14.0705 37.173 13.7213 37.216 13.3918 37.3483C13.2111 37.4207 13.0116 37.4192 12.818 37.4041C12.6209 37.3889 12.4317 37.4243 12.2424 37.4615C12.174 37.4754 12.1003 37.4907 12.0625 37.553C11.8319 37.9229 11.4408 38.0712 11.0858 38.2613C10.2902 38.6857 9.45031 38.7192 8.57087 38.5755C7.59503 38.4165 6.67856 38.08 5.75637 37.7537C4.98592 37.4803 4.19052 37.4241 3.38596 37.4455C2.60772 37.4614 1.84037 37.5697 1.07289 37.6469C0.989191 37.6547 0.907223 37.6627 0.831363 37.6189C0.832069 37.6051 0.832774 37.5913 0.83348 37.5774C1.36236 37.3129 1.93726 37.167 2.48755 36.9591C3.19169 36.6949 3.8972 36.4377 4.59219 36.1487C5.49108 35.7747 6.35336 35.3016 7.36575 35.2544C7.77106 35.2351 8.16614 35.2466 8.5596 35.3239C9.27962 35.4629 9.88022 35.8683 10.5159 36.1973C10.9876 36.4417 11.441 36.7736 12.0272 36.6109C12.0519 36.6035 12.0827 36.612 12.1101 36.6186C12.5119 36.7015 12.9204 36.7223 13.3256 36.7742C14.0756 36.8697 14.8035 36.7177 15.5211 36.5635C15.9071 36.4808 16.3017 36.3656 16.6725 36.2058C17.0061 36.0632 17.3612 35.972 17.6701 35.7691C17.7922 35.6886 17.9372 35.6683 18.0864 35.6689C18.4143 35.6718 18.7364 35.6171 19.0303 35.4672C19.4865 35.2337 19.8499 34.8793 20.1982 34.5154C20.8453 33.8371 21.4792 33.1477 22.1164 32.4602C22.2008 32.3691 22.3318 32.3185 22.3825 32.1407C21.82 32.3844 21.2603 32.4704 20.6943 32.5439C20.1074 32.6198 19.5215 32.6402 18.9404 32.5343C18.0343 32.3684 17.1858 32.0268 16.3554 31.634C15.964 31.4493 15.5804 31.2475 15.1376 31.1833C14.3418 31.0682 13.536 31.0462 12.7392 30.9483C12.6547 30.9388 12.5583 30.9565 12.4968 30.8701C12.5289 30.8179 12.5793 30.817 12.6265 30.8108C13.126 30.7477 13.6204 30.6498 14.1133 30.5465C14.6255 30.439 15.1386 30.3125 15.6311 30.1503C16.2682 29.9416 16.892 29.6871 17.5445 29.5174C17.9331 29.4158 17.9481 29.3957 17.8731 28.9947C17.8703 28.9806 17.8657 28.9683 17.863 28.9542C17.649 28.0447 17.3665 27.1525 17.1526 26.243C16.8932 25.1351 16.7913 24.0369 17.2131 22.9447C17.2181 22.9137 17.2232 22.8828 17.2283 22.8501C17.2085 22.8647 17.1904 22.8794 17.1706 22.894C17.0204 23.0147 16.8766 23.1461 16.7166 23.2542C15.9152 23.7928 15.1623 24.4015 14.3527 24.9293C14.0637 25.1175 13.7843 25.3236 13.4871 25.501C13.4353 25.5313 13.3739 25.6115 13.3066 25.5369C13.2506 25.4768 13.3159 25.4229 13.3462 25.3724C13.6073 24.9485 13.8293 24.507 14.0279 24.0505C14.1183 23.8435 14.1897 23.6337 14.2474 23.4198C14.3225 23.1391 14.3512 22.8474 14.4023 22.5603C14.496 22.0169 14.6512 21.4905 14.8764 20.9867C14.8206 20.9596 14.7861 20.989 14.7506 21.0046C14.0899 21.3023 13.3909 21.4644 12.6767 21.5512C12.2298 21.6047 11.778 21.5817 11.3292 21.6039C10.1633 21.6659 9.01309 21.8641 7.86975 22.0972C7.52255 22.168 7.17645 22.251 6.83417 22.3272C6.81476 22.2655 6.83832 22.2459 6.87062 22.225C7.073 22.1017 7.2803 21.9839 7.47793 21.8517C8.30437 21.2988 9.12607 20.737 9.90877 20.1229C10.3589 19.7693 10.7879 19.387 11.2527 19.0533C11.8398 18.6322 12.5228 18.4085 13.2146 18.2165C14.3166 17.9101 15.459 17.8313 16.5824 17.6474C16.8432 17.6052 17.0834 17.522 17.3102 17.3965C17.7317 17.1613 17.9634 16.7689 18.1464 16.3462C18.3669 15.8318 18.6426 15.3601 19.0894 15.0047C19.2214 14.9004 19.3485 14.7889 19.4827 14.676C19.4477 14.6482 19.433 14.6301 19.4159 14.6241C19.115 14.5012 18.8417 14.3485 18.7338 14.0133C18.7188 13.9675 18.6911 13.9661 18.6581 13.9661C18.4378 13.9653 18.2161 13.9557 18.0082 14.051C17.6227 14.2273 17.3322 14.5127 17.0393 14.8117C16.2777 15.59 15.2831 15.7666 14.2511 15.8233C13.5829 15.8603 12.9262 15.7384 12.2646 15.6787C11.4095 15.6021 10.5548 15.5169 9.69963 15.4421C9.0794 15.3879 8.45664 15.3492 7.83433 15.3019C7.73749 15.2952 7.5827 15.3359 7.56939 15.2225C7.55729 15.1195 7.71448 15.0998 7.81126 15.0735C8.39015 14.9174 8.97353 14.7754 9.55104 14.6122C10.4912 14.3479 11.405 14.0215 12.2497 13.5198C12.5521 13.3392 12.8687 13.1888 13.2193 13.1199C13.4314 13.0787 13.6445 13.0496 13.871 13.0334C13.8516 13.0047 13.8455 12.9887 13.8354 12.983C12.8284 12.5153 11.9967 11.8085 11.219 11.0316C10.9201 10.7336 10.6522 10.4059 10.3131 10.1475C9.47289 9.50616 8.60826 8.90175 7.72499 8.32241C7.54033 8.20023 7.35948 8.07132 7.16341 7.93468C7.24376 7.8902 7.28891 7.92373 7.32983 7.93796C7.93849 8.15114 8.55513 8.34391 9.17411 8.52465C10.5967 8.94065 12.0259 9.32923 13.5116 9.4622C13.6937 9.4975 13.8771 9.50858 14.0619 9.49198C14.1103 9.49618 14.1603 9.5022 14.2087 9.5064C14.3024 9.53894 14.4013 9.54051 14.5065 9.51812C14.4605 9.50189 14.4145 9.48566 14.3701 9.47126C13.6884 9.29599 13.0891 8.96706 12.5957 8.46658C12.0133 7.87482 11.7039 7.13563 11.5452 6.333C11.4526 5.87029 11.4422 5.39268 11.3722 4.92766C11.2372 4.03602 10.9047 3.20372 10.5457 2.38394C10.2798 1.77708 10.0034 1.17489 9.62344 0.628146C9.55879 0.534641 9.435 0.478021 9.4385 0.34115C9.56312 0.347502 9.68775 0.353854 9.81237 0.360205C9.81225 0.39663 9.8434 0.398216 9.86719 0.408102C10.6849 0.741228 11.483 1.12019 12.2465 1.56332C13.7331 2.42669 14.9097 3.61603 15.7961 5.08722C16.0554 5.51678 16.2196 5.97273 16.2226 6.4916C16.2274 7.04524 16.4336 7.56232 16.609 8.10384C16.7253 7.96752 16.7066 7.78961 16.8462 7.70479C16.8746 7.76174 16.8512 7.81259 16.8193 7.85954C16.6276 8.14643 16.6729 8.4159 16.8827 8.69201C16.977 8.40711 17.081 8.13831 17.2239 7.88711C17.262 7.82139 17.2695 7.70728 17.3963 7.73977C17.2786 7.97144 17.1184 8.18706 17.0552 8.44058C17.0157 8.60164 16.8729 8.74876 16.9401 8.9274C17.0256 9.15729 17.1341 9.37794 17.2302 9.60316C17.4659 10.153 17.8407 10.6301 18.0462 11.1957C18.0963 11.3353 18.1417 11.5007 18.2692 11.587C18.6199 11.8217 18.7772 12.2079 19.0268 12.5207C18.9924 12.6161 18.9797 12.73 18.9171 12.8014C18.8136 12.9245 18.892 12.9875 18.9793 13.011C19.1574 13.0565 19.2914 13.1518 19.4349 13.2632C19.6352 13.4209 19.8553 13.2898 20.0567 13.2186C20.2246 13.1595 20.2877 12.8417 20.1662 12.7054C20.2165 12.6386 20.3048 12.6084 20.3122 12.496C20.3298 12.2194 20.3437 11.946 20.3283 11.6694C20.2944 11.0414 20.1712 10.4279 20.0569 9.81142C20.0473 9.76062 20.0284 9.72322 20.0821 9.69126C20.0962 9.72147 20.119 9.75039 20.1243 9.78189C20.1973 10.1881 20.286 10.5934 20.338 11.002C20.416 11.6183 20.4728 12.2388 20.3113 12.8551C20.2898 12.9355 20.3009 13.0246 20.2953 13.1336C20.7736 12.9428 21.2182 12.7313 21.6852 12.592C22.057 12.4809 22.1493 12.2705 22.136 11.9194C22.1265 11.6621 22.1105 11.3976 22.1635 11.1401C22.2396 11.2828 22.2263 11.4417 22.2272 11.5927C22.2277 11.8564 22.2037 12.1223 22.1894 12.4026C22.5382 12.3007 22.8561 12.192 23.1888 12.1344C23.77 12.0339 24.3508 12.0461 24.9301 12.1537C24.9696 12.1609 25.0226 12.1775 25.0434 12.1439C25.0604 12.117 25.0439 12.0658 25.0337 12.0272C24.9796 11.8284 24.8406 11.6634 24.8042 11.4568C24.8904 11.4335 24.8881 11.5132 24.9069 11.554C24.976 11.6963 25.038 11.8417 25.1017 11.9872C25.1673 12.1311 25.3656 12.2228 25.5083 12.1815C25.5682 12.1637 25.5613 12.1286 25.5495 12.0881C25.4817 11.8522 25.4297 11.6119 25.3196 11.3894L25.3212 11.3913C25.1967 10.9408 24.951 10.5518 24.7036 10.1628C24.6699 10.109 24.5751 10.0625 24.6473 9.97252C24.9693 10.3637 25.1912 10.8104 25.3773 11.2779C25.4789 11.5329 25.5645 11.794 25.6148 12.0654C25.6394 12.1968 25.6916 12.2619 25.8286 12.2984C26.1369 12.3783 26.4253 12.5075 26.6659 12.7245C26.767 12.8164 26.8843 12.864 27.0199 12.7928C27.0028 12.9238 26.9991 12.9271 27.1688 13.0034C27.4334 13.1227 27.698 13.242 27.9686 13.3477C28.7783 13.6683 29.5824 13.9955 30.2559 14.5711C30.4555 14.7409 30.6715 14.8942 30.9154 15.0801C30.038 15.0666 29.213 15.0471 28.3983 15.1981C27.4278 15.3777 26.4582 15.5728 25.4878 15.7506C24.7328 15.8891 23.9677 15.9525 23.202 15.995C23.0384 16.004 22.952 16.0308 22.881 16.1642C22.2882 17.2738 21.9491 18.4466 21.9815 19.7164C22.0081 20.7604 22.1912 21.7655 22.6781 22.6993C22.8172 22.9649 22.9138 23.2491 23.1117 23.4865C23.2098 23.6042 23.348 23.7188 23.3491 23.9011C23.2196 23.8546 23.1942 23.7058 23.0571 23.6051C23.0453 24.04 22.8509 24.3805 22.6565 24.7228C22.4164 25.1442 22.2461 25.5901 22.1642 26.0734C22.0218 26.9266 22.0469 27.7623 22.3401 28.5805C22.3614 28.6405 22.4138 28.7022 22.3479 28.7682C22.3157 28.7527 22.2867 28.6419 22.2525 28.7668C22.2101 28.9191 22.1642 29.0711 22.1251 29.2235C22.0408 29.5506 21.9633 29.8797 21.8772 30.2067C21.86 30.2717 21.8347 30.3589 21.7519 30.3495C21.6517 30.3409 21.6744 30.2362 21.6553 30.1676C21.6494 30.1482 21.654 30.1259 21.6551 30.1051C21.6628 29.6128 21.5937 29.1305 21.4967 28.6502C21.3165 27.758 21.0413 26.8939 20.7326 26.0386C20.4925 25.3706 20.3539 24.6852 20.3868 23.9704C20.4231 23.1916 20.6869 22.4747 20.9901 21.7702C21.1339 21.434 21.3015 21.1077 21.4214 20.7634C21.6123 20.218 21.6776 19.6523 21.6307 19.074C21.5837 18.4991 21.5402 17.9227 21.2985 17.3864C21.3773 17.3384 21.3962 17.4105 21.4167 17.4514C21.5017 17.6223 21.5795 17.798 21.6627 17.9705C21.7742 18.2 21.8468 18.4448 21.9492 18.6825C21.9887 18.3844 22.0757 18.1061 22.1406 17.8214C22.1806 17.6482 22.3313 17.4495 22.1322 17.271C22.145 17.2578 22.1578 17.2446 22.1706 17.2314C22.2296 17.2656 22.2749 17.3304 22.3233 17.1993C22.4021 16.9812 22.2452 16.824 22.1436 16.7408C21.8439 16.493 21.6772 16.1532 21.5217 15.833C21.4164 15.6195 21.2852 15.6388 21.1351 15.5548C21.1759 15.7061 21.208 15.8257 21.2401 15.9453C21.224 15.9549 21.2096 15.9646 21.1934 15.9759C21.164 15.9067 21.1344 15.8393 21.1033 15.77C21.0643 15.6831 21.0496 15.5626 20.9826 15.5158C20.8285 15.4073 20.6499 15.3358 20.4537 15.2356C20.5409 15.6026 20.6405 15.9286 20.756 16.2502C20.7879 16.3403 20.8737 16.4262 20.804 16.5337C20.6771 16.3347 20.6406 16.0969 20.5373 15.8765C20.2154 16.3372 19.9419 16.8003 19.7462 17.3021C19.5784 17.7342 19.4709 18.1763 19.5298 18.6546C19.5691 18.9724 19.6185 19.2976 19.5673 19.6211C19.4801 20.1735 19.6042 20.702 19.7261 21.2374C19.9263 22.1098 20.1882 22.9645 20.2846 23.8646C20.3816 24.7543 20.2069 25.5607 19.7976 26.3379C19.5767 26.7568 19.2488 27.0958 18.9694 27.4701C18.5708 28.0049 18.3571 28.6221 18.1909 29.2607C18.1479 29.425 18.192 29.4099 18.3159 29.3971C19.2982 29.2928 20.1935 29.5345 21.0145 30.076C21.4997 30.3956 21.9924 30.6705 22.6154 30.5687C22.9269 30.5169 23.0899 30.3483 23.0235 30.0517C23.0536 30.0064 23.1224 30.1209 23.147 30.0129C23.1915 29.8191 23.3443 29.8529 23.4779 29.8858C23.6253 29.9228 23.6821 30.0332 23.6763 30.1821C23.6732 30.2774 23.6174 30.3491 23.5821 30.4306C23.4814 30.6684 23.4565 30.9186 23.5627 31.1513C23.6469 31.3378 23.7275 31.5275 23.7993 31.7185C23.8617 31.89 23.8605 32.1172 24.151 32.0019C24.1687 31.9941 24.2001 32.0252 24.2259 32.03C24.4713 32.0841 24.7207 32.0604 24.954 32.0792C24.957 31.9527 24.7813 31.9264 24.861 31.7934C25.0209 32.0254 25.2182 32.1048 25.5071 32.0207C25.8241 31.9293 26.1469 31.8607 26.4611 31.757C26.6217 31.7045 26.7956 31.696 26.957 31.5949C26.8404 31.4988 26.7375 31.4068 26.6271 31.3248C26.0119 30.8667 25.3873 30.422 24.8735 29.8441C24.3665 29.2718 23.9802 28.645 23.9408 27.8519C23.9243 27.5284 23.9496 27.2035 23.8913 26.8831C24.0202 26.907 24.0347 27.0309 24.0806 27.1182C24.4073 27.7213 24.8471 28.2173 25.4456 28.5618C25.4675 28.575 25.5038 28.6463 25.534 28.5646C25.5519 28.5533 25.568 28.5437 25.586 28.5325C25.7998 29.0691 26.0066 29.6087 26.2328 30.1407C26.3537 30.4244 26.4867 30.7088 26.7277 30.9188C26.8955 31.0644 27.0398 31.2296 27.1876 31.395C27.2483 31.4623 27.3231 31.5962 27.4043 31.3992C27.428 31.3414 27.4926 31.369 27.5311 31.3952C27.6082 31.4494 27.6696 31.4023 27.7297 31.381C27.5634 31.1713 27.3546 31.0115 27.1269 30.8836C26.9311 30.7748 26.7735 30.6314 26.6848 30.4326C26.4605 29.9302 26.2539 29.4201 26.042 28.9131C26.0296 28.8847 26.0159 28.8476 26.0537 28.82C26.151 28.9204 26.254 29.0107 26.385 29.0625C26.8696 29.2572 27.3582 29.4434 27.8654 29.5699C27.9562 29.5919 28.0537 29.6211 28.0374 29.4971C28.0236 29.394 28.2032 29.2401 27.9634 29.1793C27.7167 29.1165 27.4602 29.1103 27.2216 29.0583C26.8424 28.9747 26.4507 28.8628 26.1476 28.5785C26.0499 28.4868 25.9939 28.5307 25.9774 28.6496C25.8806 28.6412 25.8783 28.5509 25.8519 28.4906C25.4755 27.6005 24.9717 26.7959 24.3318 26.0711C24.0119 25.7078 23.7728 25.2932 23.9103 24.7728C23.9382 24.6684 23.8762 24.5924 23.8564 24.5029C23.9151 24.4746 23.9439 24.5229 23.977 24.5541C24.3731 24.9213 24.7564 25.2982 25.228 25.579C25.6491 25.8294 26.0799 26.0596 26.5328 26.2301C27.8133 26.71 29.1314 26.8275 30.4737 26.5385C31.2335 26.3743 31.9533 26.1091 32.6214 25.7008C32.8919 25.5342 33.1202 25.3116 33.397 25.1574C33.3954 25.2233 33.342 25.25 33.302 25.2844C32.7346 25.7603 32.0939 26.1076 31.3945 26.3478C31.262 26.3931 31.1216 26.4241 30.9925 26.506C31.047 26.5608 31.0861 26.6096 31.1345 26.6468C31.2796 26.7635 31.4266 26.8751 31.5753 26.9885C32.639 27.806 33.7754 28.4919 35.0629 28.9028C35.162 28.9338 35.3438 28.9414 35.3242 29.0531C35.3002 29.1855 35.1244 29.1609 35.0051 29.1514C34.5351 29.1118 34.0636 29.1364 33.5927 29.1488C32.7082 29.1731 31.8212 29.2112 30.9396 29.109C30.1772 29.0198 29.4251 28.8618 28.6774 28.6883C28.463 28.6375 28.2783 28.5847 28.2368 28.8879C28.2368 28.8879 28.2127 28.885 28.2006 28.8826C28.1926 28.8024 28.2358 28.737 28.2603 28.6654C28.2848 28.5937 28.2427 28.569 28.1774 28.5553C28.0966 28.5408 28.1008 28.5948 28.1071 28.6402C28.1291 28.7888 28.0986 28.9434 28.159 29.087C28.1555 29.1562 28.1623 29.2259 28.1468 29.2928C28.0097 29.9051 27.985 30.5249 28.0121 31.1508C28.0193 31.316 28.0692 31.3584 28.2222 31.3194C28.4736 31.2559 28.7316 31.2673 28.9864 31.2733C29.0505 31.2749 29.1411 31.2674 29.1611 31.3516C29.1828 31.4378 29.0985 31.456 29.0428 31.4948C28.8882 31.5997 28.7418 31.7137 28.5937 31.8276C28.5287 31.878 28.5091 31.9221 28.5962 31.9838C29.3417 32.5076 30.1623 32.6812 31.0149 32.3656C31.9824 32.0072 32.881 32.0808 33.763 32.582C34.1358 32.7935 34.5029 33.0135 34.8739 33.225C36.1015 33.9259 37.4152 34.4023 38.7933 34.7033C38.8637 34.719 38.9286 34.705 38.9925 34.677C39.153 34.7615 39.3298 34.7653 39.504 34.7863C39.5489 34.7921 39.6066 34.7829 39.6117 34.8526C39.6172 34.9153 39.5678 34.9319 39.5234 34.9504C39.3746 35.0105 39.2178 35.0233 39.0608 35.0396C38.8375 35.0612 38.6172 35.0933 38.4377 35.2455C38.3847 35.1283 38.2993 35.202 38.2309 35.2176C37.5044 35.3749 36.7842 35.581 36.05 35.6859C34.7947 35.8682 33.5281 35.8644 32.2635 35.7531C31.8471 35.7163 31.4578 35.5923 31.1478 35.273C30.5179 34.625 29.9726 33.9189 29.5661 33.1088C29.4527 32.8827 29.301 32.6928 29.0583 32.5851C28.8429 32.4891 28.6483 32.356 28.4594 32.2162C28.4126 32.1809 28.3618 32.1211 28.295 32.1732C28.2316 32.2237 28.2182 32.2838 28.2448 32.3736C28.6196 33.6348 29.316 34.68 30.3485 35.4976C30.4052 35.5422 30.5048 35.5629 30.4819 35.6727C30.3922 35.6612 30.359 35.5641 30.2599 35.533C30.3892 36.1624 30.3047 36.8 30.4118 37.423C30.5268 38.0933 30.8845 38.6337 31.3242 39.1315C31.5063 39.3385 31.5114 39.3405 31.667 39.1143C32.2801 38.2191 33.1391 37.7425 34.2011 37.6058C34.5959 37.5548 34.9938 37.5455 35.3906 37.5224C36.1304 37.4786 36.8679 37.5127 37.6054 37.5138C38.4139 37.5169 39.2227 37.5824 40.0282 37.679C40.0937 37.6875 40.1983 37.6772 40.2029 37.7573C40.207 37.8477 40.0944 37.8107 40.0373 37.8408C39.9838 37.8693 39.9087 37.8446 39.8742 37.9088C40.1712 38.0731 40.5144 38.1496 40.7693 38.3916C40.7182 38.4063 40.6743 38.3833 40.6321 38.3603C40.4427 38.2622 40.2534 38.1623 40.0642 38.0625C39.863 37.9585 39.6641 37.9102 39.4312 37.9851C39.0714 38.1003 38.6965 38.1697 38.3348 38.2848C37.5129 38.5448 36.742 38.8941 36.1279 39.5359C35.7521 39.9297 35.3778 40.3269 34.9658 40.6824C34.1727 41.3636 33.3187 41.8787 32.2099 41.7077C32.1186 41.6944 32.0756 41.7199 32.0515 41.8176C31.9176 42.3694 31.8009 42.922 31.8341 43.4962C31.8379 43.5571 31.8756 43.6354 31.7934 43.6815C31.738 43.3734 31.7436 43.0596 31.8126 42.7596C31.857 42.571 31.8111 42.5166 31.6506 42.4651C31.5055 42.4195 31.3345 42.4368 31.2179 42.3077C31.3749 42.2914 31.5197 42.3439 31.6594 42.3961C31.8415 42.4661 31.8625 42.3267 31.8869 42.2221C31.9072 42.1295 31.9655 42.0075 31.7724 41.9821C31.5415 41.9512 31.3141 41.8841 31.0883 41.8206C30.9959 41.795 30.8739 41.8044 30.8317 41.6791C31.1679 41.757 31.5044 41.8279 31.8366 41.9159C31.9701 41.9522 31.9695 41.8603 31.9974 41.7906C32.0314 41.7021 32.0076 41.6592 31.9026 41.6417C31.6445 41.5991 31.389 41.5375 31.1313 41.4862C30.4821 41.3542 29.8411 41.1966 29.2518 40.8769C29.3335 40.8065 29.3247 40.7054 29.3433 40.6127C29.4041 40.5776 29.4635 40.6049 29.5254 40.615C29.7716 40.6536 30.0173 40.7025 30.268 40.6858C30.4474 40.6724 30.6099 40.6182 30.7464 40.4933C30.4009 40.3595 30.0636 40.2365 29.7323 40.0964C29.3961 39.9527 29.0772 39.7733 28.7736 39.567C28.4164 39.3233 28.1393 39.0056 27.8627 38.6792C27.401 38.137 27.1609 37.5366 27.2877 36.818C27.3732 36.3331 27.544 35.8751 27.732 35.4215C27.829 35.1871 27.9888 34.9801 28.0365 34.724C28.1178 34.2875 28.008 33.4458 27.8047 33.0086C27.5621 33.6815 27.1577 34.2282 26.5961 34.6576C26.5004 34.7308 26.5323 34.8208 26.5437 34.903C26.5738 35.1283 26.618 35.3509 26.657 35.5732C26.5395 35.5308 26.5573 35.4189 26.5357 35.3311C26.4924 35.1606 26.4981 34.9804 26.4225 34.7944C26.2924 34.9301 26.0147 34.8968 26.0644 35.1821C25.9746 35.1741 26.0295 34.9809 25.8649 35.0436C25.711 35.1017 25.7849 35.2182 25.7719 35.3025C25.7483 35.4592 25.7488 35.6206 25.7458 35.78C25.7368 36.2306 25.8078 36.6419 25.9274 36.8492C26.0649 36.3636 26.1073 35.8713 26.034 35.3697C26.0264 35.3138 25.9796 35.2455 26.0683 35.2084C26.2207 35.6897 26.1562 36.1722 26.0623 36.6531C25.9542 37.208 25.711 37.723 25.5721 38.2693C25.3964 38.9595 25.3795 39.6317 25.7813 40.2594C25.9854 40.5786 26.1986 40.8913 26.257 41.2777C26.2636 41.3179 26.2474 41.3969 26.3267 41.3732C26.5945 41.2949 26.6344 41.4981 26.7074 41.6667C26.5817 41.8858 26.5679 42.1227 26.5954 42.367C26.6109 42.5049 26.6231 42.6408 26.6369 42.7785C26.7004 43.4046 26.8075 44.0276 26.9921 44.6269C27.1083 45.0023 27.2038 45.3767 27.2762 45.7603C27.3211 46.0037 27.3484 46.2497 27.3845 46.4944C27.4583 46.375 27.4438 46.2511 27.4776 46.1331C27.6096 45.6888 27.7738 45.2583 27.967 44.8379C28.1193 44.5056 28.1885 44.1691 28.0486 43.8168C27.9717 43.622 27.8825 43.4319 27.7986 43.2402C28.0006 43.2939 28.0132 43.2859 28.0347 43.1013C28.1102 43.1191 28.1212 43.2098 28.1859 43.234C28.4463 43.334 28.5671 43.5518 28.6205 43.7974C28.6794 44.071 28.8499 44.2341 29.081 44.3638C28.9096 44.0498 28.8002 43.7094 28.6889 43.3741C28.4298 42.601 27.9461 42.0473 27.2067 41.7112C27.1881 41.6998 27.1696 41.6885 27.1528 41.7119C27.1629 41.7194 27.1729 41.7268 27.1829 41.7343C27.2 41.7733 27.2189 41.8107 27.236 41.8497C27.1046 41.8743 27.0853 41.7761 27.093 41.6933C27.1036 41.588 27.2002 41.6345 27.257 41.6426C27.3087 41.6505 27.3571 41.6876 27.4043 41.7143C27.4465 41.739 27.488 41.7411 27.5159 41.7044C27.5513 41.6559 27.4759 41.6382 27.4781 41.5949C27.6943 41.6424 27.9005 41.7171 28.1005 41.8105C28.1445 41.8319 28.216 41.8598 28.1986 41.8953C28.1398 42.0276 28.2517 42.0438 28.3153 42.0904C28.6129 42.312 28.9462 42.4799 29.3149 42.4987C30.0452 42.5376 30.6033 42.8922 31.1043 43.3792C31.3292 43.5971 31.5613 43.8102 31.8031 44.0359C31.8126 43.9514 31.8192 43.891 31.8275 43.829C31.8969 43.9314 31.836 44.0723 31.9385 44.1712C32.2361 44.4605 32.5301 44.753 32.8759 44.9823C33.4735 45.3788 34.1331 45.6483 34.8068 45.8787C35.5726 46.1415 36.3528 46.36 37.166 46.4066C37.8928 46.4471 38.619 46.4651 39.3459 46.5021C39.4481 46.5073 39.6217 46.4711 39.6311 46.593C39.6397 46.6975 39.4655 46.7095 39.3619 46.7337C38.4745 46.9504 37.5794 47.1147 36.6675 47.1983C35.5395 47.3004 34.4139 47.3229 33.3009 47.0632C33.24 47.0653 33.1684 47.0408 33.1459 47.142ZM22.4096 16.05C22.3592 16.0179 22.356 15.9432 22.2841 15.9256C22.0887 15.8775 21.8937 15.8207 21.7004 15.7675C21.6874 15.7825 21.6764 15.7958 21.6634 15.8107C21.9129 16.16 22.1389 16.5272 22.4486 16.817C22.5903 16.6924 22.5424 16.5425 22.5684 16.4068C22.6184 16.3452 22.5823 16.5775 22.6574 16.4321C22.7361 16.2835 22.8199 16.1368 22.9097 15.9749C22.7765 15.9681 22.6672 15.9677 22.5585 15.9552C22.4774 15.9459 22.4244 15.964 22.4096 16.05ZM18.5794 36.211C18.5612 36.2275 18.5449 36.2422 18.5267 36.2587C18.5568 36.281 18.585 36.272 18.6137 36.2527C19.1594 36.1365 19.7099 36.0605 20.2696 36.1098C20.6497 36.1431 20.6493 36.1517 20.8329 35.8176C20.8597 35.7686 20.8847 35.7196 20.9063 35.6704C21.1093 35.228 21.3625 34.8228 21.7431 34.5056C22.0241 34.2701 22.3116 34.0436 22.6104 33.8334C23.0496 33.5227 23.2363 33.0273 23.1099 32.5438C23.0722 32.3979 23.0235 32.3677 22.8919 32.4633C22.3893 32.8246 21.9641 33.2678 21.5407 33.7112C21.0476 34.2273 20.5776 34.7654 20.0266 35.2248C19.5755 35.5991 19.0371 35.8458 18.5794 36.211ZM23.6868 34.4017C23.7955 34.1765 23.5825 33.9974 23.4857 33.7843C23.4295 33.6617 23.3834 33.6472 23.2925 33.7623C23.1219 33.9774 22.9478 34.1923 22.693 34.3233C22.3276 34.5129 22.0123 34.7744 21.7647 35.1035C21.5041 35.4493 21.2245 35.7942 21.2969 36.2801C21.3127 36.3798 21.337 36.414 21.44 36.4349C21.7614 36.4964 22.0702 36.4306 22.3726 36.3523C22.6347 36.2841 22.8986 36.2126 23.0974 35.9903C23.4879 35.547 23.6463 35.0259 23.6868 34.4017ZM26.2929 42.4106C25.9509 43.2658 25.6224 44.1268 25.4546 45.036C26.109 44.2835 26.3912 43.4096 26.2929 42.4106ZM36.2808 34.7661C36.1804 34.7609 36.0973 34.7567 36.0142 34.7525C35.9623 34.7498 35.9237 34.7583 35.9117 34.8236C35.8864 34.9801 36.2006 35.4542 36.3632 35.4642C36.569 35.4781 36.7735 35.4504 36.9699 35.3754C37.0194 35.3571 37.0523 35.3258 37.0089 35.2906C36.774 35.1 36.6834 34.6981 36.2808 34.7661ZM18.6436 16.3629C19.0654 15.9507 19.4873 15.5385 19.9075 15.1245C19.9514 15.0816 20.047 15.0431 19.9919 14.9674C19.9254 14.8756 19.8433 14.9217 19.7606 14.9765C19.4969 15.1452 19.2627 15.3484 19.0482 15.5734C18.8375 15.7916 18.6638 16.0343 18.6436 16.3629ZM24.5942 34.9164C24.5692 35.3731 24.4694 35.7982 24.3868 36.2277C24.38 36.2586 24.384 36.2831 24.411 36.2983C24.4648 36.3323 24.4588 36.2782 24.4723 36.2529C24.6228 35.9899 24.7733 35.727 24.9255 35.4641C24.9865 35.3562 25.1105 35.2393 25.0945 35.1448C25.0744 35.0276 24.8853 35.0613 24.7788 35.0056C24.7229 34.9784 24.6687 34.9531 24.5942 34.9164ZM19.6249 16.72C19.9128 16.1795 20.2075 15.7088 20.3462 15.1659C20.1471 15.3605 20.0356 15.6081 19.8416 15.8064C19.62 16.0327 19.6349 16.3544 19.6249 16.72ZM34.7708 34.6353C34.5131 34.584 34.5164 34.5876 34.3747 34.7105C34.3021 34.7745 34.2544 34.8588 34.17 34.9135C33.9278 35.0694 33.8421 35.2871 33.9177 35.5737C33.9439 35.6722 33.9719 35.7361 34.0774 35.7102C34.1916 35.6814 34.1267 35.5931 34.1086 35.5401C34.0358 35.3334 34.1008 35.1823 34.2672 35.0503C34.4264 34.9231 34.5644 34.7688 34.7708 34.6353ZM17.1708 13.4913C17.401 13.5724 18.0378 13.6066 18.4293 13.5537C17.9992 13.4121 17.58 13.4653 17.1708 13.4913ZM29.0755 32.4194C29.0982 32.3824 29.0744 32.3725 29.0491 32.3573C28.8674 32.2457 28.6874 32.1342 28.5075 32.0209C28.4655 31.9945 28.445 32.0212 28.4244 32.0514C28.3962 32.0933 28.428 32.1158 28.4549 32.1327C28.6279 32.2457 28.8029 32.3535 28.9723 32.4696C29.0561 32.5277 29.0608 32.469 29.0755 32.4194ZM6.6477 36.132C6.64767 36.0643 6.62635 36.006 6.57572 36.0121C6.46042 36.027 6.3751 36.1008 6.3281 36.2059C6.30641 36.2569 6.35076 36.306 6.40278 36.3069C6.53268 36.3118 6.58004 36.1997 6.6477 36.132ZM22.5161 32.1076C22.4659 32.1051 22.4454 32.0988 22.4277 32.1049C22.3873 32.1149 22.3405 32.149 22.384 32.1807C22.4207 32.2086 22.4667 32.1571 22.5161 32.1076Z" fill="#3B3920"/>
<defs>
<radialGradient id="paint0_radial" cx="0" cy="0" r="1" gradientUnits="userSpaceOnUse" gradientTransform="translate(29 63) rotate(90) scale(19)">
<stop stop-color="#B08036"/>
<stop offset="1" stop-color="#FBBA3F" stop-opacity="0.35"/>
</radialGradient>
</defs>
</svg>
