<svg width="26" height="26" viewBox="0 0 26 26" fill="none" xmlns="http://www.w3.org/2000/svg">
<circle cx="13" cy="13" r="12.75" stroke="black" stroke-width="0.5"/>
<path d="M14.0078 9.30957C13.821 9.30957 13.6615 9.23665 13.5293 9.09082C13.3971 8.94499 13.3311 8.76953 13.3311 8.56445C13.3311 8.35482 13.3971 8.17708 13.5293 8.03125C13.6615 7.88542 13.821 7.8125 14.0078 7.8125C14.1947 7.8125 14.3542 7.88542 14.4863 8.03125C14.623 8.17708 14.6914 8.35482 14.6914 8.56445C14.6914 8.77409 14.623 8.95182 14.4863 9.09766C14.3542 9.23893 14.1947 9.30957 14.0078 9.30957ZM14.1719 10.8066C14.1992 10.8203 14.2106 10.8385 14.2061 10.8613L12.8252 15.7422C12.7614 16.002 12.7295 16.1569 12.7295 16.207C12.7295 16.2754 12.7432 16.3346 12.7705 16.3848C12.7933 16.4395 12.8503 16.4668 12.9414 16.4668C13.0964 16.4668 13.3014 16.3324 13.5566 16.0635C13.707 15.904 13.8916 15.6761 14.1104 15.3799L14.2881 15.5303L14.2197 15.626C13.8779 16.1045 13.5954 16.4486 13.3721 16.6582C13.0212 16.9863 12.6794 17.1504 12.3467 17.1504C12.1507 17.1504 11.9867 17.0684 11.8545 16.9043C11.7269 16.7402 11.6631 16.5465 11.6631 16.3232C11.6631 16.1911 11.6722 16.0771 11.6904 15.9814C11.7087 15.8812 11.7428 15.7354 11.793 15.5439L12.75 12.0303C12.7637 11.9756 12.7751 11.9255 12.7842 11.8799C12.7933 11.8343 12.7979 11.7887 12.7979 11.7432C12.7979 11.5791 12.7363 11.4788 12.6133 11.4424C12.4948 11.4014 12.2578 11.3809 11.9023 11.3809V11.1553C12.2806 11.1097 12.5518 11.0755 12.7158 11.0527C12.8844 11.0254 13.0531 10.998 13.2217 10.9707C13.4404 10.9342 13.6478 10.8932 13.8438 10.8477C14.0397 10.8021 14.1491 10.7884 14.1719 10.8066Z" fill="black"/>
</svg>
