<svg width="97" height="11" viewBox="0 0 97 11" fill="none" xmlns="http://www.w3.org/2000/svg">
<path d="M1.324 10V0.661999H0.162V10H1.324ZM7.80764 10V1.684H10.4816V0.661999H3.97164V1.684H6.64564V10H7.80764ZM28.0986 0.661999H27.0766L25.3406 8.222L23.1986 0.661999H22.2606L20.2726 8.222L18.3966 0.661999H17.1926L19.5586 10H20.7486L22.6526 2.762L24.6826 10H25.8586L28.0986 0.661999ZM36.8214 10L33.7834 0.661999H32.4394L29.4154 10H30.3954L31.2214 7.27H34.6794L35.6174 10H36.8214ZM34.4274 6.388H31.5574L32.9994 1.908L34.4274 6.388ZM38.6244 7.508C38.9604 8.39 39.2124 8.796 39.7024 9.258C40.4024 9.888 41.2564 10.182 42.4324 10.182C44.5324 10.182 45.8904 9.076 45.8904 7.368C45.8904 6.038 45.0784 5.17 43.4824 4.792L41.7464 4.372C40.6544 4.106 40.2204 3.7 40.2204 2.958C40.2204 2.076 41.0604 1.432 42.1944 1.432C42.8384 1.432 43.4684 1.656 43.9304 2.062C44.2384 2.328 44.3924 2.58 44.5184 3.07L45.5684 2.776C45.0504 1.264 43.9024 0.48 42.2364 0.48C40.3464 0.48 39.0864 1.502 39.0864 3.028C39.0864 3.756 39.3524 4.372 39.8424 4.834C40.2064 5.156 40.6124 5.352 41.3824 5.534L43.2444 6.01C44.1544 6.234 44.6724 6.766 44.6724 7.48C44.6724 8.544 43.8324 9.188 42.4324 9.188C41.0044 9.188 40.1084 8.572 39.6744 7.284L38.6244 7.508ZM55.4711 5.618H56.5351C58.1031 5.618 59.0411 6.304 59.0411 7.438C59.0411 7.9 58.8591 8.334 58.5091 8.67C58.1451 9.034 57.5431 9.23 56.7591 9.23C55.9891 9.23 55.3171 9.034 54.9251 8.684C54.6311 8.432 54.4631 8.124 54.2671 7.55L53.1751 7.914C53.4551 8.642 53.7071 8.992 54.2531 9.412C54.9391 9.93 55.7231 10.182 56.7171 10.182C58.8171 10.182 60.2591 9.062 60.2591 7.41C60.2591 6.192 59.4611 5.338 58.1031 5.086C59.2231 4.834 59.8951 4.036 59.8951 2.958C59.8951 1.53 58.6211 0.48 56.8571 0.48C55.9611 0.48 55.1771 0.717999 54.5611 1.18C54.0711 1.558 53.8191 1.908 53.5111 2.622L54.5751 2.916C54.7431 2.468 54.8691 2.272 55.0931 2.048C55.4991 1.642 56.1151 1.404 56.7591 1.404C57.9071 1.404 58.7051 2.076 58.7051 3.042C58.7051 4.092 57.9211 4.68 56.5351 4.68H55.4711V5.618ZM74.7199 10L71.6819 0.661999H70.3379L67.3139 10H68.2939L69.1199 7.27H72.5779L73.5159 10H74.7199ZM72.3259 6.388H69.4559L70.8979 1.908L72.3259 6.388ZM79.0669 8.474H77.5409V10H79.0669V8.474ZM91.6109 10V0.661999H89.9029L87.1449 8.124L84.3449 0.661999H82.6089V10H83.6029V1.852L86.6549 10H87.4529L90.4769 1.852V10H91.6109ZM96.6462 8.474H95.1202V10H96.6462V8.474Z" fill="black"/>
</svg>
