<svg width="94" height="11" viewBox="0 0 94 11" fill="none" xmlns="http://www.w3.org/2000/svg">
<path d="M4.158 0.661999H2.996V7.144C2.996 8.082 2.954 8.32 2.702 8.642C2.436 9.006 1.96 9.174 1.246 9.174C0.826 9.174 0.546 9.146 0 9.048V10C0.574 10.14 0.882 10.182 1.344 10.182C3.262 10.182 4.158 9.216 4.158 7.144V0.661999ZM13.8246 10L10.7866 0.661999H9.44256L6.41856 10H7.39856L8.22456 7.27H11.6826L12.6206 10H13.8246ZM11.4306 6.388H8.56056L10.0026 1.908L11.4306 6.388ZM23.5235 10V0.661999H22.5995V6.948C22.5995 7.046 22.5995 7.284 22.6135 7.634L22.6275 8.278L18.1055 0.661999H16.6495V10H17.5875V3.07C17.5875 3 17.5875 2.79 17.5735 2.482L17.5595 1.866L22.3895 10H23.5235ZM32.5707 0.661999V6.766C32.5707 7.592 32.4447 8.082 32.1087 8.474C31.7447 8.908 31.1147 9.16 30.3867 9.16C29.6587 9.16 28.9727 8.894 28.6507 8.474C28.3847 8.124 28.2727 7.634 28.2727 6.766V0.661999H27.1107V6.766C27.1107 7.83 27.2787 8.502 27.6707 9.076C28.1887 9.818 29.0567 10.182 30.2887 10.182C31.4647 10.182 32.3607 9.804 32.9067 9.076C33.3547 8.488 33.5367 7.83 33.5367 6.766V0.661999H32.5707ZM43.1945 10L40.1565 0.661999H38.8125L35.7885 10H36.7685L37.5945 7.27H41.0525L41.9905 10H43.1945ZM40.8005 6.388H37.9305L39.3725 1.908L40.8005 6.388ZM52.7394 10L50.9054 5.674C51.4514 5.478 51.7174 5.324 51.9974 5.002C52.3894 4.568 52.6414 3.896 52.6414 3.28C52.6414 1.726 51.4374 0.661999 49.6874 0.661999H46.0194V10H47.1114V5.954H49.7854L51.5074 10H52.7394ZM47.1114 5.002V1.684H49.6874C50.7934 1.684 51.4794 2.286 51.4794 3.252C51.4794 3.728 51.3114 4.162 51.0034 4.484C50.6534 4.848 50.2194 5.002 49.5474 5.002H47.1114ZM61.8906 0.661999H60.8266L58.3346 4.96L55.8566 0.661999H54.4846L57.6066 6.066V10H58.7686V6.066L61.8906 0.661999ZM74.2353 10V7.774H75.7473V6.85H74.2353V0.465999H72.7653L68.4953 6.99V7.774H73.1013V10H74.2353ZM73.1013 6.85H69.7133L72.6253 2.286C72.7933 2.006 72.8913 1.838 73.1293 1.404C73.1013 1.866 73.1013 2.048 73.1013 2.44V6.85ZM81.6541 10V1.684H84.3281V0.661999H77.8181V1.684H80.4921V10H81.6541ZM93.6307 10V0.661999H92.4687V4.526H88.1287V0.661999H86.9667V10H88.1287V5.548H92.4687V10H93.6307Z" fill="black"/>
</svg>
