<svg width="136" height="11" viewBox="0 0 136 11" fill="none" xmlns="http://www.w3.org/2000/svg">
<path d="M7.54 10L4.278 3.938L6.812 0.661999H5.552L1.324 6.08V0.661999H0.162V10H1.324V7.508L3.466 4.848L6.252 10H7.54ZM16.2503 8.978H11.3783V5.618H15.1443V4.666H11.3783V1.684H16.1243V0.661999H10.2163V10H16.2503V8.978ZM25.3202 8.978H20.4482V5.618H24.2142V4.666H20.4482V1.684H25.1942V0.661999H19.2862V10H25.3202V8.978ZM29.5181 10V6.206H31.7861C33.4801 6.206 34.6841 5.058 34.6841 3.448C34.6841 2.594 34.2781 1.726 33.6621 1.25C33.1721 0.857999 32.5001 0.661999 31.6601 0.661999H28.3561V10H29.5181ZM29.5181 5.24V1.642H31.7441C32.7801 1.642 33.4941 2.384 33.4941 3.448C33.4941 4.526 32.7661 5.24 31.6601 5.24H29.5181ZM38.5744 10V0.661999H37.4124V10H38.5744ZM49.1864 10V0.661999H48.2624V6.948C48.2624 7.046 48.2624 7.284 48.2764 7.634L48.2904 8.278L43.7684 0.661999H42.3124V10H43.2504V3.07C43.2504 3 43.2504 2.79 43.2364 2.482L43.2224 1.866L48.0524 10H49.1864ZM59.8022 5.296H56.3022V6.276H58.5982C58.6122 6.472 58.6122 6.64 58.6122 6.78C58.6122 8.264 57.6882 9.244 56.3162 9.244C55.4342 9.244 54.6222 8.782 54.1882 8.04C53.8102 7.368 53.5862 6.416 53.5862 5.394C53.5862 4.358 53.8102 3.378 54.2022 2.678C54.6082 1.922 55.3642 1.474 56.2462 1.474C56.9322 1.474 57.5622 1.74 57.9962 2.202C58.2902 2.524 58.4302 2.804 58.5982 3.448L59.7042 3.182C59.4802 2.384 59.2842 2.006 58.8922 1.558C58.2622 0.843999 57.4222 0.48 56.3582 0.48C53.9362 0.48 52.3122 2.468 52.3122 5.436C52.3122 6.878 52.7182 8.096 53.5022 9.006C54.2022 9.804 55.0562 10.196 56.1622 10.196C57.3382 10.196 58.0942 9.832 58.7662 8.95L59.0742 10.126H59.8022V5.296ZM68.2507 10H71.7647C73.9487 10 75.5587 7.998 75.5587 5.296C75.5587 3.826 75.0547 2.552 74.1447 1.684C73.4027 0.983999 72.5487 0.661999 71.3727 0.661999H68.2507V10ZM69.4127 9.006V1.642H71.3027C72.2267 1.642 72.8847 1.908 73.3887 2.454C74.0187 3.154 74.3687 4.162 74.3687 5.296C74.3687 6.458 73.9907 7.578 73.3607 8.236C72.8987 8.726 72.1567 9.006 71.3167 9.006H69.4127ZM79.8771 10V0.661999H78.7151V10H79.8771ZM82.5931 7.508C82.9291 8.39 83.1811 8.796 83.6711 9.258C84.3711 9.888 85.2251 10.182 86.4011 10.182C88.5011 10.182 89.8591 9.076 89.8591 7.368C89.8591 6.038 89.0471 5.17 87.4511 4.792L85.7151 4.372C84.6231 4.106 84.1891 3.7 84.1891 2.958C84.1891 2.076 85.0291 1.432 86.1631 1.432C86.8071 1.432 87.4371 1.656 87.8991 2.062C88.2071 2.328 88.3611 2.58 88.4871 3.07L89.5371 2.776C89.0191 1.264 87.8711 0.48 86.2051 0.48C84.3151 0.48 83.0551 1.502 83.0551 3.028C83.0551 3.756 83.3211 4.372 83.8111 4.834C84.1751 5.156 84.5811 5.352 85.3511 5.534L87.2131 6.01C88.1231 6.234 88.6411 6.766 88.6411 7.48C88.6411 8.544 87.8011 9.188 86.4011 9.188C84.9731 9.188 84.0771 8.572 83.6431 7.284L82.5931 7.508ZM95.5811 10V1.684H98.2551V0.661999H91.7451V1.684H94.4191V10H95.5811ZM106.414 10L103.376 0.661999H102.032L99.008 10H99.988L100.814 7.27H104.272L105.21 10H106.414ZM104.02 6.388H101.15L102.592 1.908L104.02 6.388ZM116.113 10V0.661999H115.189V6.948C115.189 7.046 115.189 7.284 115.203 7.634L115.217 8.278L110.695 0.661999H109.239V10H110.177V3.07C110.177 3 110.177 2.79 110.163 2.482L110.149 1.866L114.979 10H116.113ZM125.413 6.864C125.203 7.62 125.063 7.942 124.783 8.334C124.405 8.852 123.733 9.188 123.061 9.188C121.507 9.188 120.513 7.69 120.513 5.366C120.513 2.93 121.479 1.474 123.103 1.474C124.251 1.474 124.923 2.132 125.385 3.686L126.477 3.476C125.987 1.474 124.867 0.48 123.117 0.48C120.765 0.48 119.239 2.356 119.239 5.24C119.239 6.752 119.673 8.096 120.471 9.048C121.101 9.79 121.969 10.182 123.033 10.182C124.083 10.182 124.937 9.804 125.539 9.09C126.001 8.544 126.225 8.068 126.477 7.102L125.413 6.864ZM135.354 8.978H130.482V5.618H134.248V4.666H130.482V1.684H135.228V0.661999H129.32V10H135.354V8.978Z" fill="black"/>
</svg>
