<svg width="61" height="11" viewBox="0 0 61 11" fill="none" xmlns="http://www.w3.org/2000/svg">
<path d="M4.424 0.48C2.156 0.48 0.588 2.468 0.588 5.352C0.588 6.808 0.994 8.054 1.736 8.978C2.394 9.776 3.29 10.182 4.396 10.182C5.488 10.182 6.328 9.804 7 9.006C7.798 8.068 8.246 6.724 8.246 5.324C8.246 2.412 6.72 0.48 4.424 0.48ZM4.41 1.432C6.048 1.432 7.028 2.888 7.028 5.31C7.028 7.676 5.992 9.23 4.424 9.23C2.842 9.23 1.806 7.69 1.806 5.366C1.806 2.986 2.828 1.432 4.41 1.432ZM18.268 10V0.661999H17.344V6.948C17.344 7.046 17.344 7.284 17.358 7.634L17.372 8.278L12.85 0.661999H11.394V10H12.332V3.07C12.332 3 12.332 2.79 12.318 2.482L12.304 1.866L17.134 10H18.268ZM28.0292 8.978H23.1572V5.618H26.9232V4.666H23.1572V1.684H27.9032V0.661999H21.9952V10H28.0292V8.978ZM35.9651 10H39.4791C41.6631 10 43.2731 7.998 43.2731 5.296C43.2731 3.826 42.7691 2.552 41.8591 1.684C41.1171 0.983999 40.2631 0.661999 39.0871 0.661999H35.9651V10ZM37.1271 9.006V1.642H39.0171C39.9411 1.642 40.5991 1.908 41.1031 2.454C41.7331 3.154 42.0831 4.162 42.0831 5.296C42.0831 6.458 41.7051 7.578 41.0751 8.236C40.6131 8.726 39.8711 9.006 39.0311 9.006H37.1271ZM52.4695 10L49.4315 0.661999H48.0875L45.0635 10H46.0435L46.8695 7.27H50.3275L51.2655 10H52.4695ZM50.0755 6.388H47.2055L48.6475 1.908L50.0755 6.388ZM60.5781 0.661999H59.5141L57.0221 4.96L54.5441 0.661999H53.1721L56.2941 6.066V10H57.4561V6.066L60.5781 0.661999Z" fill="black"/>
</svg>
